STARTFONT 2.3
FONT -FontForge-Source Sans Pro-Book-R-Normal-SansPro--18-180-72-72-P-88-ISO10646-1
SIZE 18 72 72  2
FONTBOUNDINGBOX 47 23 -8 -5
COMMENT "Generated by fontforge, http://fontforge.sourceforge.net"
COMMENT "Copyright 2010, 2012, 2014 Adobe Systems Incorporated (http://www.adobe.com/), with Reserved Font Name `Source'."
STARTPROPERTIES 41
FOUNDRY "FontForge"
FAMILY_NAME "Source Sans Pro"
WEIGHT_NAME "Book"
SLANT "R"
SETWIDTH_NAME "Normal"
ADD_STYLE_NAME "SansPro"
PIXEL_SIZE 18
POINT_SIZE 180
RESOLUTION_X 72
RESOLUTION_Y 72
SPACING "P"
AVERAGE_WIDTH 88
CHARSET_REGISTRY "ISO10646"
CHARSET_ENCODING "1"
FONTNAME_REGISTRY ""
CHARSET_COLLECTIONS "ISO8859-2 ISO8859-5 ISO8859-7 ISO8859-9 ISO8859-4 ISO10646-1"
BITS_PER_PIXEL 2
FONT_NAME "SourceSansPro-Regular"
FACE_NAME "Source Sans Pro Regular"
COPYRIGHT "Copyright 2010, 2012, 2014 Adobe Systems Incorporated (http://www.adobe.com/), with Reserved Font Name `Source'."
FONT_VERSION "2.021;PS 2.000;hotconv 1.0.86;makeotf.lib2.5.63406"
FONT_ASCENT 13
FONT_DESCENT 5
UNDERLINE_POSITION -2
UNDERLINE_THICKNESS 1
X_HEIGHT 8
CAP_HEIGHT 11
RAW_ASCENT 750
RAW_DESCENT 250
NORM_SPACE 4
RELATIVE_WEIGHT 40
RELATIVE_SETWIDTH 50
SUPERSCRIPT_X 0
SUPERSCRIPT_Y 6
SUPERSCRIPT_SIZE 10
SUBSCRIPT_X 0
SUBSCRIPT_Y 1
SUBSCRIPT_SIZE 10
FIGURE_WIDTH 9
AVG_LOWERCASE_WIDTH 91
AVG_UPPERCASE_WIDTH 108
ENDPROPERTIES
CHARS 1896
STARTCHAR space
ENCODING 32
SWIDTH 200 0
DWIDTH 4 0
BBX 1 1 0 0
BITMAP
00
ENDCHAR
STARTCHAR exclam
ENCODING 33
SWIDTH 289 0
DWIDTH 5 0
BBX 3 13 1 0
BITMAP
24
34
34
34
34
34
34
30
30
00
00
74
74
ENDCHAR
STARTCHAR quotedbl
ENCODING 34
SWIDTH 425 0
DWIDTH 8 0
BBX 6 5 1 8
BITMAP
B1D0
B1C0
71C0
61C0
60C0
ENDCHAR
STARTCHAR numbersign
ENCODING 35
SWIDTH 497 0
DWIDTH 9 0
BBX 9 11 0 0
BITMAP
030900
020800
060C00
3FFF40
091800
091800
7FFF00
0C2400
0C2400
183000
183000
ENDCHAR
STARTCHAR dollar
ENCODING 36
SWIDTH 497 0
DWIDTH 9 0
BBX 7 14 1 -1
BITMAP
0300
0300
1FE0
7424
B000
7000
2D00
07D0
00B4
0028
0028
A074
2FD0
0300
ENDCHAR
STARTCHAR percent
ENCODING 37
SWIDTH 824 0
DWIDTH 15 0
BBX 15 12 0 0
BITMAP
1B800C00
34A02400
70706000
60309000
70718000
34A24B80
1B8628A0
000C3030
00183034
00303030
009028A0
00C00B80
ENDCHAR
STARTCHAR ampersand
ENCODING 38
SWIDTH 609 0
DWIDTH 11 0
BBX 11 12 0 0
BITMAP
02F400
0A1C00
091C00
0A7800
07D000
0B8014
2DD070
74B4A0
702DD0
740F80
291FE4
0BF864
ENDCHAR
STARTCHAR quotesingle
ENCODING 39
SWIDTH 249 0
DWIDTH 4 0
BBX 2 5 1 8
BITMAP
B0
B0
70
60
60
ENDCHAR
STARTCHAR parenleft
ENCODING 40
SWIDTH 303 0
DWIDTH 5 0
BBX 4 16 1 -3
BITMAP
05
0D
18
24
30
70
60
60
60
60
70
30
24
18
0D
05
ENDCHAR
STARTCHAR parenright
ENCODING 41
SWIDTH 303 0
DWIDTH 5 0
BBX 3 16 1 -3
BITMAP
80
90
70
34
28
18
1C
1C
1C
1C
18
28
34
70
90
80
ENDCHAR
STARTCHAR asterisk
ENCODING 42
SWIDTH 418 0
DWIDTH 8 0
BBX 6 5 1 8
BITMAP
0900
5940
7F90
1F00
3280
ENDCHAR
STARTCHAR plus
ENCODING 43
SWIDTH 497 0
DWIDTH 9 0
BBX 9 9 0 1
BITMAP
008000
00C000
00C000
00C000
7FFF40
00C000
00C000
00C000
008000
ENDCHAR
STARTCHAR comma
ENCODING 44
SWIDTH 249 0
DWIDTH 4 0
BBX 3 5 1 -3
BITMAP
B4
B8
24
70
90
ENDCHAR
STARTCHAR hyphen
ENCODING 45
SWIDTH 311 0
DWIDTH 6 0
BBX 5 1 0 4
BITMAP
7FC0
ENDCHAR
STARTCHAR period
ENCODING 46
SWIDTH 249 0
DWIDTH 4 0
BBX 2 2 1 0
BITMAP
B0
B0
ENDCHAR
STARTCHAR slash
ENCODING 47
SWIDTH 350 0
DWIDTH 6 0
BBX 6 16 0 -3
BITMAP
0030
0060
0090
00C0
0180
0240
0300
0600
0A00
0D00
0C00
1800
2400
3000
6000
9000
ENDCHAR
STARTCHAR zero
ENCODING 48
SWIDTH 497 0
DWIDTH 9 0
BBX 8 11 0 0
BITMAP
07E4
1D1D
280A
3407
3407
7407
3407
3407
280A
1D1D
07E4
ENDCHAR
STARTCHAR one
ENCODING 49
SWIDTH 497 0
DWIDTH 9 0
BBX 7 11 1 0
BITMAP
0B80
3F80
0380
0380
0380
0380
0380
0380
0380
0380
BFFC
ENDCHAR
STARTCHAR two
ENCODING 50
SWIDTH 497 0
DWIDTH 9 0
BBX 8 11 0 0
BITMAP
1BE4
382C
000D
000E
001D
0038
00B4
02D0
0B40
2D00
7FFF
ENDCHAR
STARTCHAR three
ENCODING 51
SWIDTH 497 0
DWIDTH 9 0
BBX 8 11 0 0
BITMAP
0BE4
282D
000E
000D
006C
03F4
001D
000B
000B
741E
1BE4
ENDCHAR
STARTCHAR four
ENCODING 52
SWIDTH 497 0
DWIDTH 9 0
BBX 9 11 0 0
BITMAP
003C00
00BC00
02EC00
076C00
0E2C00
2C2C00
742C00
BFFF40
002C00
002C00
002C00
ENDCHAR
STARTCHAR five
ENCODING 53
SWIDTH 497 0
DWIDTH 9 0
BBX 8 11 0 0
BITMAP
1FFE
1C00
1C00
1C00
2EF4
181E
000B
0007
000B
741D
1BE4
ENDCHAR
STARTCHAR six
ENCODING 54
SWIDTH 497 0
DWIDTH 9 0
BBX 8 11 1 0
BITMAP
0BE4
3818
7000
D000
DBE0
F478
D01C
D01D
A01C
7878
1BE0
ENDCHAR
STARTCHAR seven
ENCODING 55
SWIDTH 497 0
DWIDTH 9 0
BBX 9 11 0 0
BITMAP
7FFF40
000A00
001C00
003400
007000
00E000
00D000
01C000
02C000
028000
028000
ENDCHAR
STARTCHAR eight
ENCODING 56
SWIDTH 497 0
DWIDTH 9 0
BBX 8 11 0 0
BITMAP
07F4
1D1D
280A
1D0A
0BAC
0BF8
281E
7007
7407
291A
0BF8
ENDCHAR
STARTCHAR nine
ENCODING 57
SWIDTH 497 0
DWIDTH 9 0
BBX 8 11 0 0
BITMAP
0BE4
281C
740A
7407
381B
1BE7
000B
000A
000D
2468
1FE0
ENDCHAR
STARTCHAR colon
ENCODING 58
SWIDTH 249 0
DWIDTH 4 0
BBX 2 9 1 0
BITMAP
B0
B0
00
00
00
00
00
B0
B0
ENDCHAR
STARTCHAR semicolon
ENCODING 59
SWIDTH 249 0
DWIDTH 4 0
BBX 3 12 1 -3
BITMAP
B0
B0
00
00
00
00
00
B4
B8
24
70
90
ENDCHAR
STARTCHAR less
ENCODING 60
SWIDTH 497 0
DWIDTH 9 0
BBX 9 7 0 2
BITMAP
000640
01BE00
1B9000
780000
1B9000
01BE00
000640
ENDCHAR
STARTCHAR equal
ENCODING 61
SWIDTH 497 0
DWIDTH 9 0
BBX 9 5 0 3
BITMAP
7FFF40
000000
000000
000000
7FFF40
ENDCHAR
STARTCHAR greater
ENCODING 62
SWIDTH 497 0
DWIDTH 9 0
BBX 9 7 0 2
BITMAP
640000
2F8000
01B900
000B40
01B900
2F8000
640000
ENDCHAR
STARTCHAR question
ENCODING 63
SWIDTH 425 0
DWIDTH 8 0
BBX 6 12 1 0
BITMAP
6F80
91D0
00A0
00E0
02C0
0740
0E00
0D00
0000
0000
1D00
1D00
ENDCHAR
STARTCHAR at
ENCODING 64
SWIDTH 847 0
DWIDTH 15 0
BBX 14 15 1 -3
BITMAP
006FE400
02901D00
0D000340
28000180
702E90C0
90A1D090
D0C0D090
C181C0D0
C18181C0
C1C7C240
90B8BD00
60000000
28000000
0E405000
01BF8000
ENDCHAR
STARTCHAR A
ENCODING 65
SWIDTH 544 0
DWIDTH 10 0
BBX 10 12 0 0
BITMAP
00F000
01B400
026800
035C00
070D00
0A0A00
0D0B00
1FFF40
280380
3402C0
7001D0
A000E0
ENDCHAR
STARTCHAR B
ENCODING 66
SWIDTH 588 0
DWIDTH 11 0
BBX 9 12 1 0
BITMAP
7FF800
701E00
700700
700700
701E00
7FF800
701B40
700280
700280
700380
701B40
7FF900
ENDCHAR
STARTCHAR C
ENCODING 67
SWIDTH 571 0
DWIDTH 10 0
BBX 9 12 1 0
BITMAP
06F900
1D0700
740000
B00000
E00000
E00000
E00000
E00000
B00000
740000
1D0740
06F900
ENDCHAR
STARTCHAR D
ENCODING 68
SWIDTH 615 0
DWIDTH 11 0
BBX 9 12 1 0
BITMAP
7FE400
701E00
700740
700280
7002C0
7001C0
7001C0
7002C0
700280
700740
701E00
7FE400
ENDCHAR
STARTCHAR E
ENCODING 69
SWIDTH 527 0
DWIDTH 9 0
BBX 8 12 1 0
BITMAP
7FFD
7000
7000
7000
7000
7FF8
7000
7000
7000
7000
7000
7FFE
ENDCHAR
STARTCHAR F
ENCODING 70
SWIDTH 494 0
DWIDTH 9 0
BBX 8 12 1 0
BITMAP
7FFD
7000
7000
7000
7000
7000
7FF8
7000
7000
7000
7000
7000
ENDCHAR
STARTCHAR G
ENCODING 71
SWIDTH 617 0
DWIDTH 11 0
BBX 9 12 1 0
BITMAP
06FE00
1E0640
740000
B00000
E00000
E00000
E03FC0
E001C0
B001C0
7401C0
1E06C0
06FE00
ENDCHAR
STARTCHAR H
ENCODING 72
SWIDTH 652 0
DWIDTH 12 0
BBX 9 12 1 0
BITMAP
7001C0
7001C0
7001C0
7001C0
7001C0
7FFFC0
7001C0
7001C0
7001C0
7001C0
7001C0
7001C0
ENDCHAR
STARTCHAR I
ENCODING 73
SWIDTH 263 0
DWIDTH 5 0
BBX 2 12 1 0
BITMAP
70
70
70
70
70
70
70
70
70
70
70
70
ENDCHAR
STARTCHAR J
ENCODING 74
SWIDTH 480 0
DWIDTH 9 0
BBX 7 12 0 0
BITMAP
001C
001C
001C
001C
001C
001C
001C
001C
001C
002C
7478
1BE0
ENDCHAR
STARTCHAR K
ENCODING 75
SWIDTH 579 0
DWIDTH 10 0
BBX 9 12 1 0
BITMAP
700740
701E00
703800
70B000
72D000
7BE000
7E7400
783800
701D00
700B00
700740
7002C0
ENDCHAR
STARTCHAR L
ENCODING 76
SWIDTH 486 0
DWIDTH 9 0
BBX 8 12 1 0
BITMAP
7000
7000
7000
7000
7000
7000
7000
7000
7000
7000
7000
7FFD
ENDCHAR
STARTCHAR M
ENCODING 77
SWIDTH 727 0
DWIDTH 13 0
BBX 11 12 1 0
BITMAP
7800B4
7C00F4
7D01E4
7A02B4
770374
734734
728A34
70CD34
70AC34
707434
702034
700034
ENDCHAR
STARTCHAR N
ENCODING 78
SWIDTH 647 0
DWIDTH 12 0
BBX 9 12 1 0
BITMAP
7401C0
7C01C0
7A01C0
7701C0
7281C0
71D1C0
70A1C0
7035C0
702DC0
700EC0
7007C0
7002C0
ENDCHAR
STARTCHAR O
ENCODING 79
SWIDTH 664 0
DWIDTH 12 0
BBX 10 12 1 0
BITMAP
06F900
2D0740
7401D0
B000E0
E000B0
E000B0
E000B0
E000B0
B000E0
7401D0
2D0740
06F900
ENDCHAR
STARTCHAR P
ENCODING 80
SWIDTH 566 0
DWIDTH 10 0
BBX 9 12 1 0
BITMAP
7FF800
701F00
700740
700340
700740
701E00
7FE400
700000
700000
700000
700000
700000
ENDCHAR
STARTCHAR Q
ENCODING 81
SWIDTH 664 0
DWIDTH 12 0
BBX 10 15 1 -3
BITMAP
06F900
2D0740
7401D0
B000E0
E000B0
E000B0
E000B0
E000B0
B000E0
7401D0
2D0780
06F900
007000
002D00
0007F0
ENDCHAR
STARTCHAR R
ENCODING 82
SWIDTH 569 0
DWIDTH 10 0
BBX 9 12 1 0
BITMAP
7FF800
701B00
700740
700340
700740
701E00
7FF800
707000
703800
701D00
700B00
700780
ENDCHAR
STARTCHAR S
ENCODING 83
SWIDTH 534 0
DWIDTH 10 0
BBX 8 12 1 0
BITMAP
1BE4
381D
B000
B000
7900
1F90
01B8
001E
000B
400A
E41D
2FE4
ENDCHAR
STARTCHAR T
ENCODING 84
SWIDTH 536 0
DWIDTH 10 0
BBX 9 12 0 0
BITMAP
BFFFC0
00E000
00E000
00E000
00E000
00E000
00E000
00E000
00E000
00E000
00E000
00E000
ENDCHAR
STARTCHAR U
ENCODING 85
SWIDTH 645 0
DWIDTH 12 0
BBX 9 12 1 0
BITMAP
7001C0
7001C0
7001C0
7001C0
7001C0
7001C0
7001C0
7001C0
7402C0
340280
1D0B00
06F900
ENDCHAR
STARTCHAR V
ENCODING 86
SWIDTH 515 0
DWIDTH 9 0
BBX 9 12 0 0
BITMAP
E001C0
B00280
740340
380740
2C0B00
1D0E00
0D0D00
0A1C00
072800
037400
02F000
01E000
ENDCHAR
STARTCHAR W
ENCODING 87
SWIDTH 786 0
DWIDTH 14 0
BBX 14 12 0 0
BITMAP
700B00A0
740F40D0
341E41D0
381A81C0
2825C280
1C34D280
1D70D340
0D60A340
0AA07700
0AD03A00
07C03E00
07802D00
ENDCHAR
STARTCHAR X
ENCODING 88
SWIDTH 513 0
DWIDTH 9 0
BBX 9 12 0 0
BITMAP
740340
2C0B00
0D0D00
0B2800
03B400
01E000
02F000
077400
0A2C00
1D0E00
380700
700380
ENDCHAR
STARTCHAR Y
ENCODING 89
SWIDTH 476 0
DWIDTH 9 0
BBX 9 12 0 0
BITMAP
A00740
740B00
280D00
1C2C00
0E3400
07B000
03D000
02C000
01C000
01C000
01C000
01C000
ENDCHAR
STARTCHAR Z
ENCODING 90
SWIDTH 539 0
DWIDTH 10 0
BBX 9 12 0 0
BITMAP
2FFFC0
000780
000F00
002D00
007800
00B000
01D000
038000
0B4000
1E0000
3C0000
7FFFC0
ENDCHAR
STARTCHAR bracketleft
ENCODING 91
SWIDTH 303 0
DWIDTH 5 0
BBX 4 16 1 -3
BITMAP
7F
60
60
60
60
60
60
60
60
60
60
60
60
60
60
7F
ENDCHAR
STARTCHAR backslash
ENCODING 92
SWIDTH 350 0
DWIDTH 6 0
BBX 6 16 0 -3
BITMAP
9000
6000
3000
2400
1800
0C00
0900
0600
0700
0340
0240
0180
00C0
0090
0060
0030
ENDCHAR
STARTCHAR bracketright
ENCODING 93
SWIDTH 303 0
DWIDTH 5 0
BBX 4 16 0 -3
BITMAP
7E
06
06
06
06
06
06
06
06
06
06
06
06
06
06
7E
ENDCHAR
STARTCHAR asciicircum
ENCODING 94
SWIDTH 497 0
DWIDTH 9 0
BBX 7 7 1 5
BITMAP
0740
0A80
1CC0
28A0
3070
6024
5014
ENDCHAR
STARTCHAR underscore
ENCODING 95
SWIDTH 500 0
DWIDTH 9 0
BBX 9 1 0 -2
BITMAP
BFFF80
ENDCHAR
STARTCHAR grave
ENCODING 96
SWIDTH 542 0
DWIDTH 10 0
BBX 4 4 2 10
BITMAP
60
78
1D
06
ENDCHAR
STARTCHAR a
ENCODING 97
SWIDTH 504 0
DWIDTH 9 0
BBX 7 9 1 0
BITMAP
2FD0
6474
0028
06F8
7928
E028
D028
A0B8
6E58
ENDCHAR
STARTCHAR b
ENCODING 98
SWIDTH 553 0
DWIDTH 10 0
BBX 8 13 1 0
BITMAP
B000
B000
B000
B000
B6F4
B91D
B00A
B007
B007
B00B
B00E
B82D
A7E4
ENDCHAR
STARTCHAR c
ENCODING 99
SWIDTH 456 0
DWIDTH 8 0
BBX 7 9 1 0
BITMAP
1BE4
7820
B000
E000
D000
D000
A000
7814
1BE4
ENDCHAR
STARTCHAR d
ENCODING 100
SWIDTH 555 0
DWIDTH 10 0
BBX 8 13 1 0
BITMAP
000E
000E
000E
000E
1BDE
782E
B00E
E00E
D00E
D00E
E00E
742E
1F9A
ENDCHAR
STARTCHAR e
ENCODING 101
SWIDTH 496 0
DWIDTH 9 0
BBX 8 9 1 0
BITMAP
1BE0
7878
A01C
D00C
FFFD
D000
A000
7814
0BE4
ENDCHAR
STARTCHAR f
ENCODING 102
SWIDTH 292 0
DWIDTH 5 0
BBX 6 13 0 0
BITMAP
07E0
0E00
1D00
1D00
7FC0
1D00
1D00
1D00
1D00
1D00
1D00
1D00
1D00
ENDCHAR
STARTCHAR g
ENCODING 103
SWIDTH 504 0
DWIDTH 9 0
BBX 8 13 1 -4
BITMAP
1FFE
7474
A028
A028
7470
3B90
A000
A000
3FF9
900A
D00A
E42D
2FE4
ENDCHAR
STARTCHAR h
ENCODING 104
SWIDTH 544 0
DWIDTH 10 0
BBX 8 13 1 0
BITMAP
B000
B000
B000
B000
B2F4
B92C
B00D
B00D
B00D
B00D
B00D
B00D
B00D
ENDCHAR
STARTCHAR i
ENCODING 105
SWIDTH 246 0
DWIDTH 4 0
BBX 2 13 1 0
BITMAP
A0
B0
00
00
B0
B0
B0
B0
B0
B0
B0
B0
B0
ENDCHAR
STARTCHAR j
ENCODING 106
SWIDTH 247 0
DWIDTH 4 0
BBX 4 17 -1 -4
BITMAP
06
0B
00
00
0B
0B
0B
0B
0B
0B
0B
0B
0B
0B
0B
0A
B8
ENDCHAR
STARTCHAR k
ENCODING 107
SWIDTH 495 0
DWIDTH 9 0
BBX 8 13 1 0
BITMAP
B000
B000
B000
B000
B02C
B074
B1D0
B380
BBC0
BCE0
B074
B028
B01D
ENDCHAR
STARTCHAR l
ENCODING 108
SWIDTH 255 0
DWIDTH 5 0
BBX 3 13 1 0
BITMAP
B0
B0
B0
B0
B0
B0
B0
B0
B0
B0
B0
70
38
ENDCHAR
STARTCHAR m
ENCODING 109
SWIDTH 829 0
DWIDTH 15 0
BBX 13 9 1 0
BITMAP
A6F4BD00
B82E4740
B01D0340
B01D0380
B01D0380
B01D0380
B01D0380
B01D0380
B01D0380
ENDCHAR
STARTCHAR n
ENCODING 110
SWIDTH 547 0
DWIDTH 10 0
BBX 8 9 1 0
BITMAP
A6F4
B92C
B00D
B00D
B00D
B00D
B00D
B00D
B00D
ENDCHAR
STARTCHAR o
ENCODING 111
SWIDTH 542 0
DWIDTH 10 0
BBX 8 9 1 0
BITMAP
1BE0
782C
A00E
D00A
D00B
D00A
A00E
782C
1BE0
ENDCHAR
STARTCHAR p
ENCODING 112
SWIDTH 555 0
DWIDTH 10 0
BBX 8 13 1 -4
BITMAP
A6F4
B91D
B00A
B007
B007
B00B
B00E
B82D
B7E4
B000
B000
B000
B000
ENDCHAR
STARTCHAR q
ENCODING 113
SWIDTH 555 0
DWIDTH 10 0
BBX 8 13 1 -4
BITMAP
1BDA
782E
B00E
E00E
D00E
D00E
E00E
742E
1F9E
000E
000E
000E
000E
ENDCHAR
STARTCHAR r
ENCODING 114
SWIDTH 347 0
DWIDTH 6 0
BBX 5 9 1 0
BITMAP
A6C0
B800
B000
B000
B000
B000
B000
B000
B000
ENDCHAR
STARTCHAR s
ENCODING 115
SWIDTH 419 0
DWIDTH 8 0
BBX 7 9 0 0
BITMAP
0BE4
2824
3400
2D00
07E0
0078
002C
6428
1FE0
ENDCHAR
STARTCHAR t
ENCODING 116
SWIDTH 338 0
DWIDTH 6 0
BBX 6 12 0 0
BITMAP
0D00
0D00
1D00
BFE0
1D00
1D00
1D00
1D00
1D00
1D00
0E00
07E0
ENDCHAR
STARTCHAR u
ENCODING 117
SWIDTH 544 0
DWIDTH 10 0
BBX 8 9 1 0
BITMAP
B00D
B00D
B00D
B00D
B00D
B00D
B01D
746D
2F8D
ENDCHAR
STARTCHAR v
ENCODING 118
SWIDTH 467 0
DWIDTH 8 0
BBX 8 9 0 0
BITMAP
B007
740A
380D
2C1C
1D28
0E34
0A70
03A0
02D0
ENDCHAR
STARTCHAR w
ENCODING 119
SWIDTH 718 0
DWIDTH 13 0
BBX 13 9 0 0
BITMAP
701D0340
342E0700
383B0B00
28330A00
1C624D00
0D929C00
0AD1D800
0BC0F800
0780B400
ENDCHAR
STARTCHAR x
ENCODING 120
SWIDTH 446 0
DWIDTH 8 0
BBX 8 9 0 0
BITMAP
741D
2C28
0E70
07E0
03C0
0AE0
1D74
2828
700D
ENDCHAR
STARTCHAR y
ENCODING 121
SWIDTH 467 0
DWIDTH 8 0
BBX 8 13 0 -4
BITMAP
B007
740A
280D
1C1C
0D28
0A34
0770
03E0
02D0
01C0
0280
0700
7900
ENDCHAR
STARTCHAR z
ENCODING 122
SWIDTH 425 0
DWIDTH 8 0
BBX 8 9 0 0
BITMAP
3FFC
0078
00B0
01D0
0380
0B00
1D00
3800
7FFD
ENDCHAR
STARTCHAR braceleft
ENCODING 123
SWIDTH 303 0
DWIDTH 5 0
BBX 5 16 0 -3
BITMAP
07C0
0D00
0D00
0D00
0D00
0D00
1D00
7800
1C00
0D00
0D00
0D00
0D00
0D00
0D00
07C0
ENDCHAR
STARTCHAR bar
ENCODING 124
SWIDTH 241 0
DWIDTH 4 0
BBX 2 18 1 -5
BITMAP
60
60
60
60
60
60
60
60
60
60
60
60
60
60
60
60
60
60
ENDCHAR
STARTCHAR braceright
ENCODING 125
SWIDTH 303 0
DWIDTH 5 0
BBX 5 16 0 -3
BITMAP
7800
0D00
0900
0900
0900
0D00
0A00
07C0
0A00
0900
0900
0900
0900
0900
0D00
7800
ENDCHAR
STARTCHAR asciitilde
ENCODING 126
SWIDTH 497 0
DWIDTH 9 0
BBX 7 2 1 5
BITMAP
7E08
82F4
ENDCHAR
STARTCHAR uni00A0
ENCODING 160
SWIDTH 202 0
DWIDTH 4 0
BBX 1 1 0 0
BITMAP
00
ENDCHAR
STARTCHAR exclamdown
ENCODING 161
SWIDTH 289 0
DWIDTH 5 0
BBX 3 13 1 -4
BITMAP
74
74
00
00
30
30
34
34
34
34
34
34
24
ENDCHAR
STARTCHAR cent
ENCODING 162
SWIDTH 497 0
DWIDTH 9 0
BBX 7 13 1 -1
BITMAP
0180
0180
0BF4
3994
7180
A180
E180
A180
B180
3988
0BF4
0180
0180
ENDCHAR
STARTCHAR sterling
ENCODING 163
SWIDTH 497 0
DWIDTH 9 0
BBX 7 11 1 0
BITMAP
0BF4
2D18
3800
3800
2800
FFE0
1D00
1D00
2C00
7400
FFFC
ENDCHAR
STARTCHAR currency
ENCODING 164
SWIDTH 497 0
DWIDTH 9 0
BBX 9 9 0 1
BITMAP
100100
7AEB40
2D1D00
380A00
340700
380A00
2D1D00
7AEB40
100100
ENDCHAR
STARTCHAR yen
ENCODING 165
SWIDTH 497 0
DWIDTH 9 0
BBX 9 11 0 0
BITMAP
740740
280A00
0C1C00
0A2400
037000
7FFF00
01D000
2BFA00
01D000
01D000
01D000
ENDCHAR
STARTCHAR brokenbar
ENCODING 166
SWIDTH 241 0
DWIDTH 4 0
BBX 2 18 1 -5
BITMAP
60
60
60
60
60
60
60
60
10
10
60
60
60
60
60
60
60
60
ENDCHAR
STARTCHAR section
ENCODING 167
SWIDTH 497 0
DWIDTH 9 0
BBX 7 13 1 -1
BITMAP
1BE0
3460
3400
3E00
A6E0
C078
D01C
B81C
1FB4
01E0
0070
60B0
2F90
ENDCHAR
STARTCHAR dieresis
ENCODING 168
SWIDTH 542 0
DWIDTH 10 0
BBX 6 2 2 10
BITMAP
A0D0
A0D0
ENDCHAR
STARTCHAR copyright
ENCODING 169
SWIDTH 744 0
DWIDTH 13 0
BBX 12 12 1 0
BITMAP
02FE40
1D01A0
340024
90BD0C
C38209
870005
870005
C34209
91BD0C
340024
1E01A0
02FE40
ENDCHAR
STARTCHAR ordfeminine
ENCODING 170
SWIDTH 345 0
DWIDTH 6 0
BBX 6 6 0 7
BITMAP
1F80
10D0
1BD0
3490
71D0
2E90
ENDCHAR
STARTCHAR guillemotleft
ENCODING 171
SWIDTH 429 0
DWIDTH 8 0
BBX 7 7 0 1
BITMAP
0614
0D70
28D0
7180
24D0
0D70
0614
ENDCHAR
STARTCHAR logicalnot
ENCODING 172
SWIDTH 497 0
DWIDTH 9 0
BBX 9 5 0 1
BITMAP
7FFF40
000340
000340
000340
000100
ENDCHAR
STARTCHAR uni00AD
ENCODING 173
SWIDTH 311 0
DWIDTH 6 0
BBX 5 1 0 4
BITMAP
7FC0
ENDCHAR
STARTCHAR registered
ENCODING 174
SWIDTH 423 0
DWIDTH 8 0
BBX 8 7 0 6
BITMAP
0BD0
2428
5BC8
9BC9
5988
2428
0BD0
ENDCHAR
STARTCHAR macron
ENCODING 175
SWIDTH 542 0
DWIDTH 10 0
BBX 6 1 2 11
BITMAP
BFD0
ENDCHAR
STARTCHAR degree
ENCODING 176
SWIDTH 331 0
DWIDTH 6 0
BBX 4 4 1 8
BITMAP
7D
C3
C3
7D
ENDCHAR
STARTCHAR plusminus
ENCODING 177
SWIDTH 497 0
DWIDTH 9 0
BBX 9 11 0 0
BITMAP
004000
00C000
00C000
00C000
7FFF40
00C000
00C000
00C000
004000
000000
7FFF40
ENDCHAR
STARTCHAR two.sups
ENCODING 178
SWIDTH 367 0
DWIDTH 7 0
BBX 5 7 1 7
BITMAP
7E00
8340
0240
0700
1D00
7400
FF80
ENDCHAR
STARTCHAR three.sups
ENCODING 179
SWIDTH 367 0
DWIDTH 7 0
BBX 5 7 1 7
BITMAP
7E00
9340
0740
2E00
0280
8280
7E00
ENDCHAR
STARTCHAR acute
ENCODING 180
SWIDTH 542 0
DWIDTH 10 0
BBX 3 4 4 10
BITMAP
08
2C
B0
90
ENDCHAR
STARTCHAR uni00B5
ENCODING 181
SWIDTH 562 0
DWIDTH 10 0
BBX 9 12 1 -3
BITMAP
B00D00
B00D00
B00D00
B00D00
B00D00
B00D00
B01D00
B46D00
BB8B40
B00000
B00000
B00000
ENDCHAR
STARTCHAR paragraph
ENCODING 182
SWIDTH 560 0
DWIDTH 10 0
BBX 9 14 0 -2
BITMAP
06F340
2FF340
3FF340
7FF340
7FF340
3FF340
1FF340
01A340
000340
000340
000340
000340
000340
000100
ENDCHAR
STARTCHAR periodcentered
ENCODING 183
SWIDTH 249 0
DWIDTH 4 0
BBX 2 2 1 5
BITMAP
B0
B0
ENDCHAR
STARTCHAR cedilla
ENCODING 184
SWIDTH 542 0
DWIDTH 10 0
BBX 4 5 3 -5
BITMAP
24
38
1D
1D
A4
ENDCHAR
STARTCHAR one.sups
ENCODING 185
SWIDTH 367 0
DWIDTH 7 0
BBX 4 7 1 7
BITMAP
6D
0D
0D
0D
0D
0D
0D
ENDCHAR
STARTCHAR ordmasculine
ENCODING 186
SWIDTH 365 0
DWIDTH 7 0
BBX 6 6 0 7
BITMAP
1F80
34A0
6070
6070
34A0
1F80
ENDCHAR
STARTCHAR guillemotright
ENCODING 187
SWIDTH 429 0
DWIDTH 8 0
BBX 6 7 1 1
BITMAP
8200
6280
28A0
0C70
28A0
6180
8200
ENDCHAR
STARTCHAR onequarter
ENCODING 188
SWIDTH 781 0
DWIDTH 14 0
BBX 13 12 1 0
BITMAP
7C009000
1C00C000
1C024000
1C020000
1C090000
1C181D00
1C243900
00609900
00818900
0182FF40
03000900
06000900
ENDCHAR
STARTCHAR onehalf
ENCODING 189
SWIDTH 808 0
DWIDTH 15 0
BBX 13 12 1 0
BITMAP
7C00C000
1C018000
1C030000
1C090000
1C0C0000
1C247E00
1C208740
00900340
01800700
02401D00
0600B400
0800FF80
ENDCHAR
STARTCHAR threequarters
ENCODING 190
SWIDTH 796 0
DWIDTH 14 0
BBX 13 12 1 0
BITMAP
7E002000
93406000
0740C000
2E018000
02830000
82890E00
7E0C2A00
00246600
0061C600
0092FF80
01800600
02400600
ENDCHAR
STARTCHAR questiondown
ENCODING 191
SWIDTH 425 0
DWIDTH 8 0
BBX 6 12 1 -3
BITMAP
0B00
0B00
0000
0000
0A00
0E00
2C00
7400
E000
D000
E0A0
2F80
ENDCHAR
STARTCHAR Agrave
ENCODING 192
SWIDTH 544 0
DWIDTH 10 0
BBX 10 16 0 0
BITMAP
060000
02C000
006000
000000
00F000
01B400
026800
035C00
070D00
0A0A00
0D0B00
1FFF40
280380
3402C0
7001D0
A000E0
ENDCHAR
STARTCHAR Aacute
ENCODING 193
SWIDTH 544 0
DWIDTH 10 0
BBX 10 16 0 0
BITMAP
001800
007800
009000
000000
00F000
01B400
026800
035C00
070D00
0A0A00
0D0B00
1FFF40
280380
3402C0
7001D0
A000E0
ENDCHAR
STARTCHAR Acircumflex
ENCODING 194
SWIDTH 544 0
DWIDTH 10 0
BBX 10 16 0 0
BITMAP
01F000
036800
090900
000000
00F000
01B400
026800
035C00
070D00
0A0A00
0D0B00
1FFF40
280380
3402C0
7001D0
A000E0
ENDCHAR
STARTCHAR Atilde
ENCODING 195
SWIDTH 544 0
DWIDTH 10 0
BBX 10 15 0 0
BITMAP
0BD700
186D00
000000
00F000
01B400
026800
035C00
070D00
0A0A00
0D0B00
1FFF40
280380
3402C0
7001D0
A000E0
ENDCHAR
STARTCHAR Adieresis
ENCODING 196
SWIDTH 544 0
DWIDTH 10 0
BBX 10 15 0 0
BITMAP
0A0D00
0A0D00
000000
00F000
01B400
026800
035C00
070D00
0A0A00
0D0B00
1FFF40
280380
3402C0
7001D0
A000E0
ENDCHAR
STARTCHAR Aring
ENCODING 197
SWIDTH 544 0
DWIDTH 10 0
BBX 10 16 0 0
BITMAP
01E000
021800
025800
01E000
00F000
01B400
026800
035C00
070D00
0A0A00
0D0B00
1FFF40
280380
3402C0
7001D0
A000E0
ENDCHAR
STARTCHAR AE
ENCODING 198
SWIDTH 822 0
DWIDTH 15 0
BBX 14 12 0 0
BITMAP
000FFFE0
001F8000
00368000
00728000
00D28000
02C2FFC0
03428000
0BFF8000
0D028000
2C028000
34028000
B002FFF0
ENDCHAR
STARTCHAR Ccedilla
ENCODING 199
SWIDTH 571 0
DWIDTH 10 0
BBX 9 17 1 -5
BITMAP
06F900
1D0700
740000
B00000
E00000
E00000
E00000
E00000
B00000
740000
1D0740
06F900
005000
00B000
002800
006400
01E000
ENDCHAR
STARTCHAR Egrave
ENCODING 200
SWIDTH 527 0
DWIDTH 9 0
BBX 8 16 1 0
BITMAP
0900
0B40
0180
0000
7FFD
7000
7000
7000
7000
7FF8
7000
7000
7000
7000
7000
7FFE
ENDCHAR
STARTCHAR Eacute
ENCODING 201
SWIDTH 527 0
DWIDTH 9 0
BBX 8 16 1 0
BITMAP
0024
00E0
0240
0000
7FFD
7000
7000
7000
7000
7FF8
7000
7000
7000
7000
7000
7FFE
ENDCHAR
STARTCHAR Ecircumflex
ENCODING 202
SWIDTH 527 0
DWIDTH 9 0
BBX 8 16 1 0
BITMAP
03D0
0A70
1818
0000
7FFD
7000
7000
7000
7000
7FF8
7000
7000
7000
7000
7000
7FFE
ENDCHAR
STARTCHAR Edieresis
ENCODING 203
SWIDTH 527 0
DWIDTH 9 0
BBX 8 15 1 0
BITMAP
1C28
1C28
0000
7FFD
7000
7000
7000
7000
7FF8
7000
7000
7000
7000
7000
7FFE
ENDCHAR
STARTCHAR Igrave
ENCODING 204
SWIDTH 263 0
DWIDTH 5 0
BBX 3 16 0 0
BITMAP
90
74
18
00
1C
1C
1C
1C
1C
1C
1C
1C
1C
1C
1C
1C
ENDCHAR
STARTCHAR Iacute
ENCODING 205
SWIDTH 263 0
DWIDTH 5 0
BBX 4 16 1 0
BITMAP
09
2D
60
00
70
70
70
70
70
70
70
70
70
70
70
70
ENDCHAR
STARTCHAR Icircumflex
ENCODING 206
SWIDTH 263 0
DWIDTH 5 0
BBX 5 16 0 0
BITMAP
2E00
A740
8180
0000
1C00
1C00
1C00
1C00
1C00
1C00
1C00
1C00
1C00
1C00
1C00
1C00
ENDCHAR
STARTCHAR Idieresis
ENCODING 207
SWIDTH 263 0
DWIDTH 5 0
BBX 6 15 -1 0
BITMAP
7470
7470
0000
0700
0700
0700
0700
0700
0700
0700
0700
0700
0700
0700
0700
ENDCHAR
STARTCHAR Eth
ENCODING 208
SWIDTH 638 0
DWIDTH 11 0
BBX 11 12 0 0
BITMAP
0FFA00
0E06C0
0E00E0
0E0074
0E0034
7FF438
0E0038
0E0034
0E0070
0E00E0
0E06C0
0FFE00
ENDCHAR
STARTCHAR Ntilde
ENCODING 209
SWIDTH 647 0
DWIDTH 12 0
BBX 9 15 1 0
BITMAP
0BD700
186D00
000000
7401C0
7C01C0
7A01C0
7701C0
7281C0
71D1C0
70A1C0
7035C0
702DC0
700EC0
7007C0
7002C0
ENDCHAR
STARTCHAR Ograve
ENCODING 210
SWIDTH 664 0
DWIDTH 12 0
BBX 10 16 1 0
BITMAP
020000
02D000
006000
000000
06F900
2D0740
7401D0
B000E0
E000B0
E000B0
E000B0
E000B0
B000E0
7401D0
2D0740
06F900
ENDCHAR
STARTCHAR Oacute
ENCODING 211
SWIDTH 664 0
DWIDTH 12 0
BBX 10 16 1 0
BITMAP
000800
007800
009000
000000
06F900
2D0740
7401D0
B000E0
E000B0
E000B0
E000B0
E000B0
B000E0
7401D0
2D0740
06F900
ENDCHAR
STARTCHAR Ocircumflex
ENCODING 212
SWIDTH 664 0
DWIDTH 12 0
BBX 10 16 1 0
BITMAP
01F400
036C00
050900
000000
06F900
2D0740
7401D0
B000E0
E000B0
E000B0
E000B0
E000B0
B000E0
7401D0
2D0740
06F900
ENDCHAR
STARTCHAR Otilde
ENCODING 213
SWIDTH 664 0
DWIDTH 12 0
BBX 10 15 1 0
BITMAP
0BD300
086D00
000000
06F900
2D0740
7401D0
B000E0
E000B0
E000B0
E000B0
E000B0
B000E0
7401D0
2D0740
06F900
ENDCHAR
STARTCHAR Odieresis
ENCODING 214
SWIDTH 664 0
DWIDTH 12 0
BBX 10 15 1 0
BITMAP
0A0D00
0A0D00
000000
06F900
2D0740
7401D0
B000E0
E000B0
E000B0
E000B0
E000B0
B000E0
7401D0
2D0740
06F900
ENDCHAR
STARTCHAR multiply
ENCODING 215
SWIDTH 497 0
DWIDTH 9 0
BBX 7 7 1 2
BITMAP
9018
7474
1ED0
0B80
1DD0
7474
9018
ENDCHAR
STARTCHAR Oslash
ENCODING 216
SWIDTH 664 0
DWIDTH 12 0
BBX 10 12 1 0
BITMAP
06F970
2D07D0
7403C0
B00AE0
E028B0
E070B0
E0D0B0
A280B0
BA00E0
3C01D0
7D0780
D6F900
ENDCHAR
STARTCHAR Ugrave
ENCODING 217
SWIDTH 645 0
DWIDTH 12 0
BBX 9 16 1 0
BITMAP
060000
028000
009000
000000
7001C0
7001C0
7001C0
7001C0
7001C0
7001C0
7001C0
7001C0
7402C0
340280
1D0B00
06F900
ENDCHAR
STARTCHAR Uacute
ENCODING 218
SWIDTH 645 0
DWIDTH 12 0
BBX 9 16 1 0
BITMAP
001800
007800
009000
000000
7001C0
7001C0
7001C0
7001C0
7001C0
7001C0
7001C0
7001C0
7402C0
340280
1D0B00
06F900
ENDCHAR
STARTCHAR Ucircumflex
ENCODING 219
SWIDTH 645 0
DWIDTH 12 0
BBX 9 16 1 0
BITMAP
01F000
076800
090900
000000
7001C0
7001C0
7001C0
7001C0
7001C0
7001C0
7001C0
7001C0
7402C0
340280
1D0B00
06F900
ENDCHAR
STARTCHAR Udieresis
ENCODING 220
SWIDTH 645 0
DWIDTH 12 0
BBX 9 15 1 0
BITMAP
0A0D00
0A0D00
000000
7001C0
7001C0
7001C0
7001C0
7001C0
7001C0
7001C0
7001C0
7402C0
340280
1D0B00
06F900
ENDCHAR
STARTCHAR Yacute
ENCODING 221
SWIDTH 476 0
DWIDTH 9 0
BBX 9 16 0 0
BITMAP
002400
00A400
018000
000000
A00740
740B00
280D00
1C2C00
0E3400
07B000
03D000
02C000
01C000
01C000
01C000
01C000
ENDCHAR
STARTCHAR Thorn
ENCODING 222
SWIDTH 583 0
DWIDTH 11 0
BBX 9 12 1 0
BITMAP
700000
700000
7FF800
701B00
700340
700380
700340
701B00
7FF800
700000
700000
700000
ENDCHAR
STARTCHAR germandbls
ENCODING 223
SWIDTH 576 0
DWIDTH 10 0
BBX 9 13 1 0
BITMAP
0BE000
383800
702C00
702800
B07400
B0E000
B0D000
B0B400
B01F00
B00380
B00280
B04380
B1BE00
ENDCHAR
STARTCHAR agrave
ENCODING 224
SWIDTH 504 0
DWIDTH 9 0
BBX 7 14 1 0
BITMAP
1800
1D00
0740
0240
0000
2FD0
6474
0028
06F8
7928
E028
D028
A0B8
6E58
ENDCHAR
STARTCHAR aacute
ENCODING 225
SWIDTH 504 0
DWIDTH 9 0
BBX 7 14 1 0
BITMAP
0060
00E0
0280
0200
0000
2FD0
6474
0028
06F8
7928
E028
D028
A0B8
6E58
ENDCHAR
STARTCHAR acircumflex
ENCODING 226
SWIDTH 504 0
DWIDTH 9 0
BBX 7 13 1 0
BITMAP
0780
1DA0
2424
0000
2FD0
6474
0028
06F8
7928
E028
D028
A0B8
6E58
ENDCHAR
STARTCHAR atilde
ENCODING 227
SWIDTH 504 0
DWIDTH 9 0
BBX 7 13 1 0
BITMAP
0404
3B58
61F4
0000
2FD0
6474
0028
06F8
7928
E028
D028
A0B8
6E58
ENDCHAR
STARTCHAR adieresis
ENCODING 228
SWIDTH 504 0
DWIDTH 9 0
BBX 7 12 1 0
BITMAP
2870
2870
0000
2FD0
6474
0028
06F8
7928
E028
D028
A0B8
6E58
ENDCHAR
STARTCHAR aring
ENCODING 229
SWIDTH 504 0
DWIDTH 9 0
BBX 7 14 1 0
BITMAP
0B80
1C60
1C60
0B80
0000
2FD0
6474
0028
06F8
7928
E028
D028
A0B8
6E58
ENDCHAR
STARTCHAR ae
ENCODING 230
SWIDTH 785 0
DWIDTH 14 0
BBX 13 9 1 0
BITMAP
2FD1F800
647A0A00
002C0340
01BC0340
2EAFFF40
B42C0000
E02D0000
A0BB4500
2F82F900
ENDCHAR
STARTCHAR ccedilla
ENCODING 231
SWIDTH 456 0
DWIDTH 8 0
BBX 7 14 1 -5
BITMAP
1BE4
7820
B000
E000
D000
D000
A000
7814
1BE4
0240
0380
01D0
01C0
0A40
ENDCHAR
STARTCHAR egrave
ENCODING 232
SWIDTH 496 0
DWIDTH 9 0
BBX 8 14 1 0
BITMAP
1800
1D00
0740
0140
0000
1BE0
7878
A01C
D00C
FFFD
D000
A000
7814
0BE4
ENDCHAR
STARTCHAR eacute
ENCODING 233
SWIDTH 496 0
DWIDTH 9 0
BBX 8 14 1 0
BITMAP
0020
00F0
02C0
0200
0000
1BE0
7878
A01C
D00C
FFFD
D000
A000
7814
0BE4
ENDCHAR
STARTCHAR ecircumflex
ENCODING 234
SWIDTH 496 0
DWIDTH 9 0
BBX 8 13 1 0
BITMAP
07C0
1DA0
2424
0000
1BE0
7878
A01C
D00C
FFFD
D000
A000
7814
0BE4
ENDCHAR
STARTCHAR edieresis
ENCODING 235
SWIDTH 496 0
DWIDTH 9 0
BBX 8 12 1 0
BITMAP
2874
2874
0000
1BE0
7878
A01C
D00C
FFFD
D000
A000
7814
0BE4
ENDCHAR
STARTCHAR igrave
ENCODING 236
SWIDTH 246 0
DWIDTH 4 0
BBX 3 14 0 0
BITMAP
80
E0
38
08
00
2C
2C
2C
2C
2C
2C
2C
2C
2C
ENDCHAR
STARTCHAR iacute
ENCODING 237
SWIDTH 246 0
DWIDTH 4 0
BBX 4 14 1 0
BITMAP
09
1D
74
50
00
B0
B0
B0
B0
B0
B0
B0
B0
B0
ENDCHAR
STARTCHAR icircumflex
ENCODING 238
SWIDTH 246 0
DWIDTH 4 0
BBX 6 13 -1 0
BITMAP
0F40
29D0
6060
0000
0B00
0B00
0B00
0B00
0B00
0B00
0B00
0B00
0B00
ENDCHAR
STARTCHAR idieresis
ENCODING 239
SWIDTH 246 0
DWIDTH 4 0
BBX 6 12 -1 0
BITMAP
74A0
74A0
0000
0B00
0B00
0B00
0B00
0B00
0B00
0B00
0B00
0B00
ENDCHAR
STARTCHAR eth
ENCODING 240
SWIDTH 545 0
DWIDTH 10 0
BBX 8 13 1 0
BITMAP
1905
0BA8
07E0
1EB0
1038
055D
2EAD
B00E
D00A
D00A
A00D
7428
1BE0
ENDCHAR
STARTCHAR ntilde
ENCODING 241
SWIDTH 547 0
DWIDTH 10 0
BBX 8 13 1 0
BITMAP
0504
2A8D
24B8
0000
A6F4
B92C
B00D
B00D
B00D
B00D
B00D
B00D
B00D
ENDCHAR
STARTCHAR ograve
ENCODING 242
SWIDTH 542 0
DWIDTH 10 0
BBX 8 14 1 0
BITMAP
1800
1E00
0740
0180
0000
1BE0
782C
A00E
D00A
D00B
D00A
A00E
782C
1BE0
ENDCHAR
STARTCHAR oacute
ENCODING 243
SWIDTH 542 0
DWIDTH 10 0
BBX 8 14 1 0
BITMAP
0020
00B0
02C0
0240
0000
1BE0
782C
A00E
D00A
D00B
D00A
A00E
782C
1BE0
ENDCHAR
STARTCHAR ocircumflex
ENCODING 244
SWIDTH 542 0
DWIDTH 10 0
BBX 8 13 1 0
BITMAP
07C0
1DA0
2424
0000
1BE0
782C
A00E
D00A
D00B
D00A
A00E
782C
1BE0
ENDCHAR
STARTCHAR otilde
ENCODING 245
SWIDTH 542 0
DWIDTH 10 0
BBX 8 13 1 0
BITMAP
0404
3B5C
20B4
0000
1BE0
782C
A00E
D00A
D00B
D00A
A00E
782C
1BE0
ENDCHAR
STARTCHAR odieresis
ENCODING 246
SWIDTH 542 0
DWIDTH 10 0
BBX 8 12 1 0
BITMAP
2834
2834
0000
1BE0
782C
A00E
D00A
D00B
D00A
A00E
782C
1BE0
ENDCHAR
STARTCHAR divide
ENCODING 247
SWIDTH 497 0
DWIDTH 9 0
BBX 9 8 0 2
BITMAP
01D000
000000
000000
000000
7FFF40
000000
000000
01D000
ENDCHAR
STARTCHAR oslash
ENCODING 248
SWIDTH 542 0
DWIDTH 10 0
BBX 8 9 1 0
BITMAP
1BE6
782C
A02D
D09A
D24B
DA0A
B80E
782C
9BE0
ENDCHAR
STARTCHAR ugrave
ENCODING 249
SWIDTH 544 0
DWIDTH 10 0
BBX 8 14 1 0
BITMAP
1800
1E00
0740
0180
0000
B00D
B00D
B00D
B00D
B00D
B00D
B01D
746D
2F8D
ENDCHAR
STARTCHAR uacute
ENCODING 250
SWIDTH 544 0
DWIDTH 10 0
BBX 8 14 1 0
BITMAP
0020
00B0
02C0
0240
0000
B00D
B00D
B00D
B00D
B00D
B00D
B01D
746D
2F8D
ENDCHAR
STARTCHAR ucircumflex
ENCODING 251
SWIDTH 544 0
DWIDTH 10 0
BBX 8 13 1 0
BITMAP
07C0
1DB0
2414
0000
B00D
B00D
B00D
B00D
B00D
B00D
B01D
746D
2F8D
ENDCHAR
STARTCHAR udieresis
ENCODING 252
SWIDTH 544 0
DWIDTH 10 0
BBX 8 12 1 0
BITMAP
2834
2834
0000
B00D
B00D
B00D
B00D
B00D
B00D
B01D
746D
2F8D
ENDCHAR
STARTCHAR yacute
ENCODING 253
SWIDTH 467 0
DWIDTH 8 0
BBX 8 18 0 -4
BITMAP
0014
0078
00E0
0180
0000
B007
740A
280D
1C1C
0D28
0A34
0770
03E0
02D0
01C0
0280
0700
7900
ENDCHAR
STARTCHAR thorn
ENCODING 254
SWIDTH 555 0
DWIDTH 10 0
BBX 8 17 1 -4
BITMAP
B000
B000
B000
B000
B6F4
B91D
B00A
B007
B007
B00B
B00E
B82D
B6E4
B000
B000
B000
B000
ENDCHAR
STARTCHAR ydieresis
ENCODING 255
SWIDTH 467 0
DWIDTH 8 0
BBX 8 16 0 -4
BITMAP
0D28
0D28
0000
B007
740A
280D
1C1C
0D28
0A34
0770
03E0
02D0
01C0
0280
0700
7900
ENDCHAR
STARTCHAR Amacron
ENCODING 256
SWIDTH 544 0
DWIDTH 10 0
BBX 10 14 0 0
BITMAP
0BFD00
000000
00F000
01B400
026800
035C00
070D00
0A0A00
0D0B00
1FFF40
280380
3402C0
7001D0
A000E0
ENDCHAR
STARTCHAR amacron
ENCODING 257
SWIDTH 504 0
DWIDTH 9 0
BBX 7 12 1 0
BITMAP
2FF0
0000
0000
2FD0
6474
0028
06F8
7928
E028
D028
A0B8
6E58
ENDCHAR
STARTCHAR Abreve
ENCODING 258
SWIDTH 544 0
DWIDTH 10 0
BBX 10 16 0 0
BITMAP
090900
061C00
02F400
000000
00F000
01B400
026800
035C00
070D00
0A0A00
0D0B00
1FFF40
280380
3402C0
7001D0
A000E0
ENDCHAR
STARTCHAR abreve
ENCODING 259
SWIDTH 504 0
DWIDTH 9 0
BBX 7 13 1 0
BITMAP
3024
2870
0BD0
0000
2FD0
6474
0028
06F8
7928
E028
D028
A0B8
6E58
ENDCHAR
STARTCHAR Aogonek
ENCODING 260
SWIDTH 544 0
DWIDTH 10 0
BBX 10 16 0 -4
BITMAP
00F000
01B400
026800
035C00
070D00
0A0A00
0D0B00
1FFF40
280380
3402C0
7001D0
A000E0
000090
000240
000240
0001F0
ENDCHAR
STARTCHAR aogonek
ENCODING 261
SWIDTH 504 0
DWIDTH 9 0
BBX 7 13 1 -4
BITMAP
2FD0
6474
0028
01B8
2E68
B028
D028
E0B8
6E58
0024
0090
0090
0078
ENDCHAR
STARTCHAR Cacute
ENCODING 262
SWIDTH 571 0
DWIDTH 10 0
BBX 9 16 1 0
BITMAP
000800
007800
009000
000000
06F900
1D0700
740000
B00000
E00000
E00000
E00000
E00000
B00000
740000
1D0740
06F900
ENDCHAR
STARTCHAR cacute
ENCODING 263
SWIDTH 456 0
DWIDTH 8 0
BBX 7 14 1 0
BITMAP
0020
00B4
01D0
0240
0000
1BE4
7820
B000
E000
D000
D000
A000
7814
1BE4
ENDCHAR
STARTCHAR Ccircumflex
ENCODING 264
SWIDTH 571 0
DWIDTH 10 0
BBX 9 16 1 0
BITMAP
01F000
036800
050900
000000
06F900
1D0700
740000
B00000
E00000
E00000
E00000
E00000
B00000
740000
1D0740
06F900
ENDCHAR
STARTCHAR ccircumflex
ENCODING 265
SWIDTH 456 0
DWIDTH 8 0
BBX 7 13 1 0
BITMAP
07D0
0D70
2418
0000
1BE4
7820
B000
E000
D000
D000
A000
7814
1BE4
ENDCHAR
STARTCHAR Cdotaccent
ENCODING 266
SWIDTH 571 0
DWIDTH 10 0
BBX 9 15 1 0
BITMAP
00E000
00E000
000000
06F900
1D0700
740000
B00000
E00000
E00000
E00000
E00000
B00000
740000
1D0740
06F900
ENDCHAR
STARTCHAR cdotaccent
ENCODING 267
SWIDTH 456 0
DWIDTH 8 0
BBX 7 13 1 0
BITMAP
0280
0280
0000
0000
1BE4
7820
B000
E000
D000
D000
A000
7814
1BE4
ENDCHAR
STARTCHAR Ccaron
ENCODING 268
SWIDTH 571 0
DWIDTH 10 0
BBX 9 16 1 0
BITMAP
050900
036800
01F000
000000
06F900
1D0700
740000
B00000
E00000
E00000
E00000
E00000
B00000
740000
1D0740
06F900
ENDCHAR
STARTCHAR ccaron
ENCODING 269
SWIDTH 456 0
DWIDTH 8 0
BBX 7 13 1 0
BITMAP
2418
0D70
07D0
0000
1BE4
7820
B000
E000
D000
D000
A000
7814
1BE4
ENDCHAR
STARTCHAR Dcaron
ENCODING 270
SWIDTH 615 0
DWIDTH 11 0
BBX 9 16 1 0
BITMAP
080800
077400
02E000
000000
7FE400
701E00
700740
700280
7002C0
7001C0
7001C0
7002C0
700280
700740
701E00
7FE400
ENDCHAR
STARTCHAR dcaron
ENCODING 271
SWIDTH 573 0
DWIDTH 10 0
BBX 10 14 1 0
BITMAP
0000A0
000E90
000E50
000E50
000E00
1BDE00
782E00
B00E00
E00E00
D00E00
D00E00
E00E00
742E00
1F9A00
ENDCHAR
STARTCHAR Dcroat
ENCODING 272
SWIDTH 638 0
DWIDTH 11 0
BBX 11 12 0 0
BITMAP
0FFA00
0E06C0
0E00E0
0E0074
0E0034
7FF438
0E0038
0E0034
0E0070
0E00E0
0E06C0
0FFE00
ENDCHAR
STARTCHAR dcroat
ENCODING 273
SWIDTH 555 0
DWIDTH 10 0
BBX 9 13 1 0
BITMAP
000E00
000E00
03FF80
000E00
000E00
1BDE00
782E00
E00E00
D00E00
D00E00
E00E00
742E00
1F9A00
ENDCHAR
STARTCHAR Emacron
ENCODING 274
SWIDTH 527 0
DWIDTH 9 0
BBX 8 14 1 0
BITMAP
1FF8
0000
7FFD
7000
7000
7000
7000
7FF8
7000
7000
7000
7000
7000
7FFE
ENDCHAR
STARTCHAR emacron
ENCODING 275
SWIDTH 496 0
DWIDTH 9 0
BBX 8 12 1 0
BITMAP
2FF0
0000
0000
1BE0
7878
A01C
D00C
FFFD
D000
A000
7814
0BE4
ENDCHAR
STARTCHAR Ebreve
ENCODING 276
SWIDTH 527 0
DWIDTH 9 0
BBX 8 16 1 0
BITMAP
1418
0D24
07E0
0000
7FFD
7000
7000
7000
7000
7FF8
7000
7000
7000
7000
7000
7FFE
ENDCHAR
STARTCHAR ebreve
ENCODING 277
SWIDTH 496 0
DWIDTH 9 0
BBX 8 13 1 0
BITMAP
3014
2874
0BD0
0000
1BE0
7878
A01C
D00C
FFFD
D000
A000
7814
0BE4
ENDCHAR
STARTCHAR Edotaccent
ENCODING 278
SWIDTH 527 0
DWIDTH 9 0
BBX 8 15 1 0
BITMAP
02C0
02C0
0000
7FFD
7000
7000
7000
7000
7FF8
7000
7000
7000
7000
7000
7FFE
ENDCHAR
STARTCHAR edotaccent
ENCODING 279
SWIDTH 496 0
DWIDTH 9 0
BBX 8 13 1 0
BITMAP
0380
0380
0000
0000
1BE0
7878
A01C
D00C
FFFD
D000
A000
7814
0BE4
ENDCHAR
STARTCHAR Eogonek
ENCODING 280
SWIDTH 527 0
DWIDTH 9 0
BBX 8 16 1 -4
BITMAP
7FFD
7000
7000
7000
7000
7FF8
7000
7000
7000
7000
7000
7FFE
0018
0030
0070
002E
ENDCHAR
STARTCHAR eogonek
ENCODING 281
SWIDTH 496 0
DWIDTH 9 0
BBX 8 13 1 -4
BITMAP
1BE0
7878
A01C
D00C
FFFD
D000
A000
7814
0BF8
00A0
00C0
00C0
00B8
ENDCHAR
STARTCHAR Ecaron
ENCODING 282
SWIDTH 527 0
DWIDTH 9 0
BBX 8 16 1 0
BITMAP
1818
0A70
03D0
0000
7FFD
7000
7000
7000
7000
7FF8
7000
7000
7000
7000
7000
7FFE
ENDCHAR
STARTCHAR ecaron
ENCODING 283
SWIDTH 496 0
DWIDTH 9 0
BBX 8 13 1 0
BITMAP
2424
1DA0
07C0
0000
1BE0
7878
A01C
D00C
FFFD
D000
A000
7814
0BE4
ENDCHAR
STARTCHAR Gcircumflex
ENCODING 284
SWIDTH 617 0
DWIDTH 11 0
BBX 9 16 1 0
BITMAP
00B800
029D00
020600
000000
06FE00
1E0640
740000
B00000
E00000
E00000
E03FC0
E001C0
B001C0
7401C0
1E06C0
06FE00
ENDCHAR
STARTCHAR gcircumflex
ENCODING 285
SWIDTH 504 0
DWIDTH 9 0
BBX 8 17 1 -4
BITMAP
07C0
1DA0
2424
0000
1FFE
7474
A028
A028
7470
3B90
A000
A000
3FF9
900A
D00A
E42D
2FE4
ENDCHAR
STARTCHAR Gbreve
ENCODING 286
SWIDTH 617 0
DWIDTH 11 0
BBX 9 16 1 0
BITMAP
020200
034A00
01B800
000000
06FE00
1E0640
740000
B00000
E00000
E00000
E03FC0
E001C0
B001C0
7401C0
1E06C0
06FE00
ENDCHAR
STARTCHAR gbreve
ENCODING 287
SWIDTH 504 0
DWIDTH 9 0
BBX 8 17 1 -4
BITMAP
3014
2874
0BD0
0000
1FFE
7474
A028
A028
7470
3B90
A000
A000
3FF9
900A
D00A
E42D
2FE4
ENDCHAR
STARTCHAR Gdotaccent
ENCODING 288
SWIDTH 617 0
DWIDTH 11 0
BBX 9 15 1 0
BITMAP
007400
007400
000000
06FE00
1E0640
740000
B00000
E00000
E00000
E03FC0
E001C0
B001C0
7401C0
1E06C0
06FE00
ENDCHAR
STARTCHAR gdotaccent
ENCODING 289
SWIDTH 504 0
DWIDTH 9 0
BBX 8 17 1 -4
BITMAP
0380
0380
0000
0000
1FFE
7474
A028
A028
7470
3B90
A000
A000
3FF9
900A
D00A
E42D
2FE4
ENDCHAR
STARTCHAR uni0122
ENCODING 290
SWIDTH 617 0
DWIDTH 11 0
BBX 9 17 1 -5
BITMAP
06FE00
1E0640
740000
B00000
E00000
E00000
E03FC0
E001C0
B001C0
7401C0
1E06C0
06FE00
000000
00A000
002800
006800
01E000
ENDCHAR
STARTCHAR uni0123
ENCODING 291
SWIDTH 504 0
DWIDTH 9 0
BBX 8 18 1 -4
BITMAP
01D0
0640
0A00
0280
0000
1FFE
7474
A028
A028
7470
3B90
A000
A000
3FF9
900A
D00A
E42D
2FE4
ENDCHAR
STARTCHAR Hcircumflex
ENCODING 292
SWIDTH 652 0
DWIDTH 12 0
BBX 9 16 1 0
BITMAP
01F000
036800
090900
000000
7001C0
7001C0
7001C0
7001C0
7001C0
7FFFC0
7001C0
7001C0
7001C0
7001C0
7001C0
7001C0
ENDCHAR
STARTCHAR hcircumflex
ENCODING 293
SWIDTH 544 0
DWIDTH 10 0
BBX 10 17 -1 0
BITMAP
0F4000
29D000
606000
000000
0B0000
0B0000
0B0000
0B0000
0B2F40
0B92C0
0B00D0
0B00D0
0B00D0
0B00D0
0B00D0
0B00D0
0B00D0
ENDCHAR
STARTCHAR Hbar
ENCODING 294
SWIDTH 687 0
DWIDTH 12 0
BBX 12 12 0 0
BITMAP
0D0034
0D0034
7FFFFE
0D0034
0D0034
0FFFF4
0D0034
0D0034
0D0034
0D0034
0D0034
0D0034
ENDCHAR
STARTCHAR hbar
ENCODING 295
SWIDTH 544 0
DWIDTH 10 0
BBX 9 13 0 0
BITMAP
2C0000
2C0000
BFF400
2C0000
2C0000
2DBE00
2E0740
2C0340
2C0340
2C0340
2C0340
2C0340
2C0340
ENDCHAR
STARTCHAR Itilde
ENCODING 296
SWIDTH 263 0
DWIDTH 5 0
BBX 7 15 -1 0
BITMAP
7E24
92E0
0000
0700
0700
0700
0700
0700
0700
0700
0700
0700
0700
0700
0700
ENDCHAR
STARTCHAR itilde
ENCODING 297
SWIDTH 246 0
DWIDTH 4 0
BBX 7 13 -1 0
BITMAP
1410
AA34
92E0
0000
0B00
0B00
0B00
0B00
0B00
0B00
0B00
0B00
0B00
ENDCHAR
STARTCHAR Imacron
ENCODING 298
SWIDTH 263 0
DWIDTH 5 0
BBX 5 14 0 0
BITMAP
FF80
0000
1C00
1C00
1C00
1C00
1C00
1C00
1C00
1C00
1C00
1C00
1C00
1C00
ENDCHAR
STARTCHAR imacron
ENCODING 299
SWIDTH 246 0
DWIDTH 4 0
BBX 6 12 -1 0
BITMAP
7FE0
0000
0000
0B00
0B00
0B00
0B00
0B00
0B00
0B00
0B00
0B00
ENDCHAR
STARTCHAR uni012C
ENCODING 300
SWIDTH 263 0
DWIDTH 5 0
BBX 5 16 0 0
BITMAP
8080
D280
6E00
0000
1C00
1C00
1C00
1C00
1C00
1C00
1C00
1C00
1C00
1C00
1C00
1C00
ENDCHAR
STARTCHAR uni012D
ENCODING 301
SWIDTH 246 0
DWIDTH 4 0
BBX 6 13 -1 0
BITMAP
5030
74A0
1F80
0000
0B00
0B00
0B00
0B00
0B00
0B00
0B00
0B00
0B00
ENDCHAR
STARTCHAR Iogonek
ENCODING 302
SWIDTH 263 0
DWIDTH 5 0
BBX 4 16 0 -4
BITMAP
1C
1C
1C
1C
1C
1C
1C
1C
1C
1C
1C
1C
18
30
70
2E
ENDCHAR
STARTCHAR iogonek
ENCODING 303
SWIDTH 246 0
DWIDTH 4 0
BBX 4 17 0 -4
BITMAP
2C
2C
00
00
2C
2C
2C
2C
2C
2C
2C
2C
2C
28
30
70
2D
ENDCHAR
STARTCHAR Idotaccent
ENCODING 304
SWIDTH 263 0
DWIDTH 5 0
BBX 3 15 1 0
BITMAP
74
74
00
70
70
70
70
70
70
70
70
70
70
70
70
ENDCHAR
STARTCHAR dotlessi
ENCODING 305
SWIDTH 246 0
DWIDTH 4 0
BBX 2 9 1 0
BITMAP
B0
B0
B0
B0
B0
B0
B0
B0
B0
ENDCHAR
STARTCHAR uni0132
ENCODING 306
SWIDTH 526 0
DWIDTH 9 0
BBX 7 15 1 -3
BITMAP
702C
702C
702C
702C
702C
702C
702C
702C
702C
702C
702C
702C
0028
0038
02E0
ENDCHAR
STARTCHAR uni0133
ENCODING 307
SWIDTH 493 0
DWIDTH 9 0
BBX 7 17 1 -4
BITMAP
6024
B478
0000
0000
B034
B034
B034
B034
B034
B034
B034
B034
B034
0034
0034
0070
03D0
ENDCHAR
STARTCHAR Jcircumflex
ENCODING 308
SWIDTH 480 0
DWIDTH 9 0
BBX 9 16 0 0
BITMAP
003D00
00A740
008180
000000
001C00
001C00
001C00
001C00
001C00
001C00
001C00
001C00
001C00
002C00
747800
1BE000
ENDCHAR
STARTCHAR jcircumflex
ENCODING 309
SWIDTH 247 0
DWIDTH 4 0
BBX 6 17 -1 -4
BITMAP
0F40
29D0
6060
0000
0B00
0B00
0B00
0B00
0B00
0B00
0B00
0B00
0B00
0B00
0B00
0A00
B800
ENDCHAR
STARTCHAR uni0136
ENCODING 310
SWIDTH 579 0
DWIDTH 10 0
BBX 9 17 1 -5
BITMAP
700740
701E00
703800
70B000
72D000
7BE000
7E7400
783800
701D00
700B00
700740
7002C0
000000
00E000
007400
007000
029000
ENDCHAR
STARTCHAR uni0137
ENCODING 311
SWIDTH 495 0
DWIDTH 9 0
BBX 8 18 1 -5
BITMAP
B000
B000
B000
B000
B02C
B074
B1D0
B380
BBC0
BCE0
B074
B028
B01D
0000
0380
01D0
01C0
0A40
ENDCHAR
STARTCHAR kgreenlandic
ENCODING 312
SWIDTH 495 0
DWIDTH 9 0
BBX 8 9 1 0
BITMAP
B02C
B074
B1D0
B380
BBC0
BCE0
B074
B028
B01D
ENDCHAR
STARTCHAR Lacute
ENCODING 313
SWIDTH 486 0
DWIDTH 9 0
BBX 8 16 1 0
BITMAP
0900
2D00
6000
0000
7000
7000
7000
7000
7000
7000
7000
7000
7000
7000
7000
7FFD
ENDCHAR
STARTCHAR lacute
ENCODING 314
SWIDTH 255 0
DWIDTH 5 0
BBX 4 17 1 0
BITMAP
09
38
A0
00
B0
B0
B0
B0
B0
B0
B0
B0
B0
B0
B0
70
38
ENDCHAR
STARTCHAR uni013B
ENCODING 315
SWIDTH 486 0
DWIDTH 9 0
BBX 8 17 1 -5
BITMAP
7000
7000
7000
7000
7000
7000
7000
7000
7000
7000
7000
7FFD
0000
0280
00A0
0190
0780
ENDCHAR
STARTCHAR uni013C
ENCODING 316
SWIDTH 255 0
DWIDTH 5 0
BBX 4 18 1 -5
BITMAP
B0
B0
B0
B0
B0
B0
B0
B0
B0
B0
B0
70
38
00
38
1D
1C
A4
ENDCHAR
STARTCHAR Lcaron
ENCODING 317
SWIDTH 486 0
DWIDTH 9 0
BBX 8 13 1 0
BITMAP
0030
7030
7030
7020
7000
7000
7000
7000
7000
7000
7000
7000
7FFD
ENDCHAR
STARTCHAR lcaron
ENCODING 318
SWIDTH 270 0
DWIDTH 5 0
BBX 4 14 1 0
BITMAP
03
B3
B2
B2
B0
B0
B0
B0
B0
B0
B0
B0
70
38
ENDCHAR
STARTCHAR Ldot
ENCODING 319
SWIDTH 486 0
DWIDTH 9 0
BBX 8 12 1 0
BITMAP
7000
7000
7000
7000
7000
7038
7038
7000
7000
7000
7000
7FFD
ENDCHAR
STARTCHAR ldot
ENCODING 320
SWIDTH 362 0
DWIDTH 7 0
BBX 6 13 1 0
BITMAP
B000
B000
B000
B000
B000
B000
B1D0
B1D0
B000
B000
B000
7000
3800
ENDCHAR
STARTCHAR Lslash
ENCODING 321
SWIDTH 489 0
DWIDTH 9 0
BBX 9 12 0 0
BITMAP
1D0000
1D0000
1D0000
1D0000
1D0000
1D7800
1F9000
7D0000
5D0000
1D0000
1D0000
1FFF40
ENDCHAR
STARTCHAR lslash
ENCODING 322
SWIDTH 262 0
DWIDTH 5 0
BBX 5 13 0 0
BITMAP
1C00
1C00
1C00
1C00
1C00
1F40
7C00
6C00
1C00
1C00
1C00
1C00
0F00
ENDCHAR
STARTCHAR Nacute
ENCODING 323
SWIDTH 647 0
DWIDTH 12 0
BBX 9 16 1 0
BITMAP
001800
007800
009000
000000
7401C0
7C01C0
7A01C0
7701C0
7281C0
71D1C0
70A1C0
7035C0
702DC0
700EC0
7007C0
7002C0
ENDCHAR
STARTCHAR nacute
ENCODING 324
SWIDTH 547 0
DWIDTH 10 0
BBX 8 14 1 0
BITMAP
0024
0074
01D0
0140
0000
A6F4
B92C
B00D
B00D
B00D
B00D
B00D
B00D
B00D
ENDCHAR
STARTCHAR uni0145
ENCODING 325
SWIDTH 647 0
DWIDTH 12 0
BBX 9 17 1 -5
BITMAP
7401C0
7C01C0
7A01C0
7701C0
7281C0
71D1C0
70A1C0
7035C0
702DC0
700EC0
7007C0
7002C0
000000
00E000
003400
007000
029000
ENDCHAR
STARTCHAR uni0146
ENCODING 326
SWIDTH 547 0
DWIDTH 10 0
BBX 8 14 1 -5
BITMAP
A6F4
B92C
B00D
B00D
B00D
B00D
B00D
B00D
B00D
0000
0280
00D0
01D0
0A40
ENDCHAR
STARTCHAR Ncaron
ENCODING 327
SWIDTH 647 0
DWIDTH 12 0
BBX 9 16 1 0
BITMAP
090900
036800
01F000
000000
7401C0
7C01C0
7A01C0
7701C0
7281C0
71D1C0
70A1C0
7035C0
702DC0
700EC0
7007C0
7002C0
ENDCHAR
STARTCHAR ncaron
ENCODING 328
SWIDTH 547 0
DWIDTH 10 0
BBX 8 13 1 0
BITMAP
1818
0A74
03D0
0000
A6F4
B92C
B00D
B00D
B00D
B00D
B00D
B00D
B00D
ENDCHAR
STARTCHAR napostrophe
ENCODING 329
SWIDTH 775 0
DWIDTH 14 0
BBX 12 12 1 0
BITMAP
740000
240000
300000
90A6F4
00B92C
00B00D
00B00D
00B00D
00B00D
00B00D
00B00D
00B00D
ENDCHAR
STARTCHAR uni014A
ENCODING 330
SWIDTH 635 0
DWIDTH 11 0
BBX 10 12 1 0
BITMAP
71FD00
790740
7402C0
7001D0
7000D0
7000D0
7000D0
7000D0
7001D0
7001C0
700380
603E00
ENDCHAR
STARTCHAR uni014B
ENCODING 331
SWIDTH 547 0
DWIDTH 10 0
BBX 8 12 1 -3
BITMAP
A2F4
B92C
B00D
B00D
B00D
B00D
B00D
B00D
B00D
000D
001D
00F8
ENDCHAR
STARTCHAR Omacron
ENCODING 332
SWIDTH 664 0
DWIDTH 12 0
BBX 10 14 1 0
BITMAP
07FD00
000000
06F900
2D0740
7401D0
B000E0
E000B0
E000B0
E000B0
E000B0
B000E0
7401D0
2D0740
06F900
ENDCHAR
STARTCHAR omacron
ENCODING 333
SWIDTH 542 0
DWIDTH 10 0
BBX 8 12 1 0
BITMAP
2FF4
0000
0000
1BE0
782C
A00E
D00A
D00B
D00A
A00E
782C
1BE0
ENDCHAR
STARTCHAR uni014E
ENCODING 334
SWIDTH 664 0
DWIDTH 12 0
BBX 10 16 1 0
BITMAP
090500
060D00
01F400
000000
06F900
2D0740
7401D0
B000E0
E000B0
E000B0
E000B0
E000B0
B000E0
7401D0
2D0740
06F900
ENDCHAR
STARTCHAR uni014F
ENCODING 335
SWIDTH 542 0
DWIDTH 10 0
BBX 8 13 1 0
BITMAP
2018
2874
0BD0
0000
1BE0
782C
A00E
D00A
D00B
D00A
A00E
782C
1BE0
ENDCHAR
STARTCHAR Ohungarumlaut
ENCODING 336
SWIDTH 664 0
DWIDTH 12 0
BBX 10 16 1 0
BITMAP
009240
01C700
024900
000000
06F900
2D0740
7401D0
B000E0
E000B0
E000B0
E000B0
E000B0
B000E0
7401D0
2D0740
06F900
ENDCHAR
STARTCHAR ohungarumlaut
ENCODING 337
SWIDTH 542 0
DWIDTH 10 0
BBX 8 14 1 0
BITMAP
0004
025C
0724
0920
0000
1BE0
782C
A00E
D00A
D00B
D00A
A00E
782C
1BE0
ENDCHAR
STARTCHAR OE
ENCODING 338
SWIDTH 847 0
DWIDTH 15 0
BBX 14 12 1 0
BITMAP
06FFFFD0
1E474000
74074000
B0074000
E0074000
E007FF40
E0074000
E0074000
B0074000
74074000
1E474000
06FFFFD0
ENDCHAR
STARTCHAR oe
ENCODING 339
SWIDTH 839 0
DWIDTH 15 0
BBX 14 9 1 0
BITMAP
1BD0BE00
787A8280
A01F00D0
D00E00D0
D00BFFD0
D00E0000
A01F0000
787A9140
1BD07E40
ENDCHAR
STARTCHAR Racute
ENCODING 340
SWIDTH 569 0
DWIDTH 10 0
BBX 9 16 1 0
BITMAP
002400
00A000
018000
000000
7FF800
701B00
700740
700340
700740
701E00
7FF800
707000
703800
701D00
700B00
700780
ENDCHAR
STARTCHAR racute
ENCODING 341
SWIDTH 347 0
DWIDTH 6 0
BBX 5 14 1 0
BITMAP
0080
02C0
0B40
0900
0000
A6C0
B800
B000
B000
B000
B000
B000
B000
B000
ENDCHAR
STARTCHAR uni0156
ENCODING 342
SWIDTH 569 0
DWIDTH 10 0
BBX 9 17 1 -5
BITMAP
7FF800
701B00
700740
700340
700740
701E00
7FF800
707000
703800
701D00
700B00
700780
000000
019000
00A000
00A000
078000
ENDCHAR
STARTCHAR uni0157
ENCODING 343
SWIDTH 347 0
DWIDTH 6 0
BBX 6 14 0 -5
BITMAP
29B0
2E00
2C00
2C00
2C00
2C00
2C00
2C00
2C00
0000
2800
0A00
1900
7800
ENDCHAR
STARTCHAR Rcaron
ENCODING 344
SWIDTH 569 0
DWIDTH 10 0
BBX 9 16 1 0
BITMAP
181800
0A7000
03D000
000000
7FF800
701B00
700740
700340
700740
701E00
7FF800
707000
703800
701D00
700B00
700780
ENDCHAR
STARTCHAR rcaron
ENCODING 345
SWIDTH 347 0
DWIDTH 6 0
BBX 6 13 1 0
BITMAP
9050
36C0
1F00
0000
A6C0
B800
B000
B000
B000
B000
B000
B000
B000
ENDCHAR
STARTCHAR Sacute
ENCODING 346
SWIDTH 534 0
DWIDTH 10 0
BBX 8 16 1 0
BITMAP
0020
01E0
0240
0000
1BE4
381D
B000
B000
7900
1F90
01B8
001E
000B
400A
E41D
2FE4
ENDCHAR
STARTCHAR sacute
ENCODING 347
SWIDTH 419 0
DWIDTH 8 0
BBX 7 14 0 0
BITMAP
0020
00B4
02D0
0240
0000
0BE4
2824
3400
2D00
07E0
0078
002C
6428
1FE0
ENDCHAR
STARTCHAR Scircumflex
ENCODING 348
SWIDTH 534 0
DWIDTH 10 0
BBX 8 16 1 0
BITMAP
07D0
0D70
1414
0000
1BE4
381D
B000
B000
7900
1F90
01B8
001E
000B
400A
E41D
2FE4
ENDCHAR
STARTCHAR scircumflex
ENCODING 349
SWIDTH 419 0
DWIDTH 8 0
BBX 7 13 0 0
BITMAP
07C0
0DB0
2414
0000
0BE4
2824
3400
2D00
07E0
0078
002C
6428
1FE0
ENDCHAR
STARTCHAR uni015E
ENCODING 350
SWIDTH 534 0
DWIDTH 10 0
BBX 8 17 1 -5
BITMAP
1BE4
381D
B000
B000
7900
1F90
01B8
001E
000B
400A
E41D
2FE4
0240
0380
01D0
01C0
0A40
ENDCHAR
STARTCHAR uni015F
ENCODING 351
SWIDTH 419 0
DWIDTH 8 0
BBX 7 14 0 -5
BITMAP
0BE4
2824
3400
2D00
07E0
0078
002C
6428
1FE0
0240
0380
01D0
01D0
0A40
ENDCHAR
STARTCHAR Scaron
ENCODING 352
SWIDTH 534 0
DWIDTH 10 0
BBX 8 16 1 0
BITMAP
1814
0E70
07D0
0000
1BE4
381D
B000
B000
7900
1F90
01B8
001E
000B
400A
E41D
2FE4
ENDCHAR
STARTCHAR scaron
ENCODING 353
SWIDTH 419 0
DWIDTH 8 0
BBX 7 13 0 0
BITMAP
2414
0DB0
07C0
0000
0BE4
2824
3400
2D00
07E0
0078
002C
6428
1FE0
ENDCHAR
STARTCHAR uni0162
ENCODING 354
SWIDTH 536 0
DWIDTH 10 0
BBX 9 17 0 -5
BITMAP
BFFFC0
00E000
00E000
00E000
00E000
00E000
00E000
00E000
00E000
00E000
00E000
00E000
008000
01E000
007000
007000
029000
ENDCHAR
STARTCHAR uni0163
ENCODING 355
SWIDTH 338 0
DWIDTH 6 0
BBX 6 17 0 -5
BITMAP
0D00
0D00
1D00
BFE0
1D00
1D00
1D00
1D00
1D00
1D00
0E00
07E0
0240
0380
01D0
01C0
0A40
ENDCHAR
STARTCHAR Tcaron
ENCODING 356
SWIDTH 536 0
DWIDTH 10 0
BBX 9 16 0 0
BITMAP
090900
036800
01F000
000000
BFFFC0
00E000
00E000
00E000
00E000
00E000
00E000
00E000
00E000
00E000
00E000
00E000
ENDCHAR
STARTCHAR tcaron
ENCODING 357
SWIDTH 338 0
DWIDTH 6 0
BBX 6 14 0 0
BITMAP
0060
0060
0D50
0D50
1D00
BFE0
1D00
1D00
1D00
1D00
1D00
1D00
0E00
07E0
ENDCHAR
STARTCHAR uni0166
ENCODING 358
SWIDTH 536 0
DWIDTH 10 0
BBX 9 12 0 0
BITMAP
BFFFC0
15E000
00E000
00E000
00E000
0FFE00
00E000
00E000
00E000
00E000
00E000
00E000
ENDCHAR
STARTCHAR uni0167
ENCODING 359
SWIDTH 338 0
DWIDTH 6 0
BBX 6 12 0 0
BITMAP
0D00
0D00
1D00
BFE0
1D00
1D00
1D00
BFE0
1D00
1D00
0E00
07E0
ENDCHAR
STARTCHAR Utilde
ENCODING 360
SWIDTH 645 0
DWIDTH 12 0
BBX 9 15 1 0
BITMAP
0FD700
187D00
000000
7001C0
7001C0
7001C0
7001C0
7001C0
7001C0
7001C0
7001C0
7402C0
340280
1D0B00
06F900
ENDCHAR
STARTCHAR utilde
ENCODING 361
SWIDTH 544 0
DWIDTH 10 0
BBX 8 13 1 0
BITMAP
0404
3B5C
20B4
0000
B00D
B00D
B00D
B00D
B00D
B00D
B01D
746D
2F8D
ENDCHAR
STARTCHAR Umacron
ENCODING 362
SWIDTH 645 0
DWIDTH 12 0
BBX 9 14 1 0
BITMAP
0BFD00
000000
7001C0
7001C0
7001C0
7001C0
7001C0
7001C0
7001C0
7001C0
7402C0
340280
1D0B00
06F900
ENDCHAR
STARTCHAR umacron
ENCODING 363
SWIDTH 544 0
DWIDTH 10 0
BBX 8 12 1 0
BITMAP
2FF4
0000
0000
B00D
B00D
B00D
B00D
B00D
B00D
B01D
746D
2F8D
ENDCHAR
STARTCHAR Ubreve
ENCODING 364
SWIDTH 645 0
DWIDTH 12 0
BBX 9 16 1 0
BITMAP
090900
061C00
02F400
000000
7001C0
7001C0
7001C0
7001C0
7001C0
7001C0
7001C0
7001C0
7402C0
340280
1D0B00
06F900
ENDCHAR
STARTCHAR ubreve
ENCODING 365
SWIDTH 544 0
DWIDTH 10 0
BBX 8 13 1 0
BITMAP
2018
2874
0BD0
0000
B00D
B00D
B00D
B00D
B00D
B00D
B01D
746D
2F8D
ENDCHAR
STARTCHAR Uring
ENCODING 366
SWIDTH 645 0
DWIDTH 12 0
BBX 9 16 1 0
BITMAP
01E000
021400
021400
01E000
7001C0
7001C0
7001C0
7001C0
7001C0
7001C0
7001C0
7001C0
7402C0
340280
1D0B00
06F900
ENDCHAR
STARTCHAR uring
ENCODING 367
SWIDTH 544 0
DWIDTH 10 0
BBX 8 14 1 0
BITMAP
07D0
0C60
0C60
07D0
0000
B00D
B00D
B00D
B00D
B00D
B00D
B01D
746D
2F8D
ENDCHAR
STARTCHAR Uhungarumlaut
ENCODING 368
SWIDTH 645 0
DWIDTH 12 0
BBX 9 16 1 0
BITMAP
009240
01C600
020800
000000
7001C0
7001C0
7001C0
7001C0
7001C0
7001C0
7001C0
7001C0
7402C0
340280
1D0B00
06F900
ENDCHAR
STARTCHAR uhungarumlaut
ENCODING 369
SWIDTH 544 0
DWIDTH 10 0
BBX 8 14 1 0
BITMAP
0004
025C
0724
0920
0000
B00D
B00D
B00D
B00D
B00D
B00D
B01D
746D
2F8D
ENDCHAR
STARTCHAR Uogonek
ENCODING 370
SWIDTH 645 0
DWIDTH 12 0
BBX 9 16 1 -4
BITMAP
7001C0
7001C0
7001C0
7001C0
7001C0
7001C0
7001C0
7001C0
7402C0
340280
1D0B00
06F800
009000
01C000
01C000
00B400
ENDCHAR
STARTCHAR uogonek
ENCODING 371
SWIDTH 544 0
DWIDTH 10 0
BBX 8 13 1 -4
BITMAP
B00D
B00D
B00D
B00D
B00D
B00D
B01D
746D
2F8D
0028
0070
0070
002D
ENDCHAR
STARTCHAR Wcircumflex
ENCODING 372
SWIDTH 786 0
DWIDTH 14 0
BBX 14 16 0 0
BITMAP
000F4000
0029C000
00605000
00000000
700B00A0
740F40D0
341E41D0
381A81C0
2825C280
1C34D280
1D70D340
0D60A340
0AA07700
0AD03A00
07C03E00
07802D00
ENDCHAR
STARTCHAR wcircumflex
ENCODING 373
SWIDTH 718 0
DWIDTH 13 0
BBX 13 13 0 0
BITMAP
002E0000
00B74000
00808000
00000000
701D0340
342E0700
383B0B00
28330A00
1C624D00
0D929C00
0AD1D800
0BC0F800
0780B400
ENDCHAR
STARTCHAR Ycircumflex
ENCODING 374
SWIDTH 476 0
DWIDTH 9 0
BBX 9 16 0 0
BITMAP
03D000
0A7400
081800
000000
A00740
740B00
280D00
1C2C00
0E3400
07B000
03D000
02C000
01C000
01C000
01C000
01C000
ENDCHAR
STARTCHAR ycircumflex
ENCODING 375
SWIDTH 467 0
DWIDTH 8 0
BBX 8 17 0 -4
BITMAP
02E0
0A74
1808
0000
B007
740A
280D
1C1C
0D28
0A34
0770
03E0
02D0
01C0
0280
0700
7900
ENDCHAR
STARTCHAR Ydieresis
ENCODING 376
SWIDTH 476 0
DWIDTH 9 0
BBX 9 15 0 0
BITMAP
1C2800
1C2800
000000
A00740
740B00
280D00
1C2C00
0E3400
07B000
03D000
02C000
01C000
01C000
01C000
01C000
ENDCHAR
STARTCHAR Zacute
ENCODING 377
SWIDTH 539 0
DWIDTH 10 0
BBX 9 16 0 0
BITMAP
000800
007800
009000
000000
2FFFC0
000780
000F00
002D00
007800
00B000
01D000
038000
0B4000
1E0000
3C0000
7FFFC0
ENDCHAR
STARTCHAR zacute
ENCODING 378
SWIDTH 425 0
DWIDTH 8 0
BBX 8 14 0 0
BITMAP
0024
00B4
01D0
0240
0000
3FFC
0078
00B0
01D0
0380
0B00
1D00
3800
7FFD
ENDCHAR
STARTCHAR Zdotaccent
ENCODING 379
SWIDTH 539 0
DWIDTH 10 0
BBX 9 15 0 0
BITMAP
00A000
00A000
000000
2FFFC0
000780
000F00
002D00
007800
00B000
01D000
038000
0B4000
1E0000
3C0000
7FFFC0
ENDCHAR
STARTCHAR zdotaccent
ENCODING 380
SWIDTH 425 0
DWIDTH 8 0
BBX 8 13 0 0
BITMAP
02C0
02C0
0000
0000
3FFC
0078
00B0
01D0
0380
0B00
1D00
3800
7FFD
ENDCHAR
STARTCHAR Zcaron
ENCODING 381
SWIDTH 539 0
DWIDTH 10 0
BBX 9 16 0 0
BITMAP
060500
039C00
00F400
000000
2FFFC0
000780
000F00
002D00
007800
00B000
01D000
038000
0B4000
1E0000
3C0000
7FFFC0
ENDCHAR
STARTCHAR zcaron
ENCODING 382
SWIDTH 425 0
DWIDTH 8 0
BBX 8 13 0 0
BITMAP
1418
0E74
03D0
0000
3FFC
0078
00B0
01D0
0380
0B00
1D00
3800
7FFD
ENDCHAR
STARTCHAR uni0180
ENCODING 384
SWIDTH 544 0
DWIDTH 10 0
BBX 9 13 0 0
BITMAP
2C0000
2C0000
BFF400
2C0000
2C0000
2DBD00
2E4740
2C02C0
2C01C0
2C02C0
2C0280
2E0B40
29F900
ENDCHAR
STARTCHAR uni018F
ENCODING 399
SWIDTH 658 0
DWIDTH 12 0
BBX 10 12 1 0
BITMAP
0BF900
190780
0001D0
0000E0
0000A0
0000B0
FFFFF0
E000A0
B000E0
7401C0
2D0740
06F900
ENDCHAR
STARTCHAR uni0192
ENCODING 402
SWIDTH 497 0
DWIDTH 9 0
BBX 8 14 0 -2
BITMAP
002F
0074
00A0
00D0
01D0
0FFD
01C0
02C0
0280
0280
0380
0340
0B00
BD00
ENDCHAR
STARTCHAR uni0193
ENCODING 403
SWIDTH 617 0
DWIDTH 11 0
BBX 10 14 1 0
BITMAP
0002F0
000340
06FF40
1E0240
740000
B00000
E00000
E00000
E03FC0
E001C0
B001C0
7401C0
1E06C0
06FE00
ENDCHAR
STARTCHAR Ohorn
ENCODING 416
SWIDTH 664 0
DWIDTH 12 0
BBX 10 15 1 0
BITMAP
000020
000070
000070
06FE90
1D0780
7401D0
B000E0
E000B0
E000B0
E000B0
E000B0
B000E0
7401D0
1D0740
06F900
ENDCHAR
STARTCHAR ohorn
ENCODING 417
SWIDTH 542 0
DWIDTH 10 0
BBX 9 12 1 0
BITMAP
000240
000340
000340
1BE900
782C00
A00E00
D00B00
D00B00
D00A00
A00D00
782C00
1BE000
ENDCHAR
STARTCHAR Uhorn
ENCODING 431
SWIDTH 659 0
DWIDTH 12 0
BBX 11 15 1 0
BITMAP
000018
00001C
000028
7001E0
7001C0
7001C0
7001C0
7001C0
7001C0
7001C0
7001C0
7402C0
340280
1D0B40
06F900
ENDCHAR
STARTCHAR uhorn
ENCODING 432
SWIDTH 544 0
DWIDTH 10 0
BBX 9 12 1 0
BITMAP
0001C0
0001C0
000280
B00E00
B00D00
B00D00
B00D00
B00D00
B00D00
B01D00
746D00
2F8D00
ENDCHAR
STARTCHAR uni01C2
ENCODING 450
SWIDTH 288 0
DWIDTH 5 0
BBX 5 19 0 -5
BITMAP
0800
0D00
0D00
0D00
0D00
0D00
0D00
FFC0
0D00
0D00
BFC0
0D00
0D00
0D00
0D00
0D00
0D00
0D00
0400
ENDCHAR
STARTCHAR uni01CD
ENCODING 461
SWIDTH 544 0
DWIDTH 10 0
BBX 10 16 0 0
BITMAP
090900
036800
01F000
000000
00F000
01B400
026800
035C00
070D00
0A0A00
0D0B00
1FFF40
280380
3402C0
7001D0
A000E0
ENDCHAR
STARTCHAR uni01CE
ENCODING 462
SWIDTH 504 0
DWIDTH 9 0
BBX 7 13 1 0
BITMAP
2424
1DA0
0780
0000
2FD0
6474
0028
06F8
7928
E028
D028
A0B8
6E58
ENDCHAR
STARTCHAR uni01CF
ENCODING 463
SWIDTH 263 0
DWIDTH 5 0
BBX 5 16 0 0
BITMAP
8180
A740
2E00
0000
1C00
1C00
1C00
1C00
1C00
1C00
1C00
1C00
1C00
1C00
1C00
1C00
ENDCHAR
STARTCHAR uni01D0
ENCODING 464
SWIDTH 246 0
DWIDTH 4 0
BBX 6 13 -1 0
BITMAP
6060
29D0
0F40
0000
0B00
0B00
0B00
0B00
0B00
0B00
0B00
0B00
0B00
ENDCHAR
STARTCHAR uni01D1
ENCODING 465
SWIDTH 664 0
DWIDTH 12 0
BBX 10 16 1 0
BITMAP
050900
036C00
01F400
000000
06F900
2D0740
7401D0
B000E0
E000B0
E000B0
E000B0
E000B0
B000E0
7401D0
2D0740
06F900
ENDCHAR
STARTCHAR uni01D2
ENCODING 466
SWIDTH 542 0
DWIDTH 10 0
BBX 8 13 1 0
BITMAP
2424
1DA0
07C0
0000
1BE0
782C
A00E
D00A
D00B
D00A
A00E
782C
1BE0
ENDCHAR
STARTCHAR uni01D3
ENCODING 467
SWIDTH 645 0
DWIDTH 12 0
BBX 9 16 1 0
BITMAP
090900
076800
01F000
000000
7001C0
7001C0
7001C0
7001C0
7001C0
7001C0
7001C0
7001C0
7402C0
340280
1D0B00
06F900
ENDCHAR
STARTCHAR uni01D4
ENCODING 468
SWIDTH 544 0
DWIDTH 10 0
BBX 8 13 1 0
BITMAP
2414
1DB0
07C0
0000
B00D
B00D
B00D
B00D
B00D
B00D
B01D
746D
2F8D
ENDCHAR
STARTCHAR uni01D5
ENCODING 469
SWIDTH 645 0
DWIDTH 12 0
BBX 9 17 1 0
BITMAP
0BFD00
000000
0A0D00
0A0D00
000000
7001C0
7001C0
7001C0
7001C0
7001C0
7001C0
7001C0
7001C0
7402C0
340280
1D0B00
06F900
ENDCHAR
STARTCHAR uni01D6
ENCODING 470
SWIDTH 544 0
DWIDTH 10 0
BBX 8 14 1 0
BITMAP
2FF4
0000
1834
1834
0000
B00D
B00D
B00D
B00D
B00D
B00D
B01D
746D
2F8D
ENDCHAR
STARTCHAR uni01D7
ENCODING 471
SWIDTH 645 0
DWIDTH 12 0
BBX 9 18 1 0
BITMAP
002400
007400
009000
0A0D00
0A0D00
000000
7001C0
7001C0
7001C0
7001C0
7001C0
7001C0
7001C0
7001C0
7402C0
340280
1D0B00
06F900
ENDCHAR
STARTCHAR uni01D8
ENCODING 472
SWIDTH 544 0
DWIDTH 10 0
BBX 8 16 1 0
BITMAP
0090
01C0
0240
0000
1834
1834
0000
B00D
B00D
B00D
B00D
B00D
B00D
B01D
746D
2F8D
ENDCHAR
STARTCHAR uni01D9
ENCODING 473
SWIDTH 645 0
DWIDTH 12 0
BBX 9 18 1 0
BITMAP
061800
01F000
000000
0A0D00
0A0D00
000000
7001C0
7001C0
7001C0
7001C0
7001C0
7001C0
7001C0
7001C0
7402C0
340280
1D0B00
06F900
ENDCHAR
STARTCHAR uni01DA
ENCODING 474
SWIDTH 544 0
DWIDTH 10 0
BBX 8 15 1 0
BITMAP
0860
07C0
0000
1834
1834
0000
B00D
B00D
B00D
B00D
B00D
B00D
B01D
746D
2F8D
ENDCHAR
STARTCHAR uni01DB
ENCODING 475
SWIDTH 645 0
DWIDTH 12 0
BBX 9 18 1 0
BITMAP
020000
028000
009000
0A0D00
0A0D00
000000
7001C0
7001C0
7001C0
7001C0
7001C0
7001C0
7001C0
7001C0
7402C0
340280
1D0B00
06F900
ENDCHAR
STARTCHAR uni01DC
ENCODING 476
SWIDTH 544 0
DWIDTH 10 0
BBX 8 15 1 0
BITMAP
0500
0700
0140
1834
1834
0000
B00D
B00D
B00D
B00D
B00D
B00D
B01D
746D
2F8D
ENDCHAR
STARTCHAR uni01E2
ENCODING 482
SWIDTH 822 0
DWIDTH 15 0
BBX 14 14 0 0
BITMAP
0001FF80
00000000
000FFFE0
001F8000
00368000
00728000
00D28000
02C2FFC0
03428000
0BFF8000
0D028000
2C028000
34028000
B002FFF0
ENDCHAR
STARTCHAR uni01E3
ENCODING 483
SWIDTH 785 0
DWIDTH 14 0
BBX 13 12 1 0
BITMAP
00FF8000
00000000
00000000
2FD1F800
647A0A00
002C0340
01BC0340
2EAFFF40
B42C0000
E02D0000
A0BB4500
2F82F900
ENDCHAR
STARTCHAR Gcaron
ENCODING 486
SWIDTH 617 0
DWIDTH 11 0
BBX 9 16 1 0
BITMAP
020600
029D00
00B800
000000
06FE00
1E0640
740000
B00000
E00000
E00000
E03FC0
E001C0
B001C0
7401C0
1E06C0
06FE00
ENDCHAR
STARTCHAR gcaron
ENCODING 487
SWIDTH 504 0
DWIDTH 9 0
BBX 8 17 1 -4
BITMAP
2424
1DA0
07C0
0000
1FFE
7474
A028
A028
7470
3B90
A000
A000
3FF9
900A
D00A
E42D
2FE4
ENDCHAR
STARTCHAR uni01EA
ENCODING 490
SWIDTH 664 0
DWIDTH 12 0
BBX 10 16 1 -4
BITMAP
06F900
2D0740
7401D0
B000E0
E000B0
E000B0
E000B0
E000B0
B000E0
7401C0
2D0740
06F900
006000
00C000
01C000
00B800
ENDCHAR
STARTCHAR uni01EB
ENCODING 491
SWIDTH 542 0
DWIDTH 10 0
BBX 8 13 1 -4
BITMAP
1BE0
782C
A00E
D00A
D00B
D00A
A00E
782C
1BE0
0240
0700
0700
02D0
ENDCHAR
STARTCHAR uni01F4
ENCODING 500
SWIDTH 617 0
DWIDTH 11 0
BBX 9 16 1 0
BITMAP
000900
002D00
006000
000000
06FE00
1E0640
740000
B00000
E00000
E00000
E03FC0
E001C0
B001C0
7401C0
1E06C0
06FE00
ENDCHAR
STARTCHAR uni01F5
ENCODING 501
SWIDTH 504 0
DWIDTH 9 0
BBX 8 18 1 -4
BITMAP
0020
00B0
02C0
0200
0000
1FFE
7474
A028
A028
7470
3B90
A000
A000
3FF9
900A
D00A
E42D
2FE4
ENDCHAR
STARTCHAR uni01F8
ENCODING 504
SWIDTH 647 0
DWIDTH 12 0
BBX 9 16 1 0
BITMAP
060000
02C000
006000
000000
7401C0
7C01C0
7A01C0
7701C0
7281C0
71D1C0
70A1C0
7035C0
702DC0
700EC0
7007C0
7002C0
ENDCHAR
STARTCHAR uni01F9
ENCODING 505
SWIDTH 547 0
DWIDTH 10 0
BBX 8 14 1 0
BITMAP
0800
0F00
0380
0080
0000
A6F4
B92C
B00D
B00D
B00D
B00D
B00D
B00D
B00D
ENDCHAR
STARTCHAR uni01FC
ENCODING 508
SWIDTH 822 0
DWIDTH 15 0
BBX 14 16 0 0
BITMAP
00000240
00000E00
00002800
00000000
000FFFE0
001F8000
00368000
00728000
00D28000
02C2FFC0
03428000
0BFF8000
0D028000
2C028000
34028000
B002FFF0
ENDCHAR
STARTCHAR uni01FD
ENCODING 509
SWIDTH 785 0
DWIDTH 14 0
BBX 13 14 1 0
BITMAP
00014000
00078000
000E0000
00180000
00000000
2FD1F800
647A0A00
002C0340
01BC0340
2EAFFF40
B42C0000
E02D0000
A0BB4500
2F82F900
ENDCHAR
STARTCHAR uni0218
ENCODING 536
SWIDTH 534 0
DWIDTH 10 0
BBX 8 17 1 -5
BITMAP
1BE4
381D
B000
B000
7900
1F90
01B8
001E
000B
400A
E41D
2FE4
0000
0380
00D0
01C0
0A40
ENDCHAR
STARTCHAR uni0219
ENCODING 537
SWIDTH 419 0
DWIDTH 8 0
BBX 7 14 0 -5
BITMAP
0BE4
2824
3400
2D00
07E0
0078
002C
6428
1FE0
0000
0280
00D0
01D0
0A40
ENDCHAR
STARTCHAR uni021A
ENCODING 538
SWIDTH 536 0
DWIDTH 10 0
BBX 9 17 0 -5
BITMAP
BFFFC0
00E000
00E000
00E000
00E000
00E000
00E000
00E000
00E000
00E000
00E000
00E000
000000
00E000
007400
007000
029000
ENDCHAR
STARTCHAR uni021B
ENCODING 539
SWIDTH 338 0
DWIDTH 6 0
BBX 6 17 0 -5
BITMAP
0D00
0D00
1D00
BFE0
1D00
1D00
1D00
1D00
1D00
1D00
0E00
07E0
0000
0380
01D0
01C0
0A40
ENDCHAR
STARTCHAR uni0237
ENCODING 567
SWIDTH 247 0
DWIDTH 4 0
BBX 4 13 -1 -4
BITMAP
0B
0B
0B
0B
0B
0B
0B
0B
0B
0B
0B
0A
B8
ENDCHAR
STARTCHAR uni0243
ENCODING 579
SWIDTH 603 0
DWIDTH 11 0
BBX 10 12 0 0
BITMAP
0FFE00
0D06C0
0D00D0
0D00D0
0D01C0
0EAF40
0E56D0
0D00B0
6FF070
0D00B0
0D01E0
0FFE40
ENDCHAR
STARTCHAR uni0250
ENCODING 592
SWIDTH 512 0
DWIDTH 9 0
BBX 7 9 1 0
BITMAP
A6F4
B92C
B01C
A02C
B6E0
B900
7000
3818
1BE4
ENDCHAR
STARTCHAR uni0251
ENCODING 593
SWIDTH 555 0
DWIDTH 10 0
BBX 8 9 1 0
BITMAP
1BDA
782E
B00E
E00E
D00E
D00E
E00E
742E
1F9A
ENDCHAR
STARTCHAR uni0252
ENCODING 594
SWIDTH 555 0
DWIDTH 10 0
BBX 8 9 1 0
BITMAP
A6F4
B91D
B00A
B007
B007
B00B
B00E
B82D
A7E4
ENDCHAR
STARTCHAR uni0253
ENCODING 595
SWIDTH 555 0
DWIDTH 10 0
BBX 8 13 1 0
BITMAP
1B80
3800
7000
B000
B6F4
B91D
B00A
B007
B007
B00B
B00E
B82D
A7E4
ENDCHAR
STARTCHAR uni0254
ENCODING 596
SWIDTH 456 0
DWIDTH 8 0
BBX 8 9 0 0
BITMAP
2F90
2074
002C
001D
001D
001D
002C
6074
2F90
ENDCHAR
STARTCHAR uni0255
ENCODING 597
SWIDTH 456 0
DWIDTH 8 0
BBX 7 10 1 -1
BITMAP
1BE0
7820
A000
D000
D000
D2F4
BE28
7C28
BBE0
9000
ENDCHAR
STARTCHAR uni0256
ENCODING 598
SWIDTH 555 0
DWIDTH 10 0
BBX 10 16 1 -3
BITMAP
000E00
000E00
000E00
000E00
1BDE00
782E00
B00E00
E00E00
D00E00
D00E00
E00E00
742E00
1F9E00
000E00
000A00
0007D0
ENDCHAR
STARTCHAR uni0257
ENCODING 599
SWIDTH 555 0
DWIDTH 10 0
BBX 10 13 1 0
BITMAP
0006D0
000A00
000E00
000E00
1BDE00
782E00
B00E00
E00E00
D00E00
D00E00
E00E00
742E00
1F9A00
ENDCHAR
STARTCHAR uni0258
ENCODING 600
SWIDTH 496 0
DWIDTH 9 0
BBX 8 9 0 0
BITMAP
0BE4
2D1D
340A
7007
7FFF
0007
000A
142D
1BE0
ENDCHAR
STARTCHAR uni0259
ENCODING 601
SWIDTH 496 0
DWIDTH 9 0
BBX 8 9 0 0
BITMAP
1BE4
142D
000A
0007
7FFF
7007
340A
291D
0BE4
ENDCHAR
STARTCHAR uni025A
ENCODING 602
SWIDTH 648 0
DWIDTH 12 0
BBX 12 9 0 0
BITMAP
1BE400
142D50
000BB0
006F24
06D70E
790700
340A00
2D1C00
07E400
ENDCHAR
STARTCHAR uni025B
ENCODING 603
SWIDTH 440 0
DWIDTH 8 0
BBX 6 9 1 0
BITMAP
1FE0
7450
B000
7400
2FC0
A400
D000
B420
2FE0
ENDCHAR
STARTCHAR uni025C
ENCODING 604
SWIDTH 456 0
DWIDTH 8 0
BBX 7 9 1 0
BITMAP
6F80
51E0
00A0
01D0
2F80
00B0
0074
90B0
BF80
ENDCHAR
STARTCHAR uni025E
ENCODING 606
SWIDTH 546 0
DWIDTH 10 0
BBX 8 9 1 0
BITMAP
1FE0
746C
B00E
740B
2F4B
A00B
D00E
B42C
2FE0
ENDCHAR
STARTCHAR uni025F
ENCODING 607
SWIDTH 270 0
DWIDTH 5 0
BBX 6 13 -1 -4
BITMAP
0740
0740
0740
0740
3FE0
0740
0740
0740
0740
0740
0700
0B00
7D00
ENDCHAR
STARTCHAR uni0260
ENCODING 608
SWIDTH 559 0
DWIDTH 10 0
BBX 10 15 1 -4
BITMAP
0006D0
000A00
1BDE00
782E00
B00E00
E00E00
D00E00
E00E00
A00E00
782E00
1F9E00
000E00
000D00
242C00
2FE000
ENDCHAR
STARTCHAR uni0261
ENCODING 609
SWIDTH 559 0
DWIDTH 10 0
BBX 8 13 1 -4
BITMAP
1BDA
782E
B00E
E00E
D00E
E00E
A00E
782E
1F9E
000E
000D
242C
2FE0
ENDCHAR
STARTCHAR uni0262
ENCODING 610
SWIDTH 497 0
DWIDTH 9 0
BBX 7 9 1 0
BITMAP
1BE4
3814
A000
D000
D000
D1FC
A01C
781C
1BE4
ENDCHAR
STARTCHAR uni0263
ENCODING 611
SWIDTH 467 0
DWIDTH 8 0
BBX 8 13 0 -4
BITMAP
B007
740A
280D
1C1C
0D38
0A70
07A0
03D0
03D0
0770
0A34
0A70
07E0
ENDCHAR
STARTCHAR uni0264
ENCODING 612
SWIDTH 511 0
DWIDTH 9 0
BBX 9 9 0 0
BITMAP
7D1B80
07B400
02E000
077800
0D1D00
1C0A00
1C0A00
1D1D00
06F400
ENDCHAR
STARTCHAR uni0265
ENCODING 613
SWIDTH 547 0
DWIDTH 10 0
BBX 8 13 1 -4
BITMAP
B00D
B00D
B00D
B00D
B00D
B00D
B00D
746D
2F9D
000D
000D
000D
000D
ENDCHAR
STARTCHAR uni0266
ENCODING 614
SWIDTH 544 0
DWIDTH 10 0
BBX 8 13 1 0
BITMAP
1B80
3800
7000
B000
B2F4
B92C
B00D
B00D
B00D
B00D
B00D
B00D
B00D
ENDCHAR
STARTCHAR uni0267
ENCODING 615
SWIDTH 544 0
DWIDTH 10 0
BBX 8 16 1 -3
BITMAP
1B80
3800
7000
B000
B2F4
B92C
B00D
B00D
B00D
B00D
B00D
B00D
B00D
000D
001D
00F8
ENDCHAR
STARTCHAR uni0268
ENCODING 616
SWIDTH 270 0
DWIDTH 5 0
BBX 5 13 0 0
BITMAP
1D00
1D00
0000
0000
1D00
1D00
1D00
1D00
BF80
1D00
1D00
1D00
1D00
ENDCHAR
STARTCHAR uni026A
ENCODING 618
SWIDTH 341 0
DWIDTH 6 0
BBX 6 9 0 0
BITMAP
7FD0
0A00
0A00
0A00
0A00
0A00
0A00
0A00
7FD0
ENDCHAR
STARTCHAR uni026C
ENCODING 620
SWIDTH 302 0
DWIDTH 5 0
BBX 6 13 0 0
BITMAP
0A00
0A00
0A00
1A00
EE00
CA00
7FD0
0A00
0A00
0A00
0A00
0B00
0780
ENDCHAR
STARTCHAR uni026D
ENCODING 621
SWIDTH 255 0
DWIDTH 5 0
BBX 4 16 1 -3
BITMAP
B0
B0
B0
B0
B0
B0
B0
B0
B0
B0
B0
B0
B0
70
74
2E
ENDCHAR
STARTCHAR uni026E
ENCODING 622
SWIDTH 577 0
DWIDTH 10 0
BBX 9 17 1 -4
BITMAP
B00000
B00000
B00000
B00000
BFFF80
B00740
B01D00
B03800
B0B000
B1E400
B1AF40
B00380
B002C0
0002C0
000280
0D0B40
06F900
ENDCHAR
STARTCHAR uni026F
ENCODING 623
SWIDTH 829 0
DWIDTH 15 0
BBX 13 9 1 0
BITMAP
B01D0340
B01D0340
B01D0340
B01D0340
B01D0340
B01D0340
B02D0340
746E1B40
1F87E240
ENDCHAR
STARTCHAR uni0270
ENCODING 624
SWIDTH 829 0
DWIDTH 15 0
BBX 13 13 1 -4
BITMAP
B01D0340
B01D0340
B01D0340
B01D0340
B01D0340
B01D0340
B02D0340
746E1B40
1F87E340
00000340
00000340
00000340
00000340
ENDCHAR
STARTCHAR uni0271
ENCODING 625
SWIDTH 829 0
DWIDTH 15 0
BBX 13 12 1 -3
BITMAP
A2F4BD00
B92E4740
B01D0340
B01D0380
B01D0380
B01D0380
B01D0380
B01D0380
B01D0380
00000380
00000740
00002E00
ENDCHAR
STARTCHAR uni0272
ENCODING 626
SWIDTH 547 0
DWIDTH 10 0
BBX 10 12 -1 -3
BITMAP
0A2F40
0B92C0
0B00D0
0B00D0
0B00D0
0B00D0
0B00D0
0B00D0
0B00D0
0B0000
0A0000
7D0000
ENDCHAR
STARTCHAR uni0273
ENCODING 627
SWIDTH 547 0
DWIDTH 10 0
BBX 10 12 1 -3
BITMAP
A2F400
B92C00
B00D00
B00D00
B00D00
B00D00
B00D00
B00D00
B00D00
000D00
000A00
0007D0
ENDCHAR
STARTCHAR uni0274
ENCODING 628
SWIDTH 543 0
DWIDTH 10 0
BBX 8 9 1 0
BITMAP
B40D
B80D
AD0D
A70D
B28D
B1DD
B0AD
B03D
B01D
ENDCHAR
STARTCHAR uni0275
ENCODING 629
SWIDTH 542 0
DWIDTH 10 0
BBX 8 9 1 0
BITMAP
1BE0
782C
A00E
D00A
FFFF
D00A
A00E
742C
1BE0
ENDCHAR
STARTCHAR uni0276
ENCODING 630
SWIDTH 699 0
DWIDTH 13 0
BBX 12 9 1 0
BITMAP
1BFFFC
782C00
B02C00
E02C00
D02FF4
E02C00
A02C00
382C00
1BFFFD
ENDCHAR
STARTCHAR uni0278
ENCODING 632
SWIDTH 680 0
DWIDTH 12 0
BBX 11 17 1 -4
BITMAP
00A000
00A000
00A000
00A000
0BFE40
39A2D0
B0A0B0
E0A074
D0A034
E0A074
B0A0B0
39A2D0
0BFE40
00A000
00A000
00A000
00A000
ENDCHAR
STARTCHAR uni0279
ENCODING 633
SWIDTH 347 0
DWIDTH 6 0
BBX 5 9 0 0
BITMAP
0280
0280
0280
0280
0280
0280
0380
0A80
F580
ENDCHAR
STARTCHAR uni027A
ENCODING 634
SWIDTH 347 0
DWIDTH 6 0
BBX 5 13 0 0
BITMAP
0280
0280
0280
0280
0280
0280
0280
0280
0280
0280
0380
0A80
F580
ENDCHAR
STARTCHAR uni027B
ENCODING 635
SWIDTH 347 0
DWIDTH 6 0
BBX 7 12 0 -3
BITMAP
0280
0280
0280
0280
0280
0280
0380
0A80
F680
0280
01C0
00B4
ENDCHAR
STARTCHAR uni027D
ENCODING 637
SWIDTH 347 0
DWIDTH 6 0
BBX 5 12 1 -3
BITMAP
A2C0
B900
B000
B000
B000
B000
B000
B000
B000
7000
7400
2E00
ENDCHAR
STARTCHAR uni027E
ENCODING 638
SWIDTH 334 0
DWIDTH 6 0
BBX 5 9 1 0
BITMAP
1BC0
3800
7000
B000
B000
B000
B000
B000
B000
ENDCHAR
STARTCHAR uni0280
ENCODING 640
SWIDTH 495 0
DWIDTH 9 0
BBX 7 9 1 0
BITMAP
BFE0
B078
B02C
B028
B074
BFE0
B0D0
B074
B02C
ENDCHAR
STARTCHAR uni0281
ENCODING 641
SWIDTH 495 0
DWIDTH 9 0
BBX 7 9 1 0
BITMAP
D034
B034
3834
1C34
2FF4
B434
E034
B434
2FF4
ENDCHAR
STARTCHAR uni0282
ENCODING 642
SWIDTH 419 0
DWIDTH 8 0
BBX 7 12 0 -3
BITMAP
0BE4
2824
3400
2D00
07E0
0078
002C
2428
7BE0
7000
7000
2F00
ENDCHAR
STARTCHAR uni0283
ENCODING 643
SWIDTH 247 0
DWIDTH 4 0
BBX 6 17 -1 -4
BITMAP
02F0
0740
0700
0B00
0B00
0B00
0B00
0B00
0B00
0B00
0B00
0B00
0B00
0B00
0B00
0A00
B800
ENDCHAR
STARTCHAR uni0284
ENCODING 644
SWIDTH 270 0
DWIDTH 5 0
BBX 7 17 -1 -4
BITMAP
01F4
0380
0740
0740
0740
0740
0740
0740
3FE0
0740
0740
0740
0740
0740
0700
0B00
7D00
ENDCHAR
STARTCHAR uni0288
ENCODING 648
SWIDTH 338 0
DWIDTH 6 0
BBX 6 15 0 -3
BITMAP
0400
0D00
0D00
BFE0
1D00
1D00
1D00
1D00
1D00
1D00
1D00
1D00
1D00
0E00
07E0
ENDCHAR
STARTCHAR uni0289
ENCODING 649
SWIDTH 575 0
DWIDTH 10 0
BBX 10 9 0 0
BITMAP
1D0280
1D0280
1D0280
BFFFF0
1D0280
1D0280
1D0380
0E0B80
07E680
ENDCHAR
STARTCHAR uni028A
ENCODING 650
SWIDTH 541 0
DWIDTH 10 0
BBX 9 9 0 0
BITMAP
7F1FC0
0E0A00
2C0340
380280
340280
340280
280380
1E0B00
06F800
ENDCHAR
STARTCHAR uni028B
ENCODING 651
SWIDTH 530 0
DWIDTH 10 0
BBX 8 9 1 0
BITMAP
B0F4
B01D
B00E
B00E
B00E
B00D
701C
3878
1BE0
ENDCHAR
STARTCHAR uni028C
ENCODING 652
SWIDTH 467 0
DWIDTH 8 0
BBX 8 9 0 0
BITMAP
03D0
07A0
0A70
0D34
1C28
281C
340D
700A
B00B
ENDCHAR
STARTCHAR uni028D
ENCODING 653
SWIDTH 718 0
DWIDTH 13 0
BBX 13 9 0 0
BITMAP
0780B400
0BC0F400
0DD1A800
0D929C00
1C624D00
28730E00
343A0A00
742E0700
701D0340
ENDCHAR
STARTCHAR uni028E
ENCODING 654
SWIDTH 467 0
DWIDTH 8 0
BBX 8 13 0 0
BITMAP
002F
00B0
00D0
01C0
0280
03D0
0AA0
0D70
1C34
2828
341D
700E
B00B
ENDCHAR
STARTCHAR uni028F
ENCODING 655
SWIDTH 415 0
DWIDTH 7 0
BBX 8 9 0 0
BITMAP
A01D
7428
2874
1DA0
0AD0
0780
0340
0340
0340
ENDCHAR
STARTCHAR uni0290
ENCODING 656
SWIDTH 425 0
DWIDTH 8 0
BBX 9 12 0 -3
BITMAP
3FFC00
003400
00A000
01D000
038000
0B0000
1D0000
380000
7FFC00
001C00
001D00
000B80
ENDCHAR
STARTCHAR uni0291
ENCODING 657
SWIDTH 449 0
DWIDTH 8 0
BBX 9 11 0 -2
BITMAP
3FFC00
007800
00B000
01D000
038000
0B1E00
1D6240
389300
7FFD00
018000
010000
ENDCHAR
STARTCHAR uni0292
ENCODING 658
SWIDTH 425 0
DWIDTH 8 0
BBX 8 13 0 -4
BITMAP
7FFC
0074
00E0
02C0
0740
0F40
0AB4
002C
001D
001D
002C
A074
2FD0
ENDCHAR
STARTCHAR uni0294
ENCODING 660
SWIDTH 417 0
DWIDTH 8 0
BBX 7 13 0 0
BITMAP
2FD0
A078
002C
001C
002C
0078
02E0
0780
0700
0700
0700
0700
0700
ENDCHAR
STARTCHAR uni0295
ENCODING 661
SWIDTH 443 0
DWIDTH 8 0
BBX 8 13 0 0
BITMAP
0BF8
291D
7400
7000
7400
3C00
0F40
02C0
01C0
01C0
01C0
01C0
01C0
ENDCHAR
STARTCHAR uni0298
ENCODING 664
SWIDTH 525 0
DWIDTH 9 0
BBX 8 13 1 0
BITMAP
0BD0
2874
7028
A01C
A00D
D00D
D34D
E00D
A00D
A01C
7028
3874
0BD0
ENDCHAR
STARTCHAR uni0299
ENCODING 665
SWIDTH 508 0
DWIDTH 9 0
BBX 8 9 1 0
BITMAP
BFE4
B02C
B01C
B028
BFF4
B02C
B00D
B02D
BFE4
ENDCHAR
STARTCHAR uni029C
ENCODING 668
SWIDTH 562 0
DWIDTH 10 0
BBX 8 9 1 0
BITMAP
B00A
B00A
B00A
B00A
BFFE
B00A
B00A
B00A
B00A
ENDCHAR
STARTCHAR uni029D
ENCODING 669
SWIDTH 284 0
DWIDTH 5 0
BBX 8 18 -2 -5
BITMAP
00E0
00E0
0000
0000
00E0
00E0
00E0
00E0
00E0
00E0
00E0
00E0
00E0
2EE0
71E0
71F4
2F6C
0009
ENDCHAR
STARTCHAR uni029F
ENCODING 671
SWIDTH 411 0
DWIDTH 7 0
BBX 6 9 1 0
BITMAP
B000
B000
B000
B000
B000
B000
B000
B000
BFF0
ENDCHAR
STARTCHAR uni02A1
ENCODING 673
SWIDTH 441 0
DWIDTH 8 0
BBX 8 13 0 0
BITMAP
2FE0
B468
001D
000D
001D
0038
01E0
BFFE
0340
0340
0340
0340
0340
ENDCHAR
STARTCHAR uni02A2
ENCODING 674
SWIDTH 441 0
DWIDTH 8 0
BBX 8 13 0 0
BITMAP
0BF4
391D
7400
7000
7400
2C00
0B40
BFFE
01C0
01C0
01C0
01C0
01C0
ENDCHAR
STARTCHAR h.sups
ENCODING 688
SWIDTH 366 0
DWIDTH 7 0
BBX 5 9 1 7
BITMAP
C000
C000
C000
DF40
D280
C180
C180
C180
C180
ENDCHAR
STARTCHAR j.sups
ENCODING 690
SWIDTH 169 0
DWIDTH 3 0
BBX 3 10 -1 5
BITMAP
0C
00
0C
0C
0C
0C
0C
0C
0C
78
ENDCHAR
STARTCHAR r.sups
ENCODING 691
SWIDTH 240 0
DWIDTH 4 0
BBX 4 6 1 7
BITMAP
9D
E0
C0
C0
C0
C0
ENDCHAR
STARTCHAR w.sups
ENCODING 695
SWIDTH 487 0
DWIDTH 9 0
BBX 9 6 0 7
BITMAP
A1C240
61D300
326200
262600
2A2900
1D2C00
ENDCHAR
STARTCHAR y.sups
ENCODING 696
SWIDTH 319 0
DWIDTH 6 0
BBX 6 8 0 5
BITMAP
9090
70C0
2580
1A40
0F00
0A00
0D00
7400
ENDCHAR
STARTCHAR uni02B9
ENCODING 697
SWIDTH 249 0
DWIDTH 4 0
BBX 3 4 1 8
BITMAP
74
70
60
60
ENDCHAR
STARTCHAR uni02BB
ENCODING 699
SWIDTH 249 0
DWIDTH 4 0
BBX 2 4 1 8
BITMAP
20
60
C0
B0
ENDCHAR
STARTCHAR uni02BC
ENCODING 700
SWIDTH 249 0
DWIDTH 4 0
BBX 3 4 1 8
BITMAP
74
24
30
90
ENDCHAR
STARTCHAR uni02BE
ENCODING 702
SWIDTH 166 0
DWIDTH 3 0
BBX 3 4 0 10
BITMAP
74
18
18
74
ENDCHAR
STARTCHAR uni02BF
ENCODING 703
SWIDTH 166 0
DWIDTH 3 0
BBX 3 4 0 10
BITMAP
74
90
90
74
ENDCHAR
STARTCHAR uni02C1
ENCODING 705
SWIDTH 302 0
DWIDTH 5 0
BBX 5 9 0 7
BITMAP
2F40
6080
A000
7000
2800
0A00
0A00
0A00
0500
ENDCHAR
STARTCHAR circumflex
ENCODING 710
SWIDTH 542 0
DWIDTH 10 0
BBX 6 3 2 10
BITMAP
1F00
7680
9090
ENDCHAR
STARTCHAR caron
ENCODING 711
SWIDTH 542 0
DWIDTH 10 0
BBX 6 3 2 10
BITMAP
9090
7680
1F00
ENDCHAR
STARTCHAR uni02C8
ENCODING 712
SWIDTH 114 0
DWIDTH 2 0
BBX 2 4 0 9
BITMAP
A0
A0
A0
A0
ENDCHAR
STARTCHAR uni02C9
ENCODING 713
SWIDTH 277 0
DWIDTH 5 0
BBX 5 1 0 11
BITMAP
FFC0
ENDCHAR
STARTCHAR uni02CA
ENCODING 714
SWIDTH 225 0
DWIDTH 4 0
BBX 4 4 1 10
BITMAP
08
2D
74
90
ENDCHAR
STARTCHAR uni02CB
ENCODING 715
SWIDTH 225 0
DWIDTH 4 0
BBX 4 4 -1 10
BITMAP
20
78
1D
06
ENDCHAR
STARTCHAR uni02CC
ENCODING 716
SWIDTH 114 0
DWIDTH 2 0
BBX 2 4 0 -5
BITMAP
60
A0
A0
A0
ENDCHAR
STARTCHAR uni02D0
ENCODING 720
SWIDTH 249 0
DWIDTH 4 0
BBX 3 8 1 0
BITMAP
B4
60
00
00
00
00
60
B4
ENDCHAR
STARTCHAR uni02D1
ENCODING 721
SWIDTH 249 0
DWIDTH 4 0
BBX 3 2 1 5
BITMAP
B4
60
ENDCHAR
STARTCHAR breve
ENCODING 728
SWIDTH 542 0
DWIDTH 10 0
BBX 6 3 2 10
BITMAP
8060
A1D0
2F40
ENDCHAR
STARTCHAR dotaccent
ENCODING 729
SWIDTH 542 0
DWIDTH 10 0
BBX 2 2 4 11
BITMAP
E0
E0
ENDCHAR
STARTCHAR ring
ENCODING 730
SWIDTH 542 0
DWIDTH 10 0
BBX 4 4 3 10
BITMAP
7D
C6
C6
7D
ENDCHAR
STARTCHAR ogonek
ENCODING 731
SWIDTH 542 0
DWIDTH 10 0
BBX 4 4 3 -4
BITMAP
14
30
70
2D
ENDCHAR
STARTCHAR tilde
ENCODING 732
SWIDTH 542 0
DWIDTH 10 0
BBX 6 3 2 10
BITMAP
1010
ED70
82D0
ENDCHAR
STARTCHAR hungarumlaut
ENCODING 733
SWIDTH 542 0
DWIDTH 10 0
BBX 5 4 3 10
BITMAP
0040
25C0
7240
9200
ENDCHAR
STARTCHAR uni02DE
ENCODING 734
SWIDTH 151 0
DWIDTH 3 0
BBX 5 3 -2 4
BITMAP
6C00
9900
0780
ENDCHAR
STARTCHAR uni02E0
ENCODING 736
SWIDTH 318 0
DWIDTH 6 0
BBX 6 9 0 4
BITMAP
9090
60C0
3180
2640
1B00
0E00
1B00
1A40
1E00
ENDCHAR
STARTCHAR l.sups
ENCODING 737
SWIDTH 174 0
DWIDTH 3 0
BBX 2 9 1 7
BITMAP
C0
C0
C0
C0
C0
C0
C0
C0
A0
ENDCHAR
STARTCHAR s.sups
ENCODING 738
SWIDTH 283 0
DWIDTH 5 0
BBX 5 6 0 7
BITMAP
2E40
6100
3900
0740
5280
6E40
ENDCHAR
STARTCHAR x.sups
ENCODING 739
SWIDTH 307 0
DWIDTH 6 0
BBX 5 6 0 7
BITMAP
61C0
2640
0E00
1E00
3640
A1C0
ENDCHAR
STARTCHAR uni0300
ENCODING 768
SWIDTH 0 0
DWIDTH 0 0
BBX 4 4 -3 10
BITMAP
20
78
1D
06
ENDCHAR
STARTCHAR uni0301
ENCODING 769
SWIDTH 0 0
DWIDTH 0 0
BBX 4 4 -1 10
BITMAP
08
2D
74
90
ENDCHAR
STARTCHAR uni0302
ENCODING 770
SWIDTH 0 0
DWIDTH 0 0
BBX 6 3 -3 10
BITMAP
1F40
35C0
9060
ENDCHAR
STARTCHAR uni0303
ENCODING 771
SWIDTH 0 0
DWIDTH 0 0
BBX 6 3 -3 10
BITMAP
1410
AD30
C2D0
ENDCHAR
STARTCHAR uni0304
ENCODING 772
SWIDTH 0 0
DWIDTH 0 0
BBX 6 1 -3 11
BITMAP
7FD0
ENDCHAR
STARTCHAR uni0305
ENCODING 773
SWIDTH 0 0
DWIDTH 0 0
BBX 6 1 -3 11
BITMAP
7FD0
ENDCHAR
STARTCHAR uni0306
ENCODING 774
SWIDTH 0 0
DWIDTH 0 0
BBX 6 3 -3 10
BITMAP
9060
6090
2F80
ENDCHAR
STARTCHAR uni0307
ENCODING 775
SWIDTH 0 0
DWIDTH 0 0
BBX 2 2 -1 11
BITMAP
A0
A0
ENDCHAR
STARTCHAR uni0308
ENCODING 776
SWIDTH 0 0
DWIDTH 0 0
BBX 6 2 -3 10
BITMAP
70D0
70D0
ENDCHAR
STARTCHAR uni0309
ENCODING 777
SWIDTH 0 0
DWIDTH 0 0
BBX 4 4 -2 10
BITMAP
78
0D
0D
28
ENDCHAR
STARTCHAR uni030A
ENCODING 778
SWIDTH 0 0
DWIDTH 0 0
BBX 4 4 -2 10
BITMAP
7D
D7
D7
7D
ENDCHAR
STARTCHAR uni030B
ENCODING 779
SWIDTH 0 0
DWIDTH 0 0
BBX 6 4 -2 10
BITMAP
0050
18D0
3280
5200
ENDCHAR
STARTCHAR uni030C
ENCODING 780
SWIDTH 0 0
DWIDTH 0 0
BBX 6 3 -3 10
BITMAP
9060
35C0
1F40
ENDCHAR
STARTCHAR uni030F
ENCODING 783
SWIDTH 0 0
DWIDTH 0 0
BBX 6 3 -4 10
BITMAP
6240
24C0
1850
ENDCHAR
STARTCHAR uni0311
ENCODING 785
SWIDTH 0 0
DWIDTH 0 0
BBX 6 3 -3 10
BITMAP
2F80
6090
9060
ENDCHAR
STARTCHAR uni0312
ENCODING 786
SWIDTH 0 0
DWIDTH 0 0
BBX 2 4 -1 10
BITMAP
10
80
D0
90
ENDCHAR
STARTCHAR uni0313
ENCODING 787
SWIDTH 0 0
DWIDTH 0 0
BBX 2 4 -1 10
BITMAP
A0
B0
20
40
ENDCHAR
STARTCHAR uni0318
ENCODING 792
SWIDTH 0 0
DWIDTH 0 0
BBX 4 3 -2 -4
BITMAP
06
7E
06
ENDCHAR
STARTCHAR uni0319
ENCODING 793
SWIDTH 0 0
DWIDTH 0 0
BBX 4 3 -2 -4
BITMAP
90
BD
90
ENDCHAR
STARTCHAR uni031A
ENCODING 794
SWIDTH 0 0
DWIDTH 0 0
BBX 4 3 -2 10
BITMAP
7E
06
05
ENDCHAR
STARTCHAR uni031B
ENCODING 795
SWIDTH 0 0
DWIDTH 0 0
BBX 3 4 0 8
BITMAP
24
28
74
D0
ENDCHAR
STARTCHAR uni031C
ENCODING 796
SWIDTH 0 0
DWIDTH 0 0
BBX 2 4 -1 -5
BITMAP
B0
C0
C0
B0
ENDCHAR
STARTCHAR uni031D
ENCODING 797
SWIDTH 0 0
DWIDTH 0 0
BBX 4 3 -2 -4
BITMAP
14
14
BE
ENDCHAR
STARTCHAR uni031E
ENCODING 798
SWIDTH 0 0
DWIDTH 0 0
BBX 4 3 -2 -5
BITMAP
BE
14
14
ENDCHAR
STARTCHAR uni031F
ENCODING 799
SWIDTH 0 0
DWIDTH 0 0
BBX 4 3 -2 -4
BITMAP
14
BE
14
ENDCHAR
STARTCHAR uni0320
ENCODING 800
SWIDTH 0 0
DWIDTH 0 0
BBX 4 1 -2 -3
BITMAP
BE
ENDCHAR
STARTCHAR uni0323
ENCODING 803
SWIDTH 0 0
DWIDTH 0 0
BBX 2 2 -1 -3
BITMAP
A0
A0
ENDCHAR
STARTCHAR uni0324
ENCODING 804
SWIDTH 0 0
DWIDTH 0 0
BBX 6 2 -3 -4
BITMAP
70D0
70D0
ENDCHAR
STARTCHAR uni0325
ENCODING 805
SWIDTH 0 0
DWIDTH 0 0
BBX 4 4 -2 -5
BITMAP
7D
D7
D7
7D
ENDCHAR
STARTCHAR uni0326
ENCODING 806
SWIDTH 0 0
DWIDTH 0 0
BBX 4 4 -2 -5
BITMAP
28
0D
1D
A4
ENDCHAR
STARTCHAR uni0327
ENCODING 807
SWIDTH 0 0
DWIDTH 0 0
BBX 4 5 -2 -5
BITMAP
24
38
1D
1D
A4
ENDCHAR
STARTCHAR uni0328
ENCODING 808
SWIDTH 0 0
DWIDTH 0 0
BBX 3 4 -1 -4
BITMAP
60
C0
C0
B8
ENDCHAR
STARTCHAR uni0329
ENCODING 809
SWIDTH 0 0
DWIDTH 0 0
BBX 2 4 -1 -5
BITMAP
A0
A0
A0
A0
ENDCHAR
STARTCHAR uni032A
ENCODING 810
SWIDTH 0 0
DWIDTH 0 0
BBX 6 3 -3 -4
BITMAP
7FD0
6090
1040
ENDCHAR
STARTCHAR uni032C
ENCODING 812
SWIDTH 0 0
DWIDTH 0 0
BBX 6 3 -3 -4
BITMAP
9060
35C0
1F40
ENDCHAR
STARTCHAR uni032E
ENCODING 814
SWIDTH 0 0
DWIDTH 0 0
BBX 6 3 -3 -4
BITMAP
9060
6090
2F80
ENDCHAR
STARTCHAR uni032F
ENCODING 815
SWIDTH 0 0
DWIDTH 0 0
BBX 6 3 -3 -4
BITMAP
2F80
6090
9060
ENDCHAR
STARTCHAR uni0330
ENCODING 816
SWIDTH 0 0
DWIDTH 0 0
BBX 6 3 -3 -4
BITMAP
1410
AD30
C2D0
ENDCHAR
STARTCHAR uni0331
ENCODING 817
SWIDTH 0 0
DWIDTH 0 0
BBX 6 1 -3 -3
BITMAP
7FD0
ENDCHAR
STARTCHAR uni0334
ENCODING 820
SWIDTH 0 0
DWIDTH 0 0
BBX 6 3 -3 3
BITMAP
1410
AD30
C2D0
ENDCHAR
STARTCHAR uni0339
ENCODING 825
SWIDTH 0 0
DWIDTH 0 0
BBX 2 4 -1 -5
BITMAP
E0
30
30
E0
ENDCHAR
STARTCHAR uni033A
ENCODING 826
SWIDTH 0 0
DWIDTH 0 0
BBX 6 3 -3 -4
BITMAP
1040
6090
7FD0
ENDCHAR
STARTCHAR uni033B
ENCODING 827
SWIDTH 0 0
DWIDTH 0 0
BBX 6 3 -3 -4
BITMAP
7FD0
6090
7FD0
ENDCHAR
STARTCHAR uni033C
ENCODING 828
SWIDTH 0 0
DWIDTH 0 0
BBX 6 2 -3 -4
BITMAP
7AD0
CA30
ENDCHAR
STARTCHAR uni033D
ENCODING 829
SWIDTH 0 0
DWIDTH 0 0
BBX 4 3 -2 10
BITMAP
69
3C
69
ENDCHAR
STARTCHAR uni0342
ENCODING 834
SWIDTH 0 0
DWIDTH 0 0
BBX 6 3 -3 10
BITMAP
1410
AD30
C2D0
ENDCHAR
STARTCHAR uni0345
ENCODING 837
SWIDTH 0 0
DWIDTH 0 0
BBX 3 3 -1 -4
BITMAP
50
A0
78
ENDCHAR
STARTCHAR uni0361
ENCODING 865
SWIDTH 0 0
DWIDTH 0 0
BBX 16 3 -8 10
BITMAP
01AFFA40
2E5005B8
90000006
ENDCHAR
STARTCHAR uni0374
ENCODING 884
SWIDTH 249 0
DWIDTH 4 0
BBX 3 4 1 8
BITMAP
74
70
60
60
ENDCHAR
STARTCHAR uni0375
ENCODING 885
SWIDTH 249 0
DWIDTH 4 0
BBX 2 4 1 0
BITMAP
30
70
A0
A0
ENDCHAR
STARTCHAR uni037A
ENCODING 890
SWIDTH 542 0
DWIDTH 10 0
BBX 3 3 4 -4
BITMAP
50
A0
74
ENDCHAR
STARTCHAR uni037E
ENCODING 894
SWIDTH 249 0
DWIDTH 4 0
BBX 3 12 1 -3
BITMAP
B0
B0
00
00
00
00
00
B4
B8
24
70
90
ENDCHAR
STARTCHAR tonos
ENCODING 900
SWIDTH 542 0
DWIDTH 10 0
BBX 3 4 4 10
BITMAP
34
70
60
90
ENDCHAR
STARTCHAR dieresistonos
ENCODING 901
SWIDTH 542 0
DWIDTH 10 0
BBX 6 4 2 10
BITMAP
0300
0700
96A0
A9A0
ENDCHAR
STARTCHAR Alphatonos
ENCODING 902
SWIDTH 566 0
DWIDTH 10 0
BBX 10 12 0 0
BITMAP
60B400
A0E800
91DC00
828D00
034A00
070700
0A0340
0FFF80
1C01C0
2801D0
3400E0
7000B0
ENDCHAR
STARTCHAR anoteleia
ENCODING 903
SWIDTH 249 0
DWIDTH 4 0
BBX 2 2 1 7
BITMAP
B0
B0
ENDCHAR
STARTCHAR Epsilontonos
ENCODING 904
SWIDTH 591 0
DWIDTH 11 0
BBX 11 12 -1 0
BITMAP
35FFF8
35D000
71D000
51D000
01D000
01FFE0
01D000
01D000
01D000
01D000
01D000
01FFF8
ENDCHAR
STARTCHAR Etatonos
ENCODING 905
SWIDTH 716 0
DWIDTH 13 0
BBX 13 12 -1 0
BITMAP
35D00740
35D00740
71D00740
51D00740
01D00740
01FFFF40
01D00740
01D00740
01D00740
01D00740
01D00740
01D00740
ENDCHAR
STARTCHAR Iotatonos
ENCODING 906
SWIDTH 327 0
DWIDTH 6 0
BBX 6 12 -1 0
BITMAP
35D0
35D0
71D0
51D0
01D0
01D0
01D0
01D0
01D0
01D0
01D0
01D0
ENDCHAR
STARTCHAR Omicrontonos
ENCODING 908
SWIDTH 711 0
DWIDTH 13 0
BBX 13 12 -1 0
BITMAP
341BE400
34B42D00
71D00B00
53800340
03800380
074002C0
074002C0
03800380
02800340
01D00B00
00B42D00
001BE400
ENDCHAR
STARTCHAR Upsilontonos
ENCODING 910
SWIDTH 600 0
DWIDTH 11 0
BBX 12 12 -1 0
BITMAP
36C00E
34D01C
70B038
503470
0028A0
000DD0
000B80
000740
000740
000740
000740
000740
ENDCHAR
STARTCHAR Omegatonos
ENCODING 911
SWIDTH 723 0
DWIDTH 13 0
BBX 14 12 -1 0
BITMAP
341BE400
30B41D00
71D00740
52C00380
038002C0
034002C0
038002C0
03800280
02C00340
00E00B00
00741D00
07FC3FD0
ENDCHAR
STARTCHAR iotadieresistonos
ENCODING 912
SWIDTH 262 0
DWIDTH 5 0
BBX 6 14 -1 0
BITMAP
0240
0300
6660
6570
0000
0B00
0B00
0B00
0B00
0B00
0B00
0B00
0700
03C0
ENDCHAR
STARTCHAR Alpha
ENCODING 913
SWIDTH 544 0
DWIDTH 10 0
BBX 10 12 0 0
BITMAP
00F000
01B400
026800
035C00
070D00
0A0A00
0D0B00
1FFF40
280380
3402C0
7001D0
A000E0
ENDCHAR
STARTCHAR Beta
ENCODING 914
SWIDTH 588 0
DWIDTH 11 0
BBX 9 12 1 0
BITMAP
7FF800
701E00
700700
700700
701E00
7FF800
701B40
700280
700280
700380
701B40
7FF900
ENDCHAR
STARTCHAR Gamma
ENCODING 915
SWIDTH 498 0
DWIDTH 9 0
BBX 8 12 1 0
BITMAP
7FFD
7000
7000
7000
7000
7000
7000
7000
7000
7000
7000
7000
ENDCHAR
STARTCHAR uni0394
ENCODING 916
SWIDTH 588 0
DWIDTH 11 0
BBX 10 12 0 0
BITMAP
00B400
00E800
01DC00
028D00
034A00
0B0700
0E0340
1D0280
2C01C0
3800D0
7400B0
7FFFF0
ENDCHAR
STARTCHAR Epsilon
ENCODING 917
SWIDTH 527 0
DWIDTH 9 0
BBX 8 12 1 0
BITMAP
7FFD
7000
7000
7000
7000
7FF8
7000
7000
7000
7000
7000
7FFE
ENDCHAR
STARTCHAR Zeta
ENCODING 918
SWIDTH 539 0
DWIDTH 10 0
BBX 9 12 0 0
BITMAP
2FFFC0
000780
000F00
002D00
007800
00B000
01D000
038000
0B4000
1E0000
3C0000
7FFFC0
ENDCHAR
STARTCHAR Eta
ENCODING 919
SWIDTH 652 0
DWIDTH 12 0
BBX 9 12 1 0
BITMAP
7001C0
7001C0
7001C0
7001C0
7001C0
7FFFC0
7001C0
7001C0
7001C0
7001C0
7001C0
7001C0
ENDCHAR
STARTCHAR Theta
ENCODING 920
SWIDTH 664 0
DWIDTH 12 0
BBX 10 12 1 0
BITMAP
06F900
2D0740
7401D0
B000E0
E000B0
E3FCB0
E000B0
E000B0
B000E0
7401D0
2D0740
06F900
ENDCHAR
STARTCHAR Iota
ENCODING 921
SWIDTH 263 0
DWIDTH 5 0
BBX 2 12 1 0
BITMAP
70
70
70
70
70
70
70
70
70
70
70
70
ENDCHAR
STARTCHAR Kappa
ENCODING 922
SWIDTH 579 0
DWIDTH 10 0
BBX 9 12 1 0
BITMAP
700740
701E00
703800
70B000
72D000
7BE000
7E7400
783800
701D00
700B00
700740
7002C0
ENDCHAR
STARTCHAR Lambda
ENCODING 923
SWIDTH 515 0
DWIDTH 9 0
BBX 9 12 0 0
BITMAP
01E000
02F000
037400
072800
0A2C00
0D1D00
1C0E00
2C0B00
380700
740340
B00280
E001C0
ENDCHAR
STARTCHAR Mu
ENCODING 924
SWIDTH 727 0
DWIDTH 13 0
BBX 11 12 1 0
BITMAP
7800B4
7C00F4
7D01E4
7A02B4
770374
734734
728A34
70CD34
70AC34
707434
702034
700034
ENDCHAR
STARTCHAR Nu
ENCODING 925
SWIDTH 647 0
DWIDTH 12 0
BBX 9 12 1 0
BITMAP
7401C0
7C01C0
7A01C0
7701C0
7281C0
71D1C0
70A1C0
7035C0
702DC0
700EC0
7007C0
7002C0
ENDCHAR
STARTCHAR Xi
ENCODING 926
SWIDTH 533 0
DWIDTH 10 0
BBX 8 12 1 0
BITMAP
FFFE
0000
0000
0000
0000
2FF4
0000
0000
0000
0000
0000
FFFE
ENDCHAR
STARTCHAR Omicron
ENCODING 927
SWIDTH 664 0
DWIDTH 12 0
BBX 10 12 1 0
BITMAP
06F900
2D0740
7401D0
B000E0
E000B0
E000B0
E000B0
E000B0
B000E0
7401D0
2D0740
06F900
ENDCHAR
STARTCHAR Pi
ENCODING 928
SWIDTH 645 0
DWIDTH 12 0
BBX 9 12 1 0
BITMAP
7FFFC0
7002C0
7002C0
7002C0
7002C0
7002C0
7002C0
7002C0
7002C0
7002C0
7002C0
7002C0
ENDCHAR
STARTCHAR Rho
ENCODING 929
SWIDTH 566 0
DWIDTH 10 0
BBX 9 12 1 0
BITMAP
7FF800
701F00
700740
700340
700740
701E00
7FE400
700000
700000
700000
700000
700000
ENDCHAR
STARTCHAR Sigma
ENCODING 931
SWIDTH 538 0
DWIDTH 10 0
BBX 9 12 0 0
BITMAP
3FFF40
2C0000
0A0000
038000
01D000
007000
00B000
01D000
074000
0E0000
2C0000
7FFFC0
ENDCHAR
STARTCHAR Tau
ENCODING 932
SWIDTH 536 0
DWIDTH 10 0
BBX 9 12 0 0
BITMAP
BFFFC0
00E000
00E000
00E000
00E000
00E000
00E000
00E000
00E000
00E000
00E000
00E000
ENDCHAR
STARTCHAR Upsilon
ENCODING 933
SWIDTH 476 0
DWIDTH 9 0
BBX 9 12 0 0
BITMAP
A00740
740B00
280D00
1C2C00
0E3400
07B000
03D000
02C000
01C000
01C000
01C000
01C000
ENDCHAR
STARTCHAR Phi
ENCODING 934
SWIDTH 719 0
DWIDTH 13 0
BBX 11 12 1 0
BITMAP
007000
007000
06FE40
3975F0
B07038
D0702C
D0701C
E0702C
B07038
3D75E0
06FE40
007000
ENDCHAR
STARTCHAR Chi
ENCODING 935
SWIDTH 513 0
DWIDTH 9 0
BBX 9 12 0 0
BITMAP
740340
2C0B00
0D0D00
0B2800
03B400
01E000
02F000
077400
0A2C00
1D0E00
380700
700380
ENDCHAR
STARTCHAR Psi
ENCODING 936
SWIDTH 699 0
DWIDTH 13 0
BBX 11 12 1 0
BITMAP
E07034
E07034
E07034
A07034
B07074
7870E0
1BFB80
00B400
007000
007000
007000
007000
ENDCHAR
STARTCHAR uni03A9
ENCODING 937
SWIDTH 678 0
DWIDTH 12 0
BBX 12 12 0 0
BITMAP
01BE40
0741E0
0D0074
2C0028
28002C
38001C
38001C
28002C
1C0038
0E0070
0741D0
7FC2FD
ENDCHAR
STARTCHAR Iotadieresis
ENCODING 938
SWIDTH 263 0
DWIDTH 5 0
BBX 6 15 -1 0
BITMAP
7470
7470
0000
0700
0700
0700
0700
0700
0700
0700
0700
0700
0700
0700
0700
ENDCHAR
STARTCHAR Upsilondieresis
ENCODING 939
SWIDTH 476 0
DWIDTH 9 0
BBX 9 15 0 0
BITMAP
1C2800
1C2800
000000
A00740
740B00
280D00
1C2C00
0E3400
07B000
03D000
02C000
01C000
01C000
01C000
01C000
ENDCHAR
STARTCHAR alphatonos
ENCODING 940
SWIDTH 560 0
DWIDTH 10 0
BBX 9 14 1 0
BITMAP
00A000
00D000
01C000
018000
000000
1B9700
786B00
A01E00
E00E00
D00D00
D01D00
E02D00
746D00
2F8B80
ENDCHAR
STARTCHAR epsilontonos
ENCODING 941
SWIDTH 448 0
DWIDTH 8 0
BBX 7 14 1 0
BITMAP
0180
0280
0340
0300
0000
1FE0
7420
A000
7400
2F80
E000
D000
E424
2FE4
ENDCHAR
STARTCHAR etatonos
ENCODING 942
SWIDTH 541 0
DWIDTH 10 0
BBX 8 17 1 -3
BITMAP
00A0
00E0
00C0
0180
0000
A2F4
A91C
B40D
B00D
B00D
B00D
B00D
B00D
B00D
000D
000D
000D
ENDCHAR
STARTCHAR iotatonos
ENCODING 943
SWIDTH 262 0
DWIDTH 5 0
BBX 3 14 1 0
BITMAP
28
38
34
60
00
B0
B0
B0
B0
B0
B0
B0
70
3C
ENDCHAR
STARTCHAR upsilondieresistonos
ENCODING 944
SWIDTH 510 0
DWIDTH 9 0
BBX 7 14 1 0
BITMAP
0240
0340
7330
7630
0000
E038
A028
A01C
A01C
A01C
A01C
A02C
7474
1FD0
ENDCHAR
STARTCHAR alpha
ENCODING 945
SWIDTH 560 0
DWIDTH 10 0
BBX 9 9 1 0
BITMAP
1B9700
786B00
A01E00
E00E00
D00D00
D01D00
E02D00
746D00
2F8B80
ENDCHAR
STARTCHAR beta
ENCODING 946
SWIDTH 565 0
DWIDTH 10 0
BBX 9 16 1 -3
BITMAP
0BE000
382C00
741D00
701D00
B02C00
B0B400
B2F800
A00A00
A00740
A00340
B00740
B91E00
B6F800
B00000
B00000
B00000
ENDCHAR
STARTCHAR gamma
ENCODING 947
SWIDTH 484 0
DWIDTH 9 0
BBX 9 12 0 -3
BITMAP
B00740
340700
1C0A00
0D0D00
0A1C00
072800
03B000
02E000
01C000
01C000
01C000
01C000
ENDCHAR
STARTCHAR delta
ENCODING 948
SWIDTH 531 0
DWIDTH 10 0
BBX 8 13 1 0
BITMAP
1BE9
3819
3800
1D00
0780
0BF0
383C
B01D
D00E
D00A
A00D
782C
1BE0
ENDCHAR
STARTCHAR epsilon
ENCODING 949
SWIDTH 448 0
DWIDTH 8 0
BBX 7 9 1 0
BITMAP
1FE0
7420
A000
7400
2F80
E000
D000
E424
2FE4
ENDCHAR
STARTCHAR zeta
ENCODING 950
SWIDTH 424 0
DWIDTH 8 0
BBX 7 16 1 -3
BITMAP
BFF4
00A0
0380
0A00
2C00
3800
B000
E000
D000
D000
E000
7800
1BE0
0074
0034
0060
ENDCHAR
STARTCHAR eta
ENCODING 951
SWIDTH 541 0
DWIDTH 10 0
BBX 8 12 1 -3
BITMAP
A2F4
A91C
B40D
B00D
B00D
B00D
B00D
B00D
B00D
000D
000D
000D
ENDCHAR
STARTCHAR theta
ENCODING 952
SWIDTH 522 0
DWIDTH 9 0
BBX 8 13 1 0
BITMAP
0BD0
2874
7028
A01C
A01D
E00D
FFFD
E00D
A01D
A01C
7028
3874
0BD0
ENDCHAR
STARTCHAR iota
ENCODING 953
SWIDTH 262 0
DWIDTH 5 0
BBX 3 9 1 0
BITMAP
B0
B0
B0
B0
B0
B0
B0
70
3C
ENDCHAR
STARTCHAR kappa
ENCODING 954
SWIDTH 494 0
DWIDTH 9 0
BBX 8 9 1 0
BITMAP
B019
B078
B1D0
B380
BB80
B8D0
B4B0
B028
B00E
ENDCHAR
STARTCHAR lambda
ENCODING 955
SWIDTH 494 0
DWIDTH 9 0
BBX 9 13 0 0
BITMAP
7E0000
074000
01C000
00D000
01E000
02F000
037400
072800
0E1C00
1D0E00
2C0B00
340740
B00380
ENDCHAR
STARTCHAR uni03BC
ENCODING 956
SWIDTH 562 0
DWIDTH 10 0
BBX 9 12 1 -3
BITMAP
B00D00
B00D00
B00D00
B00D00
B00D00
B00D00
B01D00
B46D00
BB8B40
B00000
B00000
B00000
ENDCHAR
STARTCHAR nu
ENCODING 957
SWIDTH 474 0
DWIDTH 9 0
BBX 8 9 0 0
BITMAP
B007
340B
2C0A
1D0D
0A1C
0728
0374
03E0
02D0
ENDCHAR
STARTCHAR xi
ENCODING 958
SWIDTH 431 0
DWIDTH 8 0
BBX 8 16 0 -3
BITMAP
BFFD
0B40
0D00
1D00
0D00
0B40
02F8
1E00
2800
3400
3800
2E40
06F8
001E
000D
0018
ENDCHAR
STARTCHAR omicron
ENCODING 959
SWIDTH 535 0
DWIDTH 10 0
BBX 8 9 1 0
BITMAP
1BE0
7868
A00D
D00E
D00A
D00E
A00D
7828
1BE0
ENDCHAR
STARTCHAR pi
ENCODING 960
SWIDTH 586 0
DWIDTH 11 0
BBX 10 9 0 0
BITMAP
BFFFF0
0A0340
0A0340
0A0340
0A0340
0A0340
0E0740
0D0340
0D02E0
ENDCHAR
STARTCHAR rho
ENCODING 961
SWIDTH 549 0
DWIDTH 10 0
BBX 8 12 1 -3
BITMAP
0BE4
2D2D
740A
B00B
B00B
A00B
B00E
B82C
A7E4
B000
B000
B000
ENDCHAR
STARTCHAR uni03C2
ENCODING 962
SWIDTH 432 0
DWIDTH 8 0
BBX 6 12 1 -3
BITMAP
1BE0
7860
A000
D000
D000
D000
B000
7800
0B90
00A0
00A0
01C0
ENDCHAR
STARTCHAR sigma
ENCODING 963
SWIDTH 546 0
DWIDTH 10 0
BBX 9 9 1 0
BITMAP
1BFF80
747400
A01C00
D00D00
D00E00
D00D00
A01D00
787800
1BE000
ENDCHAR
STARTCHAR tau
ENCODING 964
SWIDTH 460 0
DWIDTH 8 0
BBX 8 9 0 0
BITMAP
7FFE
02C0
0280
0280
0280
0280
0280
02C0
00F4
ENDCHAR
STARTCHAR upsilon
ENCODING 965
SWIDTH 510 0
DWIDTH 9 0
BBX 7 9 1 0
BITMAP
E038
A028
A01C
A01C
A01C
A01C
A02C
7474
1FD0
ENDCHAR
STARTCHAR phi
ENCODING 966
SWIDTH 680 0
DWIDTH 12 0
BBX 11 15 1 -3
BITMAP
00A000
00A000
00A000
0BFE40
39A2D0
B0A0B0
E0A074
D0A034
E0A074
B0A0B0
39A2D0
0BFE40
00A000
00A000
00A000
ENDCHAR
STARTCHAR chi
ENCODING 967
SWIDTH 481 0
DWIDTH 9 0
BBX 9 12 0 -3
BITMAP
700B00
380D00
1C2C00
0A3400
07B000
02D000
02D000
07B000
0A2800
1C1D00
340B00
B00340
ENDCHAR
STARTCHAR psi
ENCODING 968
SWIDTH 689 0
DWIDTH 12 0
BBX 11 15 1 -3
BITMAP
00B000
00B000
00B000
E0B0A0
A0B070
A0B074
A0B034
A0B074
A0B074
70B0B0
39B2D0
0BFE40
00B000
00B000
00B000
ENDCHAR
STARTCHAR omega
ENCODING 969
SWIDTH 701 0
DWIDTH 13 0
BBX 11 9 1 0
BITMAP
240090
7800B0
B00074
E06038
D07038
D07038
E07034
74E4B0
2F4BD0
ENDCHAR
STARTCHAR iotadieresis
ENCODING 970
SWIDTH 262 0
DWIDTH 5 0
BBX 6 12 -1 0
BITMAP
74A0
74A0
0000
0B00
0B00
0B00
0B00
0B00
0B00
0B00
0700
03C0
ENDCHAR
STARTCHAR upsilondieresis
ENCODING 971
SWIDTH 510 0
DWIDTH 9 0
BBX 7 12 1 0
BITMAP
34A0
34A0
0000
E038
A028
A01C
A01C
A01C
A01C
A02C
7474
1FD0
ENDCHAR
STARTCHAR omicrontonos
ENCODING 972
SWIDTH 535 0
DWIDTH 10 0
BBX 8 14 1 0
BITMAP
00D0
01C0
0280
0240
0000
1BE0
7868
A00D
D00E
D00A
D00E
A00D
7828
1BE0
ENDCHAR
STARTCHAR upsilontonos
ENCODING 973
SWIDTH 510 0
DWIDTH 9 0
BBX 7 14 1 0
BITMAP
0280
0280
0340
0300
0000
E038
A028
A01C
A01C
A01C
A01C
A02C
7474
1FD0
ENDCHAR
STARTCHAR omegatonos
ENCODING 974
SWIDTH 701 0
DWIDTH 13 0
BBX 11 14 1 0
BITMAP
002800
002800
003400
007000
000000
240090
7800B0
B00074
E06038
D07038
D07038
E07034
74E4B0
2F4BD0
ENDCHAR
STARTCHAR uni03D0
ENCODING 976
SWIDTH 560 0
DWIDTH 10 0
BBX 9 13 1 0
BITMAP
0BE000
382800
701C00
B01C00
B03800
B6E000
BFF800
B41E00
A00700
B00740
740700
2D1E00
0BF400
ENDCHAR
STARTCHAR uni03D1
ENCODING 977
SWIDTH 522 0
DWIDTH 9 0
BBX 8 13 1 0
BITMAP
1F90
7474
A028
A01C
B01D
395D
06ED
100D
701D
701C
7028
3874
1BD0
ENDCHAR
STARTCHAR uni03D5
ENCODING 981
SWIDTH 680 0
DWIDTH 12 0
BBX 11 12 1 -3
BITMAP
241F80
7434E0
B07070
E0A074
D0A034
D0A074
A0A0B0
79A6D0
0BFE00
00A000
00B000
00B000
ENDCHAR
STARTCHAR uni03D7
ENCODING 983
SWIDTH 494 0
DWIDTH 9 0
BBX 8 12 1 -3
BITMAP
B019
B078
B1D0
B380
BBC0
B8D0
B4B0
B038
B01E
000E
0028
00B0
ENDCHAR
STARTCHAR uni03D9
ENCODING 985
SWIDTH 535 0
DWIDTH 10 0
BBX 8 12 1 -3
BITMAP
1BE0
7868
A00D
D00E
D00A
D00E
A00D
786C
1BE0
0380
0380
0380
ENDCHAR
STARTCHAR uni03DB
ENCODING 987
SWIDTH 466 0
DWIDTH 8 0
BBX 7 12 1 -3
BITMAP
1BFC
7800
A000
D000
D000
E000
B000
7900
0BE0
0074
0034
0060
ENDCHAR
STARTCHAR uni03DD
ENCODING 989
SWIDTH 413 0
DWIDTH 7 0
BBX 6 12 1 -3
BITMAP
BFF0
B000
B000
B000
B000
BFE0
B000
B000
B000
B000
B000
B000
ENDCHAR
STARTCHAR uni03E1
ENCODING 993
SWIDTH 498 0
DWIDTH 9 0
BBX 9 16 0 -3
BITMAP
180000
1F0000
07C000
00E000
007400
007C00
06ED00
6E4A00
640B00
006F40
06E740
0E4340
000380
000340
000340
000340
ENDCHAR
STARTCHAR uni0400
ENCODING 1024
SWIDTH 527 0
DWIDTH 9 0
BBX 8 16 1 0
BITMAP
0900
0B40
0180
0000
7FFD
7000
7000
7000
7000
7FF8
7000
7000
7000
7000
7000
7FFE
ENDCHAR
STARTCHAR uni0401
ENCODING 1025
SWIDTH 527 0
DWIDTH 9 0
BBX 8 15 1 0
BITMAP
1C28
1C28
0000
7FFD
7000
7000
7000
7000
7FF8
7000
7000
7000
7000
7000
7FFE
ENDCHAR
STARTCHAR uni0402
ENCODING 1026
SWIDTH 687 0
DWIDTH 12 0
BBX 12 12 0 0
BITMAP
BFFFD0
01D000
01D000
01D000
01D000
01FFE0
01D07C
01D01D
01D00D
01D01D
01D02C
01D2E4
ENDCHAR
STARTCHAR uni0403
ENCODING 1027
SWIDTH 498 0
DWIDTH 9 0
BBX 8 16 1 0
BITMAP
0024
00A0
0180
0000
7FFD
7000
7000
7000
7000
7000
7000
7000
7000
7000
7000
7000
ENDCHAR
STARTCHAR uni0404
ENCODING 1028
SWIDTH 571 0
DWIDTH 10 0
BBX 9 12 1 0
BITMAP
06F900
2D0700
740000
A00000
E00000
FFF400
D00000
E00000
B00000
740000
2D0740
06F900
ENDCHAR
STARTCHAR uni0405
ENCODING 1029
SWIDTH 534 0
DWIDTH 10 0
BBX 8 12 1 0
BITMAP
1BE4
381D
B000
B000
7900
1F90
01B8
001E
000B
400A
E41D
2FE4
ENDCHAR
STARTCHAR uni0406
ENCODING 1030
SWIDTH 263 0
DWIDTH 5 0
BBX 2 12 1 0
BITMAP
70
70
70
70
70
70
70
70
70
70
70
70
ENDCHAR
STARTCHAR uni0407
ENCODING 1031
SWIDTH 263 0
DWIDTH 5 0
BBX 6 15 -1 0
BITMAP
7470
7470
0000
0700
0700
0700
0700
0700
0700
0700
0700
0700
0700
0700
0700
ENDCHAR
STARTCHAR uni0408
ENCODING 1032
SWIDTH 480 0
DWIDTH 9 0
BBX 7 12 0 0
BITMAP
001C
001C
001C
001C
001C
001C
001C
001C
001C
002C
7478
1BE0
ENDCHAR
STARTCHAR uni0409
ENCODING 1033
SWIDTH 903 0
DWIDTH 16 0
BBX 16 12 0 0
BITMAP
00FFD000
01C0D000
02C0D000
0280D000
0380D000
0340FFE0
0700D06C
0700D01D
0A00D00D
0E00D01D
1C00D078
B400FFA0
ENDCHAR
STARTCHAR uni040A
ENCODING 1034
SWIDTH 929 0
DWIDTH 17 0
BBX 15 12 1 0
BITMAP
7002C000
7002C000
7002C000
7002C000
7002C000
7FFFFF90
7002C0B4
7002C028
7002C02C
7002C028
7002C0B4
7002FF90
ENDCHAR
STARTCHAR uni040B
ENCODING 1035
SWIDTH 696 0
DWIDTH 13 0
BBX 12 12 0 0
BITMAP
BFFFD0
01D000
01D000
01D000
01D000
01FFE0
01D078
01D01D
01D01D
01D00D
01D00D
01D00D
ENDCHAR
STARTCHAR uni040C
ENCODING 1036
SWIDTH 580 0
DWIDTH 10 0
BBX 9 16 1 0
BITMAP
001800
007800
009000
000000
7002C0
700A00
701C00
703400
70A000
7FD000
70B000
703800
701D00
700B00
700340
7002C0
ENDCHAR
STARTCHAR uni040D
ENCODING 1037
SWIDTH 656 0
DWIDTH 12 0
BBX 10 16 1 0
BITMAP
020000
02D000
006000
000000
7002D0
7007D0
700AD0
701DD0
7035D0
70B1D0
70D1D0
7281D0
7741D0
7A01D0
7C01D0
7401D0
ENDCHAR
STARTCHAR uni040E
ENCODING 1038
SWIDTH 514 0
DWIDTH 9 0
BBX 9 16 0 0
BITMAP
0D0D00
0A1C00
02E400
000000
B001C0
740380
280740
1C0B00
0A0D00
071C00
036800
01F400
00E000
00D000
02C000
2E4000
ENDCHAR
STARTCHAR uni040F
ENCODING 1039
SWIDTH 645 0
DWIDTH 12 0
BBX 9 15 1 -3
BITMAP
7002C0
7002C0
7002C0
7002C0
7002C0
7002C0
7002C0
7002C0
7002C0
7002C0
7002C0
7FFFC0
00A000
00A000
00A000
ENDCHAR
STARTCHAR uni0410
ENCODING 1040
SWIDTH 544 0
DWIDTH 10 0
BBX 10 12 0 0
BITMAP
00F000
01B400
026800
035C00
070D00
0A0A00
0D0B00
1FFF40
280380
3402C0
7001D0
A000E0
ENDCHAR
STARTCHAR uni0411
ENCODING 1041
SWIDTH 580 0
DWIDTH 10 0
BBX 9 12 1 0
BITMAP
7FFF00
700000
700000
700000
700000
7AA400
755B00
700380
700280
700380
701B00
7FF800
ENDCHAR
STARTCHAR uni0412
ENCODING 1042
SWIDTH 588 0
DWIDTH 11 0
BBX 9 12 1 0
BITMAP
7FF800
701E00
700700
700700
701E00
7FF800
701B40
700280
700280
700380
701B40
7FF900
ENDCHAR
STARTCHAR uni0413
ENCODING 1043
SWIDTH 498 0
DWIDTH 9 0
BBX 8 12 1 0
BITMAP
7FFD
7000
7000
7000
7000
7000
7000
7000
7000
7000
7000
7000
ENDCHAR
STARTCHAR uni0414
ENCODING 1044
SWIDTH 638 0
DWIDTH 11 0
BBX 11 15 0 -3
BITMAP
01FFE0
0280A0
0280A0
0380A0
0340A0
0740A0
0700A0
0B00A0
0A00A0
0D00A0
2C00A0
BFFFFC
70001C
70001C
70001C
ENDCHAR
STARTCHAR uni0415
ENCODING 1045
SWIDTH 527 0
DWIDTH 9 0
BBX 8 12 1 0
BITMAP
7FFD
7000
7000
7000
7000
7FF8
7000
7000
7000
7000
7000
7FFE
ENDCHAR
STARTCHAR uni0416
ENCODING 1046
SWIDTH 805 0
DWIDTH 14 0
BBX 14 12 0 0
BITMAP
B40700B0
1D070280
0A070700
03470A00
02871D00
01FFFC00
03870D00
07070B00
0E070340
2C0702C0
380700E0
B00700B0
ENDCHAR
STARTCHAR uni0417
ENCODING 1047
SWIDTH 554 0
DWIDTH 10 0
BBX 9 12 1 0
BITMAP
2FE400
642D00
000E00
000E00
002C00
0BF400
001E00
000700
000740
400B00
E41D00
2FE400
ENDCHAR
STARTCHAR uni0418
ENCODING 1048
SWIDTH 656 0
DWIDTH 12 0
BBX 10 12 1 0
BITMAP
7002D0
7007D0
700AD0
701DD0
7035D0
70B1D0
70D1D0
7281D0
7741D0
7A01D0
7C01D0
7401D0
ENDCHAR
STARTCHAR uni0419
ENCODING 1049
SWIDTH 656 0
DWIDTH 12 0
BBX 10 16 1 0
BITMAP
0A0A00
071D00
02F800
000000
7002D0
7007D0
700AD0
701DD0
7035D0
70B1D0
70D1D0
7281D0
7741D0
7A01D0
7C01D0
7401D0
ENDCHAR
STARTCHAR uni041A
ENCODING 1050
SWIDTH 580 0
DWIDTH 10 0
BBX 9 12 1 0
BITMAP
7002C0
700A00
701C00
703400
70A000
7FD000
70B000
703800
701D00
700B00
700340
7002C0
ENDCHAR
STARTCHAR uni041B
ENCODING 1051
SWIDTH 630 0
DWIDTH 11 0
BBX 10 12 0 0
BITMAP
01FFE0
01C0A0
0280A0
0280A0
0340A0
0340A0
0700A0
0700A0
0A00A0
0D00A0
1C00A0
F400A0
ENDCHAR
STARTCHAR uni041C
ENCODING 1052
SWIDTH 727 0
DWIDTH 13 0
BBX 11 12 1 0
BITMAP
7800B4
7C00F4
7D01E4
7A02B4
770374
734734
728A34
70CD34
70AC34
707434
702034
700034
ENDCHAR
STARTCHAR uni041D
ENCODING 1053
SWIDTH 652 0
DWIDTH 12 0
BBX 9 12 1 0
BITMAP
7001C0
7001C0
7001C0
7001C0
7001C0
7FFFC0
7001C0
7001C0
7001C0
7001C0
7001C0
7001C0
ENDCHAR
STARTCHAR uni041E
ENCODING 1054
SWIDTH 664 0
DWIDTH 12 0
BBX 10 12 1 0
BITMAP
06F900
2D0740
7401D0
B000E0
E000B0
E000B0
E000B0
E000B0
B000E0
7401D0
2D0740
06F900
ENDCHAR
STARTCHAR uni041F
ENCODING 1055
SWIDTH 645 0
DWIDTH 12 0
BBX 9 12 1 0
BITMAP
7FFFC0
7002C0
7002C0
7002C0
7002C0
7002C0
7002C0
7002C0
7002C0
7002C0
7002C0
7002C0
ENDCHAR
STARTCHAR uni0420
ENCODING 1056
SWIDTH 566 0
DWIDTH 10 0
BBX 9 12 1 0
BITMAP
7FF800
701F00
700740
700340
700740
701E00
7FE400
700000
700000
700000
700000
700000
ENDCHAR
STARTCHAR uni0421
ENCODING 1057
SWIDTH 571 0
DWIDTH 10 0
BBX 9 12 1 0
BITMAP
06F900
1D0700
740000
B00000
E00000
E00000
E00000
E00000
B00000
740000
1D0740
06F900
ENDCHAR
STARTCHAR uni0422
ENCODING 1058
SWIDTH 536 0
DWIDTH 10 0
BBX 9 12 0 0
BITMAP
BFFFC0
00E000
00E000
00E000
00E000
00E000
00E000
00E000
00E000
00E000
00E000
00E000
ENDCHAR
STARTCHAR uni0423
ENCODING 1059
SWIDTH 514 0
DWIDTH 9 0
BBX 9 12 0 0
BITMAP
B001C0
740380
280740
1C0B00
0A0D00
071C00
036800
01F400
00E000
00D000
02C000
2E4000
ENDCHAR
STARTCHAR uni0424
ENCODING 1060
SWIDTH 732 0
DWIDTH 13 0
BBX 12 12 1 0
BITMAP
003400
003400
0BFF90
7935B4
E0342C
D0341D
D0341D
E0342C
7935B4
0BFF90
003400
003400
ENDCHAR
STARTCHAR uni0425
ENCODING 1061
SWIDTH 513 0
DWIDTH 9 0
BBX 9 12 0 0
BITMAP
740340
2C0B00
0D0D00
0B2800
03B400
01E000
02F000
077400
0A2C00
1D0E00
380700
700380
ENDCHAR
STARTCHAR uni0426
ENCODING 1062
SWIDTH 642 0
DWIDTH 12 0
BBX 10 15 1 -3
BITMAP
700280
700280
700280
700280
700280
700280
700280
700280
700280
700280
700280
7FFFF0
000070
000070
000070
ENDCHAR
STARTCHAR uni0427
ENCODING 1063
SWIDTH 598 0
DWIDTH 11 0
BBX 8 12 1 0
BITMAP
A007
A007
A007
A007
B007
7807
1BFF
0007
0007
0007
0007
0007
ENDCHAR
STARTCHAR uni0428
ENCODING 1064
SWIDTH 865 0
DWIDTH 16 0
BBX 13 12 1 0
BITMAP
700E02C0
700E02C0
700E02C0
700E02C0
700E02C0
700E02C0
700E02C0
700E02C0
700E02C0
700E02C0
700E02C0
7FFFFFC0
ENDCHAR
STARTCHAR uni0429
ENCODING 1065
SWIDTH 874 0
DWIDTH 16 0
BBX 15 15 1 -3
BITMAP
700E02C0
700E02C0
700E02C0
700E02C0
700E02C0
700E02C0
700E02C0
700E02C0
700E02C0
700E02C0
700E02C0
7FFFFFF4
00000074
00000074
00000070
ENDCHAR
STARTCHAR uni042A
ENCODING 1066
SWIDTH 720 0
DWIDTH 13 0
BBX 12 12 0 0
BITMAP
BFE000
00A000
00A000
00A000
00A000
00BFE4
00A01D
00A00B
00A007
00A00B
00A01E
00BFE4
ENDCHAR
STARTCHAR uni042B
ENCODING 1067
SWIDTH 798 0
DWIDTH 14 0
BBX 12 12 1 0
BITMAP
70000A
70000A
70000A
70000A
70000A
7FE40A
701E0A
70074A
70074A
70070A
701E0A
7FE40A
ENDCHAR
STARTCHAR uni042C
ENCODING 1068
SWIDTH 580 0
DWIDTH 10 0
BBX 9 12 1 0
BITMAP
700000
700000
700000
700000
700000
7FF800
701B00
700380
700380
700340
701B00
7FF800
ENDCHAR
STARTCHAR uni042D
ENCODING 1069
SWIDTH 571 0
DWIDTH 10 0
BBX 10 12 0 0
BITMAP
1BF800
281A00
000380
0001C0
0001D0
03FFD0
0001D0
0001D0
0002C0
000380
741A00
1BF800
ENDCHAR
STARTCHAR uni042E
ENCODING 1070
SWIDTH 908 0
DWIDTH 16 0
BBX 15 12 1 0
BITMAP
7002FE00
700A46C0
702C00E0
703800B0
70340074
7FF40074
70740074
70340074
702800B0
701C00E0
700B46C0
7001FE00
ENDCHAR
STARTCHAR uni042F
ENCODING 1071
SWIDTH 582 0
DWIDTH 10 0
BBX 9 12 0 0
BITMAP
06FFC0
1D02C0
3802C0
3802C0
2802C0
1E02C0
06FFC0
02C2C0
0742C0
0E02C0
2C02C0
7402C0
ENDCHAR
STARTCHAR uni0430
ENCODING 1072
SWIDTH 504 0
DWIDTH 9 0
BBX 7 9 1 0
BITMAP
2FD0
6474
0028
06F8
7928
E028
D028
A0B8
6E58
ENDCHAR
STARTCHAR uni0431
ENCODING 1073
SWIDTH 544 0
DWIDTH 10 0
BBX 8 14 1 0
BITMAP
0004
02BD
1E40
3400
B000
A000
EBE4
F42D
D00E
D00B
A00B
B00E
382C
0BE0
ENDCHAR
STARTCHAR uni0432
ENCODING 1074
SWIDTH 508 0
DWIDTH 9 0
BBX 8 9 1 0
BITMAP
BFE4
B02C
B01C
B028
BFF4
B02C
B00D
B02D
BFE4
ENDCHAR
STARTCHAR uni0433
ENCODING 1075
SWIDTH 411 0
DWIDTH 7 0
BBX 6 9 1 0
BITMAP
BFF0
B000
B000
B000
B000
B000
B000
B000
B000
ENDCHAR
STARTCHAR uni0434
ENCODING 1076
SWIDTH 532 0
DWIDTH 10 0
BBX 10 12 0 -3
BITMAP
0BFF00
0A0B00
090B00
0D0B00
0D0B00
1C0B00
1C0B00
280B00
BFFFD0
A001C0
A001C0
A001C0
ENDCHAR
STARTCHAR uni0435
ENCODING 1077
SWIDTH 496 0
DWIDTH 9 0
BBX 8 9 1 0
BITMAP
1BE0
7878
A01C
D00C
FFFD
D000
A000
7814
0BE4
ENDCHAR
STARTCHAR uni0436
ENCODING 1078
SWIDTH 681 0
DWIDTH 12 0
BBX 12 9 0 0
BITMAP
74180A
1C2824
0A2870
0728A0
03FFD0
0A28B0
1D2838
38281C
70280E
ENDCHAR
STARTCHAR uni0437
ENCODING 1079
SWIDTH 456 0
DWIDTH 8 0
BBX 7 9 1 0
BITMAP
6F80
90B0
0070
00A0
1FD0
0074
0034
90B4
AF90
ENDCHAR
STARTCHAR uni0438
ENCODING 1080
SWIDTH 565 0
DWIDTH 10 0
BBX 8 9 1 0
BITMAP
B00E
B02E
B07A
B0DA
B28A
B70A
A90A
B80A
B40A
ENDCHAR
STARTCHAR uni0439
ENCODING 1081
SWIDTH 565 0
DWIDTH 10 0
BBX 8 13 1 0
BITMAP
281C
1D28
07E0
0000
B00E
B02E
B07A
B0DA
B28A
B70A
A90A
B80A
B40A
ENDCHAR
STARTCHAR uni043A
ENCODING 1082
SWIDTH 498 0
DWIDTH 9 0
BBX 8 9 1 0
BITMAP
601D
B070
B090
B0C0
BFC0
B0D0
B070
B028
B01D
ENDCHAR
STARTCHAR uni043B
ENCODING 1083
SWIDTH 531 0
DWIDTH 10 0
BBX 8 9 0 0
BITMAP
07FF
0607
0A07
0A07
0907
0D07
0D07
1C07
B406
ENDCHAR
STARTCHAR uni043C
ENCODING 1084
SWIDTH 633 0
DWIDTH 11 0
BBX 9 9 1 0
BITMAP
B403C0
B807C0
AD0AC0
AA1DC0
A729C0
A375C0
A1F1C0
A0D1C0
A001C0
ENDCHAR
STARTCHAR uni043D
ENCODING 1085
SWIDTH 562 0
DWIDTH 10 0
BBX 8 9 1 0
BITMAP
B00E
B00E
B00E
B00E
BFFE
B00E
B00E
B00E
B00E
ENDCHAR
STARTCHAR uni043E
ENCODING 1086
SWIDTH 542 0
DWIDTH 10 0
BBX 8 9 1 0
BITMAP
1BE0
782C
A00E
D00A
D00B
D00A
A00E
782C
1BE0
ENDCHAR
STARTCHAR uni043F
ENCODING 1087
SWIDTH 553 0
DWIDTH 10 0
BBX 8 9 1 0
BITMAP
BFFD
B00D
B00D
B00D
B00D
B00D
B00D
B00D
B00D
ENDCHAR
STARTCHAR uni0440
ENCODING 1088
SWIDTH 555 0
DWIDTH 10 0
BBX 8 13 1 -4
BITMAP
A6F4
B91D
B00A
B007
B007
B00B
B00E
B82D
B7E4
B000
B000
B000
B000
ENDCHAR
STARTCHAR uni0441
ENCODING 1089
SWIDTH 456 0
DWIDTH 8 0
BBX 7 9 1 0
BITMAP
1BE4
7820
B000
E000
D000
D000
A000
7814
1BE4
ENDCHAR
STARTCHAR uni0442
ENCODING 1090
SWIDTH 460 0
DWIDTH 8 0
BBX 8 9 0 0
BITMAP
BFFE
02C0
02C0
02C0
02C0
02C0
02C0
02C0
02C0
ENDCHAR
STARTCHAR uni0443
ENCODING 1091
SWIDTH 467 0
DWIDTH 8 0
BBX 8 13 0 -4
BITMAP
B007
740A
280D
1C1C
0D28
0A34
0770
03E0
02D0
01C0
0280
0700
7900
ENDCHAR
STARTCHAR uni0444
ENCODING 1092
SWIDTH 734 0
DWIDTH 13 0
BBX 12 17 1 -4
BITMAP
003400
003400
003400
003400
1FBBE0
747878
A0341C
D0341D
D0341D
D0341D
E0342C
747878
2FBBE0
003400
003400
003400
003400
ENDCHAR
STARTCHAR uni0445
ENCODING 1093
SWIDTH 446 0
DWIDTH 8 0
BBX 8 9 0 0
BITMAP
741D
2C28
0E70
07E0
03C0
0AE0
1D74
2828
700D
ENDCHAR
STARTCHAR uni0446
ENCODING 1094
SWIDTH 554 0
DWIDTH 10 0
BBX 9 12 1 -3
BITMAP
B00D00
B00D00
B00D00
B00D00
B00D00
B00D00
B00D00
B00D00
BFFF80
000280
000280
000280
ENDCHAR
STARTCHAR uni0447
ENCODING 1095
SWIDTH 512 0
DWIDTH 9 0
BBX 7 9 1 0
BITMAP
E028
E028
E028
E028
B428
2FF8
0028
0028
0028
ENDCHAR
STARTCHAR uni0448
ENCODING 1096
SWIDTH 749 0
DWIDTH 13 0
BBX 11 9 1 0
BITMAP
B0341C
B0341C
B0341C
B0341C
B0341C
B0341C
B0341C
B0341C
BFFFFC
ENDCHAR
STARTCHAR uni0449
ENCODING 1097
SWIDTH 757 0
DWIDTH 14 0
BBX 13 12 1 -3
BITMAP
B0341C00
B0341C00
B0341C00
B0341C00
B0341C00
B0341C00
B0341C00
B0341C00
BFFFFF40
00000340
00000340
00000300
ENDCHAR
STARTCHAR uni044A
ENCODING 1098
SWIDTH 596 0
DWIDTH 11 0
BBX 10 9 0 0
BITMAP
BFC000
01C000
01C000
01C000
01FF80
01C1E0
01C0B0
01C1E0
01FF80
ENDCHAR
STARTCHAR uni044B
ENCODING 1099
SWIDTH 674 0
DWIDTH 12 0
BBX 10 9 1 0
BITMAP
B000A0
B000A0
B000A0
B000A0
BFD0A0
B074A0
B038A0
B074A0
BFD0A0
ENDCHAR
STARTCHAR uni044C
ENCODING 1100
SWIDTH 491 0
DWIDTH 9 0
BBX 7 9 1 0
BITMAP
B000
B000
B000
B000
BFE0
B028
B01C
B028
BFE0
ENDCHAR
STARTCHAR uni044D
ENCODING 1101
SWIDTH 456 0
DWIDTH 8 0
BBX 8 9 0 0
BITMAP
2FD0
2474
002C
001D
0FFD
000D
001C
6078
2F90
ENDCHAR
STARTCHAR uni044E
ENCODING 1102
SWIDTH 738 0
DWIDTH 13 0
BBX 12 9 1 0
BITMAP
B01BD0
B07478
B0A01C
B0D01D
BFD00D
B0D01D
B0A01C
B07478
B01BD0
ENDCHAR
STARTCHAR uni044F
ENCODING 1103
SWIDTH 514 0
DWIDTH 9 0
BBX 7 9 1 0
BITMAP
1FF8
7428
A028
B028
7428
1FF8
1D28
7428
E028
ENDCHAR
STARTCHAR uni0450
ENCODING 1104
SWIDTH 496 0
DWIDTH 9 0
BBX 8 14 1 0
BITMAP
1800
1D00
0740
0140
0000
1BE0
7878
A01C
D00C
FFFD
D000
A000
7814
0BE4
ENDCHAR
STARTCHAR uni0451
ENCODING 1105
SWIDTH 496 0
DWIDTH 9 0
BBX 8 12 1 0
BITMAP
2874
2874
0000
1BE0
7878
A01C
D00C
FFFD
D000
A000
7814
0BE4
ENDCHAR
STARTCHAR uni0452
ENCODING 1106
SWIDTH 548 0
DWIDTH 10 0
BBX 9 17 0 -4
BITMAP
2C0000
2C0000
BFF400
2C0000
2C0000
2CBD00
2E4740
2C0380
2C02C0
2C02C0
2C02C0
2C02C0
2C02C0
000280
000340
000B00
00B900
ENDCHAR
STARTCHAR uni0453
ENCODING 1107
SWIDTH 411 0
DWIDTH 7 0
BBX 6 14 1 0
BITMAP
0050
01E0
0380
0600
0000
BFF0
B000
B000
B000
B000
B000
B000
B000
B000
ENDCHAR
STARTCHAR uni0454
ENCODING 1108
SWIDTH 456 0
DWIDTH 8 0
BBX 7 9 1 0
BITMAP
1BE0
7820
A000
D000
FFD0
D000
E000
7414
1BE4
ENDCHAR
STARTCHAR uni0455
ENCODING 1109
SWIDTH 419 0
DWIDTH 8 0
BBX 7 9 0 0
BITMAP
0BE4
2824
3400
2D00
07E0
0078
002C
6428
1FE0
ENDCHAR
STARTCHAR uni0456
ENCODING 1110
SWIDTH 246 0
DWIDTH 4 0
BBX 2 13 1 0
BITMAP
A0
B0
00
00
B0
B0
B0
B0
B0
B0
B0
B0
B0
ENDCHAR
STARTCHAR uni0457
ENCODING 1111
SWIDTH 246 0
DWIDTH 4 0
BBX 6 12 -1 0
BITMAP
74A0
74A0
0000
0B00
0B00
0B00
0B00
0B00
0B00
0B00
0B00
0B00
ENDCHAR
STARTCHAR uni0458
ENCODING 1112
SWIDTH 247 0
DWIDTH 4 0
BBX 4 17 -1 -4
BITMAP
06
0B
00
00
0B
0B
0B
0B
0B
0B
0B
0B
0B
0B
0B
0A
B8
ENDCHAR
STARTCHAR uni0459
ENCODING 1113
SWIDTH 735 0
DWIDTH 13 0
BBX 13 9 0 0
BITMAP
07FF0000
070B0000
0A0B0000
0A0B0000
0A0BF900
090B0740
0D0B0340
1C0B0740
B40BF900
ENDCHAR
STARTCHAR uni045A
ENCODING 1114
SWIDTH 758 0
DWIDTH 14 0
BBX 12 9 1 0
BITMAP
B01D00
B01D00
B01D00
B01D00
BFFFF8
B01D1E
B01D0B
B01D1E
B01FF8
ENDCHAR
STARTCHAR uni045B
ENCODING 1115
SWIDTH 544 0
DWIDTH 10 0
BBX 9 13 0 0
BITMAP
2C0000
2C0000
BFF400
2C0000
2C0000
2DBE00
2E0740
2C0340
2C0340
2C0340
2C0340
2C0340
2C0340
ENDCHAR
STARTCHAR uni045C
ENCODING 1116
SWIDTH 498 0
DWIDTH 9 0
BBX 8 14 1 0
BITMAP
0020
00B4
01D0
0240
0000
601D
B070
B090
B0C0
BFC0
B0D0
B070
B028
B01D
ENDCHAR
STARTCHAR uni045D
ENCODING 1117
SWIDTH 565 0
DWIDTH 10 0
BBX 8 14 1 0
BITMAP
0800
0E00
0380
0180
0000
B00E
B02E
B07A
B0DA
B28A
B70A
A90A
B80A
B40A
ENDCHAR
STARTCHAR uni045E
ENCODING 1118
SWIDTH 467 0
DWIDTH 8 0
BBX 8 17 0 -4
BITMAP
180C
0D28
07E0
0000
B007
740A
280D
1C1C
0D28
0A34
0770
03E0
02D0
01C0
0280
0700
7900
ENDCHAR
STARTCHAR uni045F
ENCODING 1119
SWIDTH 558 0
DWIDTH 10 0
BBX 8 12 1 -3
BITMAP
B00E
B00E
B00E
B00E
B00E
B00E
B00E
B00E
BFFE
0280
0280
0280
ENDCHAR
STARTCHAR uni0462
ENCODING 1122
SWIDTH 614 0
DWIDTH 11 0
BBX 11 13 0 0
BITMAP
010000
038000
038000
BFFF80
038000
038000
03FE40
0381E0
038070
038074
038070
0381E0
03FE40
ENDCHAR
STARTCHAR uni0463
ENCODING 1123
SWIDTH 576 0
DWIDTH 10 0
BBX 10 11 0 0
BITMAP
028000
028000
BFFF00
028000
028000
028000
02FE40
0281D0
0280E0
0281D0
02FE40
ENDCHAR
STARTCHAR uni0472
ENCODING 1138
SWIDTH 664 0
DWIDTH 12 0
BBX 10 12 1 0
BITMAP
06F900
2D0780
7401D0
A000E0
E000B0
FFFFF0
D00070
E000B0
B000E0
7401D0
2D0780
06F900
ENDCHAR
STARTCHAR uni0473
ENCODING 1139
SWIDTH 542 0
DWIDTH 10 0
BBX 8 9 1 0
BITMAP
1BE0
782C
A00E
D00A
FFFF
D00A
A00E
742C
1BE0
ENDCHAR
STARTCHAR uni0474
ENCODING 1140
SWIDTH 529 0
DWIDTH 10 0
BBX 10 12 0 0
BITMAP
E000B0
B00280
740340
380700
2C0A00
1D0D00
0D1C00
0A2C00
072800
037400
02F000
01E000
ENDCHAR
STARTCHAR uni0475
ENCODING 1141
SWIDTH 477 0
DWIDTH 9 0
BBX 9 9 0 0
BITMAP
B00780
740A00
380C00
2C1800
1D2800
0E3400
0A7000
03A000
02D000
ENDCHAR
STARTCHAR uni0490
ENCODING 1168
SWIDTH 498 0
DWIDTH 9 0
BBX 8 15 1 0
BITMAP
000A
000A
000D
7FFD
7000
7000
7000
7000
7000
7000
7000
7000
7000
7000
7000
ENDCHAR
STARTCHAR uni0491
ENCODING 1169
SWIDTH 416 0
DWIDTH 7 0
BBX 6 12 1 0
BITMAP
0030
0070
0070
BFF0
B000
B000
B000
B000
B000
B000
B000
B000
ENDCHAR
STARTCHAR uni0492
ENCODING 1170
SWIDTH 521 0
DWIDTH 9 0
BBX 9 12 0 0
BITMAP
0FFF80
0E0000
0E0000
0E0000
0E0000
7FF400
0E0000
0E0000
0E0000
0E0000
0E0000
0E0000
ENDCHAR
STARTCHAR uni0493
ENCODING 1171
SWIDTH 424 0
DWIDTH 8 0
BBX 8 9 0 0
BITMAP
1FFD
1D00
1D00
1D00
7FE0
1D00
1D00
1D00
1D00
ENDCHAR
STARTCHAR uni0496
ENCODING 1174
SWIDTH 847 0
DWIDTH 15 0
BBX 15 15 0 -3
BITMAP
B40700B0
1D070280
0A070700
03470A00
02871D00
01FFFC00
03870D00
07070B00
0E070340
2C0702C0
380700D0
B00700B8
00000028
00000028
00000028
ENDCHAR
STARTCHAR uni0497
ENCODING 1175
SWIDTH 718 0
DWIDTH 13 0
BBX 13 12 0 -3
BITMAP
74280A00
1C282400
0A287000
0728A000
03FFD000
0A28B000
1D283400
38281C00
70280F80
00000380
00000380
00000340
ENDCHAR
STARTCHAR uni0498
ENCODING 1176
SWIDTH 554 0
DWIDTH 10 0
BBX 9 15 1 -3
BITMAP
2FE400
642D00
000E00
000E00
002C00
0BF400
001E00
000700
000740
400B00
E41E00
6FE400
028000
028000
028000
ENDCHAR
STARTCHAR uni0499
ENCODING 1177
SWIDTH 456 0
DWIDTH 8 0
BBX 7 12 1 -3
BITMAP
6F90
90B0
0070
00A0
1FD0
0074
0034
90B4
BF90
0A00
0A00
0A00
ENDCHAR
STARTCHAR uni049A
ENCODING 1178
SWIDTH 628 0
DWIDTH 11 0
BBX 10 15 1 -3
BITMAP
7002C0
700A00
701C00
703400
70A000
7FD000
70B000
703800
701C00
700A00
700340
7002E0
0000A0
0000A0
0000A0
ENDCHAR
STARTCHAR uni049B
ENCODING 1179
SWIDTH 536 0
DWIDTH 10 0
BBX 9 12 1 -3
BITMAP
B01D00
B07000
B09000
B0C000
BFC000
B0D000
B07000
B02800
B01F40
000340
000340
000340
ENDCHAR
STARTCHAR uni04A0
ENCODING 1184
SWIDTH 716 0
DWIDTH 13 0
BBX 13 12 0 0
BITMAP
BFE00740
00E01C00
00E03400
00E0A000
00E0D000
00FFC000
00E0D000
00E07000
00E03800
00E01D00
00E00B00
00E00380
ENDCHAR
STARTCHAR uni04A1
ENCODING 1185
SWIDTH 614 0
DWIDTH 11 0
BBX 11 9 0 0
BITMAP
BFC074
01C1C0
01C280
01C340
01FF00
01C380
01C1D0
01C0A0
01C034
ENDCHAR
STARTCHAR uni04A2
ENCODING 1186
SWIDTH 661 0
DWIDTH 12 0
BBX 11 15 1 -3
BITMAP
7001C0
7001C0
7001C0
7001C0
7001C0
7FFFC0
7001C0
7001C0
7001C0
7001C0
7001C0
7001F4
000034
000034
000034
ENDCHAR
STARTCHAR uni04A3
ENCODING 1187
SWIDTH 570 0
DWIDTH 10 0
BBX 9 12 1 -3
BITMAP
B00A00
B00A00
B00A00
B00A00
BFFE00
B00A00
B00A00
B00A00
B00BC0
0002C0
0002C0
000280
ENDCHAR
STARTCHAR uni04AA
ENCODING 1194
SWIDTH 571 0
DWIDTH 10 0
BBX 9 15 1 -3
BITMAP
06F900
1D0700
740000
B00000
E00000
E00000
E00000
E00000
B00000
740000
2D0740
06F900
00A000
00A000
00A000
ENDCHAR
STARTCHAR uni04AB
ENCODING 1195
SWIDTH 456 0
DWIDTH 8 0
BBX 7 12 1 -3
BITMAP
1BE4
7820
B000
E000
D000
D000
A000
7814
1BE4
0380
0280
0240
ENDCHAR
STARTCHAR uni04AE
ENCODING 1198
SWIDTH 476 0
DWIDTH 9 0
BBX 9 12 0 0
BITMAP
A00740
740B00
280D00
1C2C00
0E3400
07B000
03D000
02C000
01C000
01C000
01C000
01C000
ENDCHAR
STARTCHAR uni04AF
ENCODING 1199
SWIDTH 467 0
DWIDTH 8 0
BBX 8 13 0 -4
BITMAP
B007
740A
380D
2C1C
0D28
0A34
0770
03A0
02C0
01C0
01C0
01C0
01C0
ENDCHAR
STARTCHAR uni04B0
ENCODING 1200
SWIDTH 476 0
DWIDTH 9 0
BBX 9 12 0 0
BITMAP
A00740
740B00
380D00
1C2C00
0E3800
07B000
03E000
3FFE00
01C000
01C000
01C000
01C000
ENDCHAR
STARTCHAR uni04B1
ENCODING 1201
SWIDTH 467 0
DWIDTH 8 0
BBX 8 13 0 -4
BITMAP
B007
740A
380D
2C1C
0D28
0A34
0770
03A0
2FFD
01C0
01C0
01C0
01C0
ENDCHAR
STARTCHAR uni04B2
ENCODING 1202
SWIDTH 551 0
DWIDTH 10 0
BBX 10 15 0 -3
BITMAP
740340
2C0B00
0D0D00
0B2C00
03B400
02E000
02E000
077400
0A2C00
1D0D00
380700
7003D0
0000D0
0000D0
0000D0
ENDCHAR
STARTCHAR uni04B3
ENCODING 1203
SWIDTH 482 0
DWIDTH 9 0
BBX 9 12 0 -3
BITMAP
741D00
2C2800
0E7000
07E000
03C000
0AE000
1D7000
282800
700F40
000340
000340
000340
ENDCHAR
STARTCHAR uni04B6
ENCODING 1206
SWIDTH 607 0
DWIDTH 11 0
BBX 10 15 1 -3
BITMAP
A00700
A00700
A00700
A00700
B00700
780700
1BFF00
000700
000700
000700
000700
0007D0
0000D0
0000D0
0000D0
ENDCHAR
STARTCHAR uni04B7
ENCODING 1207
SWIDTH 520 0
DWIDTH 9 0
BBX 8 12 1 -3
BITMAP
E028
E028
E028
E028
B428
2FF8
0028
0028
002F
0007
0007
0007
ENDCHAR
STARTCHAR uni04BA
ENCODING 1210
SWIDTH 598 0
DWIDTH 11 0
BBX 9 12 1 0
BITMAP
700000
700000
700000
700000
700000
7FF800
741B00
700340
700380
700380
700380
700380
ENDCHAR
STARTCHAR uni04BB
ENCODING 1211
SWIDTH 544 0
DWIDTH 10 0
BBX 8 13 1 0
BITMAP
B000
B000
B000
B000
B2F4
B92C
B00D
B00D
B00D
B00D
B00D
B00D
B00D
ENDCHAR
STARTCHAR uni04C0
ENCODING 1216
SWIDTH 263 0
DWIDTH 5 0
BBX 2 12 1 0
BITMAP
70
70
70
70
70
70
70
70
70
70
70
70
ENDCHAR
STARTCHAR uni04C1
ENCODING 1217
SWIDTH 805 0
DWIDTH 14 0
BBX 14 16 0 0
BITMAP
00707000
0034A000
001F8000
00000000
B40700B0
1D070280
0A070700
03470A00
02871D00
01FFFC00
03870D00
07070B00
0E070340
2C0702C0
380700E0
B00700B0
ENDCHAR
STARTCHAR uni04C2
ENCODING 1218
SWIDTH 681 0
DWIDTH 12 0
BBX 12 13 0 0
BITMAP
0281C0
01D280
007E00
000000
74180A
1C2824
0A2870
0728A0
03FFD0
0A28B0
1D2838
38281C
70280E
ENDCHAR
STARTCHAR uni04CF
ENCODING 1231
SWIDTH 255 0
DWIDTH 5 0
BBX 3 13 1 0
BITMAP
B0
B0
B0
B0
B0
B0
B0
B0
B0
B0
B0
70
38
ENDCHAR
STARTCHAR uni04D0
ENCODING 1232
SWIDTH 544 0
DWIDTH 10 0
BBX 10 16 0 0
BITMAP
0A0A00
071D00
02F400
000000
00F000
01B400
026800
035C00
070D00
0A0A00
0D0B00
1FFF40
280380
3402C0
7001D0
A000E0
ENDCHAR
STARTCHAR uni04D1
ENCODING 1233
SWIDTH 504 0
DWIDTH 9 0
BBX 7 13 1 0
BITMAP
3424
2870
0BD0
0000
2FD0
6474
0028
06F8
7928
E028
D028
A0B8
6E58
ENDCHAR
STARTCHAR uni04D4
ENCODING 1236
SWIDTH 822 0
DWIDTH 15 0
BBX 14 12 0 0
BITMAP
000FFFE0
001F8000
00368000
00728000
00D28000
02C2FFC0
03428000
0BFF8000
0D028000
2C028000
34028000
B002FFF0
ENDCHAR
STARTCHAR uni04D5
ENCODING 1237
SWIDTH 785 0
DWIDTH 14 0
BBX 13 9 1 0
BITMAP
2FD1F800
647A0A00
002C0340
01BC0340
2EAFFF40
B42C0000
E02D0000
A0BB4500
2F82F900
ENDCHAR
STARTCHAR uni04D6
ENCODING 1238
SWIDTH 527 0
DWIDTH 9 0
BBX 8 16 1 0
BITMAP
2828
1D34
07E0
0000
7FFD
7000
7000
7000
7000
7FF8
7000
7000
7000
7000
7000
7FFE
ENDCHAR
STARTCHAR uni04D7
ENCODING 1239
SWIDTH 496 0
DWIDTH 9 0
BBX 8 13 1 0
BITMAP
3428
2874
0BD0
0000
1BE0
7878
A01C
D00C
FFFD
D000
A000
7814
0BE4
ENDCHAR
STARTCHAR uni04D8
ENCODING 1240
SWIDTH 658 0
DWIDTH 12 0
BBX 10 12 1 0
BITMAP
0BF900
190780
0001D0
0000E0
0000A0
0000B0
FFFFF0
E000A0
B000E0
7401C0
2D0740
06F900
ENDCHAR
STARTCHAR uni04D9
ENCODING 1241
SWIDTH 496 0
DWIDTH 9 0
BBX 8 9 0 0
BITMAP
1BE4
142D
000A
0007
7FFF
7007
340A
291D
0BE4
ENDCHAR
STARTCHAR uni04E2
ENCODING 1250
SWIDTH 656 0
DWIDTH 12 0
BBX 10 14 1 0
BITMAP
07FD00
000000
7002D0
7007D0
700AD0
701DD0
7035D0
70B1D0
70D1D0
7281D0
7741D0
7A01D0
7C01D0
7401D0
ENDCHAR
STARTCHAR uni04E3
ENCODING 1251
SWIDTH 565 0
DWIDTH 10 0
BBX 8 12 1 0
BITMAP
1FF8
0000
0000
B00E
B02E
B07A
B0DA
B28A
B70A
A90A
B80A
B40A
ENDCHAR
STARTCHAR uni04E6
ENCODING 1254
SWIDTH 664 0
DWIDTH 12 0
BBX 10 15 1 0
BITMAP
0A0D00
0A0D00
000000
06F900
2D0740
7401D0
B000E0
E000B0
E000B0
E000B0
E000B0
B000E0
7401D0
2D0740
06F900
ENDCHAR
STARTCHAR uni04E7
ENCODING 1255
SWIDTH 542 0
DWIDTH 10 0
BBX 8 12 1 0
BITMAP
2834
2834
0000
1BE0
782C
A00E
D00A
D00B
D00A
A00E
782C
1BE0
ENDCHAR
STARTCHAR uni04E8
ENCODING 1256
SWIDTH 664 0
DWIDTH 12 0
BBX 10 12 1 0
BITMAP
06F900
2D0780
7401D0
A000E0
E000B0
FFFFF0
D00070
E000B0
B000E0
7401D0
2D0780
06F900
ENDCHAR
STARTCHAR uni04E9
ENCODING 1257
SWIDTH 542 0
DWIDTH 10 0
BBX 8 9 1 0
BITMAP
1BE0
782C
A00E
D00A
FFFF
D00A
A00E
742C
1BE0
ENDCHAR
STARTCHAR uni04EE
ENCODING 1262
SWIDTH 514 0
DWIDTH 9 0
BBX 9 14 0 0
BITMAP
0FFC00
000000
B001C0
740380
280740
1C0B00
0A0D00
071C00
036800
01F400
00E000
00D000
02C000
2E4000
ENDCHAR
STARTCHAR uni04EF
ENCODING 1263
SWIDTH 467 0
DWIDTH 8 0
BBX 8 16 0 -4
BITMAP
0FF8
0000
0000
B007
740A
280D
1C1C
0D28
0A34
0770
03E0
02D0
01C0
0280
0700
7900
ENDCHAR
STARTCHAR uni04F2
ENCODING 1266
SWIDTH 514 0
DWIDTH 9 0
BBX 9 16 0 0
BITMAP
008200
028A00
021800
000000
B001C0
740380
280740
1C0B00
0A0D00
071C00
036800
01F400
00E000
00D000
02C000
2E4000
ENDCHAR
STARTCHAR uni04F3
ENCODING 1267
SWIDTH 467 0
DWIDTH 8 0
BBX 8 18 0 -4
BITMAP
0005
008A
025C
0214
0000
B007
740A
280D
1C1C
0D28
0A34
0770
03E0
02D0
01C0
0280
0700
7900
ENDCHAR
STARTCHAR a.sups
ENCODING 7491
SWIDTH 345 0
DWIDTH 6 0
BBX 6 6 0 7
BITMAP
1F80
10D0
1BD0
3490
71D0
2E90
ENDCHAR
STARTCHAR b.sups
ENCODING 7495
SWIDTH 374 0
DWIDTH 7 0
BBX 5 9 1 7
BITMAP
C000
C000
C000
EF40
D1C0
C0C0
C0C0
D280
EE00
ENDCHAR
STARTCHAR d.sups
ENCODING 7496
SWIDTH 374 0
DWIDTH 7 0
BBX 6 9 0 7
BITMAP
0060
0060
0060
1FA0
34A0
6060
6060
34A0
1F60
ENDCHAR
STARTCHAR e.sups
ENCODING 7497
SWIDTH 336 0
DWIDTH 6 0
BBX 6 6 0 7
BITMAP
1F80
2090
7FE0
6000
3440
1F80
ENDCHAR
STARTCHAR g.sups
ENCODING 7501
SWIDTH 343 0
DWIDTH 6 0
BBX 6 9 0 4
BITMAP
1FE0
70D0
30C0
2F40
3000
2FD0
6070
60A0
2F80
ENDCHAR
STARTCHAR k.sups
ENCODING 7503
SWIDTH 337 0
DWIDTH 6 0
BBX 5 9 1 7
BITMAP
C000
C000
C000
C340
C900
EC00
E900
C700
C280
ENDCHAR
STARTCHAR m.sups
ENCODING 7504
SWIDTH 559 0
DWIDTH 10 0
BBX 9 6 1 7
BITMAP
9F6E00
D2D700
C28340
C28340
C28340
C28340
ENDCHAR
STARTCHAR o.sups
ENCODING 7506
SWIDTH 365 0
DWIDTH 7 0
BBX 6 6 0 7
BITMAP
1F80
34A0
6070
6070
34A0
1F80
ENDCHAR
STARTCHAR p.sups
ENCODING 7510
SWIDTH 374 0
DWIDTH 7 0
BBX 5 8 1 5
BITMAP
EF40
D1C0
C0C0
C0C0
D280
EE00
C000
C000
ENDCHAR
STARTCHAR t.sups
ENCODING 7511
SWIDTH 232 0
DWIDTH 4 0
BBX 4 8 0 7
BITMAP
24
24
BF
34
34
34
24
1F
ENDCHAR
STARTCHAR u.sups
ENCODING 7512
SWIDTH 370 0
DWIDTH 7 0
BBX 5 6 1 7
BITMAP
C180
C180
C180
C180
D280
7980
ENDCHAR
STARTCHAR v.sups
ENCODING 7515
SWIDTH 321 0
DWIDTH 6 0
BBX 6 6 0 7
BITMAP
9090
60C0
3180
2640
1B00
0E00
ENDCHAR
STARTCHAR c.sups
ENCODING 7580
SWIDTH 306 0
DWIDTH 6 0
BBX 5 6 0 7
BITMAP
1B80
3440
6000
6000
3440
1F80
ENDCHAR
STARTCHAR f.sups
ENCODING 7584
SWIDTH 201 0
DWIDTH 4 0
BBX 4 9 0 7
BITMAP
1E
24
34
BD
34
34
34
34
34
ENDCHAR
STARTCHAR z.sups
ENCODING 7611
SWIDTH 290 0
DWIDTH 5 0
BBX 5 6 0 7
BITMAP
7F80
0340
0A00
1C00
7400
BFC0
ENDCHAR
STARTCHAR uni1E06
ENCODING 7686
SWIDTH 588 0
DWIDTH 11 0
BBX 9 15 1 -3
BITMAP
7FF800
701E00
700700
700700
701E00
7FF800
701B40
700280
700280
700380
701B40
7FF900
000000
000000
0FF800
ENDCHAR
STARTCHAR uni1E07
ENCODING 7687
SWIDTH 553 0
DWIDTH 10 0
BBX 8 16 1 -3
BITMAP
B000
B000
B000
B000
B6F4
B91D
B00A
B007
B007
B00B
B00E
B82D
A7E4
0000
0000
1FF4
ENDCHAR
STARTCHAR uni1E0C
ENCODING 7692
SWIDTH 615 0
DWIDTH 11 0
BBX 9 15 1 -3
BITMAP
7FE400
701E00
700740
700280
7002C0
7001C0
7001C0
7002C0
700280
700740
701E00
7FE400
000000
01D000
01D000
ENDCHAR
STARTCHAR uni1E0D
ENCODING 7693
SWIDTH 555 0
DWIDTH 10 0
BBX 8 16 1 -3
BITMAP
000E
000E
000E
000E
1BDE
782E
B00E
E00E
D00E
D00E
E00E
742E
1F9A
0000
01D0
01D0
ENDCHAR
STARTCHAR uni1E0E
ENCODING 7694
SWIDTH 615 0
DWIDTH 11 0
BBX 9 15 1 -3
BITMAP
7FE400
701E00
700740
700280
7002C0
7001C0
7001C0
7002C0
700280
700740
701E00
7FE400
000000
000000
0FFC00
ENDCHAR
STARTCHAR uni1E0F
ENCODING 7695
SWIDTH 555 0
DWIDTH 10 0
BBX 8 16 1 -3
BITMAP
000E
000E
000E
000E
1BDE
782E
B00E
E00E
D00E
D00E
E00E
742E
1F9A
0000
0000
0FF8
ENDCHAR
STARTCHAR uni1E16
ENCODING 7702
SWIDTH 527 0
DWIDTH 9 0
BBX 8 18 1 0
BITMAP
0060
01E0
0240
0000
1FF4
0000
7FFD
7000
7000
7000
7000
7FF8
7000
7000
7000
7000
7000
7FFE
ENDCHAR
STARTCHAR uni1E17
ENCODING 7703
SWIDTH 496 0
DWIDTH 9 0
BBX 8 15 1 0
BITMAP
0090
0240
0000
2FF0
0000
0000
1BE0
7878
A01C
D00C
FFFD
D000
A000
7814
0BE4
ENDCHAR
STARTCHAR uni1E20
ENCODING 7712
SWIDTH 617 0
DWIDTH 11 0
BBX 9 14 1 0
BITMAP
03FE00
000000
06FE00
1E0640
740000
B00000
E00000
E00000
E03FC0
E001C0
B001C0
7401C0
1E06C0
06FE00
ENDCHAR
STARTCHAR uni1E21
ENCODING 7713
SWIDTH 504 0
DWIDTH 9 0
BBX 8 16 1 -4
BITMAP
2FF4
0000
0000
1FFE
7474
A028
A028
7470
3B90
A000
A000
3FF9
900A
D00A
E42D
2FE4
ENDCHAR
STARTCHAR uni1E24
ENCODING 7716
SWIDTH 652 0
DWIDTH 12 0
BBX 9 15 1 -3
BITMAP
7001C0
7001C0
7001C0
7001C0
7001C0
7FFFC0
7001C0
7001C0
7001C0
7001C0
7001C0
7001C0
000000
00E000
00E000
ENDCHAR
STARTCHAR uni1E25
ENCODING 7717
SWIDTH 544 0
DWIDTH 10 0
BBX 8 16 1 -3
BITMAP
B000
B000
B000
B000
B2F4
B92C
B00D
B00D
B00D
B00D
B00D
B00D
B00D
0000
02C0
02C0
ENDCHAR
STARTCHAR uni1E2A
ENCODING 7722
SWIDTH 652 0
DWIDTH 12 0
BBX 9 16 1 -4
BITMAP
7001C0
7001C0
7001C0
7001C0
7001C0
7FFFC0
7001C0
7001C0
7001C0
7001C0
7001C0
7001C0
000000
080600
0A1D00
02F400
ENDCHAR
STARTCHAR uni1E2B
ENCODING 7723
SWIDTH 544 0
DWIDTH 10 0
BBX 8 17 1 -4
BITMAP
B000
B000
B000
B000
B2F4
B92C
B00D
B00D
B00D
B00D
B00D
B00D
B00D
0000
2408
1D28
07E0
ENDCHAR
STARTCHAR uni1E32
ENCODING 7730
SWIDTH 579 0
DWIDTH 10 0
BBX 9 15 1 -3
BITMAP
700740
701E00
703800
70B000
72D000
7BE000
7E7400
783800
701D00
700B00
700740
7002C0
000000
00E000
00E000
ENDCHAR
STARTCHAR uni1E33
ENCODING 7731
SWIDTH 495 0
DWIDTH 9 0
BBX 8 16 1 -3
BITMAP
B000
B000
B000
B000
B02C
B074
B1D0
B380
BBC0
BCE0
B074
B028
B01D
0000
0380
0380
ENDCHAR
STARTCHAR uni1E34
ENCODING 7732
SWIDTH 579 0
DWIDTH 10 0
BBX 9 15 1 -3
BITMAP
700740
701E00
703800
70B000
72D000
7BE000
7E7400
783800
701D00
700B00
700740
7002C0
000000
000000
0BFD00
ENDCHAR
STARTCHAR uni1E35
ENCODING 7733
SWIDTH 495 0
DWIDTH 9 0
BBX 8 16 1 -3
BITMAP
B000
B000
B000
B000
B02C
B074
B1D0
B380
BBC0
BCE0
B074
B028
B01D
0000
0000
2FF4
ENDCHAR
STARTCHAR uni1E36
ENCODING 7734
SWIDTH 486 0
DWIDTH 9 0
BBX 8 15 1 -3
BITMAP
7000
7000
7000
7000
7000
7000
7000
7000
7000
7000
7000
7FFD
0000
02C0
02C0
ENDCHAR
STARTCHAR uni1E37
ENCODING 7735
SWIDTH 255 0
DWIDTH 5 0
BBX 3 16 1 -3
BITMAP
B0
B0
B0
B0
B0
B0
B0
B0
B0
B0
B0
70
38
00
38
38
ENDCHAR
STARTCHAR uni1E38
ENCODING 7736
SWIDTH 486 0
DWIDTH 9 0
BBX 9 17 0 -3
BITMAP
FF8000
000000
1C0000
1C0000
1C0000
1C0000
1C0000
1C0000
1C0000
1C0000
1C0000
1C0000
1C0000
1FFF40
000000
00B000
00B000
ENDCHAR
STARTCHAR uni1E39
ENCODING 7737
SWIDTH 255 0
DWIDTH 5 0
BBX 6 19 -1 -3
BITMAP
7FE0
0000
0000
0B00
0B00
0B00
0B00
0B00
0B00
0B00
0B00
0B00
0B00
0B00
0700
0380
0000
0380
0380
ENDCHAR
STARTCHAR uni1E3A
ENCODING 7738
SWIDTH 486 0
DWIDTH 9 0
BBX 8 15 1 -3
BITMAP
7000
7000
7000
7000
7000
7000
7000
7000
7000
7000
7000
7FFD
0000
0000
1FF8
ENDCHAR
STARTCHAR uni1E3B
ENCODING 7739
SWIDTH 255 0
DWIDTH 5 0
BBX 6 16 0 -3
BITMAP
2C00
2C00
2C00
2C00
2C00
2C00
2C00
2C00
2C00
2C00
2C00
1C00
0E00
0000
0000
BFD0
ENDCHAR
STARTCHAR uni1E3E
ENCODING 7742
SWIDTH 727 0
DWIDTH 13 0
BBX 11 16 1 0
BITMAP
000600
002D00
006000
000000
7800B4
7C00F4
7D01E4
7A02B4
770374
734734
728A34
70CD34
70AC34
707434
702034
700034
ENDCHAR
STARTCHAR uni1E3F
ENCODING 7743
SWIDTH 829 0
DWIDTH 15 0
BBX 13 14 1 0
BITMAP
00018000
00038000
000E0000
00180000
00000000
A6F4BD00
B82E4740
B01D0340
B01D0380
B01D0380
B01D0380
B01D0380
B01D0380
B01D0380
ENDCHAR
STARTCHAR uni1E40
ENCODING 7744
SWIDTH 727 0
DWIDTH 13 0
BBX 11 15 1 0
BITMAP
007400
007400
000000
7800B4
7C00F4
7D01E4
7A02B4
770374
734734
728A34
70CD34
70AC34
707434
702034
700034
ENDCHAR
STARTCHAR uni1E41
ENCODING 7745
SWIDTH 829 0
DWIDTH 15 0
BBX 13 13 1 0
BITMAP
001D0000
001D0000
00000000
00000000
A6F4BD00
B82E4740
B01D0340
B01D0380
B01D0380
B01D0380
B01D0380
B01D0380
B01D0380
ENDCHAR
STARTCHAR uni1E42
ENCODING 7746
SWIDTH 727 0
DWIDTH 13 0
BBX 11 15 1 -3
BITMAP
7800B4
7C00F4
7D01E4
7A02B4
770374
734734
728A34
70CD34
70AC34
707434
702034
700034
000000
007400
007400
ENDCHAR
STARTCHAR uni1E43
ENCODING 7747
SWIDTH 829 0
DWIDTH 15 0
BBX 13 12 1 -3
BITMAP
A6F4BD00
B82E4740
B01D0340
B01D0380
B01D0380
B01D0380
B01D0380
B01D0380
B01D0380
00000000
000D0000
000D0000
ENDCHAR
STARTCHAR uni1E44
ENCODING 7748
SWIDTH 647 0
DWIDTH 12 0
BBX 9 15 1 0
BITMAP
00E000
00E000
000000
7401C0
7C01C0
7A01C0
7701C0
7281C0
71D1C0
70A1C0
7035C0
702DC0
700EC0
7007C0
7002C0
ENDCHAR
STARTCHAR uni1E45
ENCODING 7749
SWIDTH 547 0
DWIDTH 10 0
BBX 8 13 1 0
BITMAP
02C0
02C0
0000
0000
A6F4
B92C
B00D
B00D
B00D
B00D
B00D
B00D
B00D
ENDCHAR
STARTCHAR uni1E46
ENCODING 7750
SWIDTH 647 0
DWIDTH 12 0
BBX 9 15 1 -3
BITMAP
7401C0
7C01C0
7A01C0
7701C0
7281C0
71D1C0
70A1C0
7035C0
702DC0
700EC0
7007C0
7002C0
000000
00A000
00E000
ENDCHAR
STARTCHAR uni1E47
ENCODING 7751
SWIDTH 547 0
DWIDTH 10 0
BBX 8 12 1 -3
BITMAP
A6F4
B92C
B00D
B00D
B00D
B00D
B00D
B00D
B00D
0000
0280
0280
ENDCHAR
STARTCHAR uni1E48
ENCODING 7752
SWIDTH 647 0
DWIDTH 12 0
BBX 9 15 1 -3
BITMAP
7401C0
7C01C0
7A01C0
7701C0
7281C0
71D1C0
70A1C0
7035C0
702DC0
700EC0
7007C0
7002C0
000000
000000
07FD00
ENDCHAR
STARTCHAR uni1E49
ENCODING 7753
SWIDTH 547 0
DWIDTH 10 0
BBX 8 12 1 -3
BITMAP
A6F4
B92C
B00D
B00D
B00D
B00D
B00D
B00D
B00D
0000
0000
1FF4
ENDCHAR
STARTCHAR uni1E52
ENCODING 7762
SWIDTH 664 0
DWIDTH 12 0
BBX 10 18 1 0
BITMAP
001800
007400
009000
000000
07FD00
000000
06F900
2D0740
7401D0
B000E0
E000B0
E000B0
E000B0
E000B0
B000E0
7401D0
2D0740
06F900
ENDCHAR
STARTCHAR uni1E53
ENCODING 7763
SWIDTH 542 0
DWIDTH 10 0
BBX 8 15 1 0
BITMAP
0090
0240
0000
2FF4
0000
0000
1BE0
782C
A00E
D00A
D00B
D00A
A00E
782C
1BE0
ENDCHAR
STARTCHAR uni1E58
ENCODING 7768
SWIDTH 569 0
DWIDTH 10 0
BBX 9 15 1 0
BITMAP
02C000
02C000
000000
7FF800
701B00
700740
700340
700740
701E00
7FF800
707000
703800
701D00
700B00
700780
ENDCHAR
STARTCHAR uni1E59
ENCODING 7769
SWIDTH 347 0
DWIDTH 6 0
BBX 5 13 1 0
BITMAP
0E00
0E00
0000
0000
A6C0
B800
B000
B000
B000
B000
B000
B000
B000
ENDCHAR
STARTCHAR uni1E5A
ENCODING 7770
SWIDTH 569 0
DWIDTH 10 0
BBX 9 15 1 -3
BITMAP
7FF800
701B00
700740
700340
700740
701E00
7FF800
707000
703800
701D00
700B00
700780
000000
01D000
01D000
ENDCHAR
STARTCHAR uni1E5B
ENCODING 7771
SWIDTH 347 0
DWIDTH 6 0
BBX 5 12 1 -3
BITMAP
A6C0
B800
B000
B000
B000
B000
B000
B000
B000
0000
B000
B000
ENDCHAR
STARTCHAR uni1E5C
ENCODING 7772
SWIDTH 569 0
DWIDTH 10 0
BBX 9 17 1 -3
BITMAP
1FF800
000000
7FF800
701B00
700740
700340
700740
701E00
7FF800
707000
703800
701D00
700B00
700780
000000
01D000
01D000
ENDCHAR
STARTCHAR uni1E5D
ENCODING 7773
SWIDTH 347 0
DWIDTH 6 0
BBX 6 15 1 -3
BITMAP
7FD0
0000
0000
A6C0
B800
B000
B000
B000
B000
B000
B000
B000
0000
B000
B000
ENDCHAR
STARTCHAR uni1E5E
ENCODING 7774
SWIDTH 569 0
DWIDTH 10 0
BBX 9 15 1 -3
BITMAP
7FF800
701B00
700740
700340
700740
701E00
7FF800
707000
703800
701D00
700B00
700780
000000
000000
0FFC00
ENDCHAR
STARTCHAR uni1E5F
ENCODING 7775
SWIDTH 347 0
DWIDTH 6 0
BBX 7 12 -1 -3
BITMAP
0A6C
0B80
0B00
0B00
0B00
0B00
0B00
0B00
0B00
0000
0000
7FE0
ENDCHAR
STARTCHAR uni1E60
ENCODING 7776
SWIDTH 534 0
DWIDTH 10 0
BBX 8 15 1 0
BITMAP
0280
0280
0000
1BE4
381D
B000
B000
7900
1F90
01B8
001E
000B
400A
E41D
2FE4
ENDCHAR
STARTCHAR uni1E61
ENCODING 7777
SWIDTH 419 0
DWIDTH 8 0
BBX 7 13 0 0
BITMAP
0280
0280
0000
0000
0BE4
2824
3400
2D00
07E0
0078
002C
6428
1FE0
ENDCHAR
STARTCHAR uni1E62
ENCODING 7778
SWIDTH 534 0
DWIDTH 10 0
BBX 8 15 1 -3
BITMAP
1BE4
381D
B000
B000
7900
1F90
01B8
001E
000B
400A
E41D
2FE4
0000
0280
0380
ENDCHAR
STARTCHAR uni1E63
ENCODING 7779
SWIDTH 419 0
DWIDTH 8 0
BBX 7 12 0 -3
BITMAP
0BE4
2824
3400
2D00
07E0
0078
002C
6428
1FE0
0000
0280
0280
ENDCHAR
STARTCHAR uni1E6C
ENCODING 7788
SWIDTH 536 0
DWIDTH 10 0
BBX 9 15 0 -3
BITMAP
BFFFC0
00E000
00E000
00E000
00E000
00E000
00E000
00E000
00E000
00E000
00E000
00E000
000000
00E000
00E000
ENDCHAR
STARTCHAR uni1E6D
ENCODING 7789
SWIDTH 338 0
DWIDTH 6 0
BBX 6 15 0 -3
BITMAP
0D00
0D00
1D00
BFE0
1D00
1D00
1D00
1D00
1D00
1D00
0E00
07E0
0000
0380
0380
ENDCHAR
STARTCHAR uni1E6E
ENCODING 7790
SWIDTH 536 0
DWIDTH 10 0
BBX 9 15 0 -3
BITMAP
BFFFC0
00E000
00E000
00E000
00E000
00E000
00E000
00E000
00E000
00E000
00E000
00E000
000000
000000
0BFD00
ENDCHAR
STARTCHAR uni1E6F
ENCODING 7791
SWIDTH 338 0
DWIDTH 6 0
BBX 7 15 0 -3
BITMAP
0D00
0D00
1D00
BFE0
1D00
1D00
1D00
1D00
1D00
1D00
0E00
07E0
0000
0000
2FF4
ENDCHAR
STARTCHAR Wgrave
ENCODING 7808
SWIDTH 786 0
DWIDTH 14 0
BBX 14 16 0 0
BITMAP
00240000
002D0000
00060000
00000000
700B00A0
740F40D0
341E41D0
381A81C0
2825C280
1C34D280
1D70D340
0D60A340
0AA07700
0AD03A00
07C03E00
07802D00
ENDCHAR
STARTCHAR wgrave
ENCODING 7809
SWIDTH 718 0
DWIDTH 13 0
BBX 13 14 0 0
BITMAP
00900000
00B40000
002C0000
00090000
00000000
701D0340
342E0700
383B0B00
28330A00
1C624D00
0D929C00
0AD1D800
0BC0F800
0780B400
ENDCHAR
STARTCHAR Wacute
ENCODING 7810
SWIDTH 786 0
DWIDTH 14 0
BBX 14 16 0 0
BITMAP
00008000
00038000
00090000
00000000
700B00A0
740F40D0
341E41D0
381A81C0
2825C280
1C34D280
1D70D340
0D60A340
0AA07700
0AD03A00
07C03E00
07802D00
ENDCHAR
STARTCHAR wacute
ENCODING 7811
SWIDTH 718 0
DWIDTH 13 0
BBX 13 14 0 0
BITMAP
00018000
00078000
000E0000
00180000
00000000
701D0340
342E0700
383B0B00
28330A00
1C624D00
0D929C00
0AD1D800
0BC0F800
0780B400
ENDCHAR
STARTCHAR Wdieresis
ENCODING 7812
SWIDTH 786 0
DWIDTH 14 0
BBX 14 15 0 0
BITMAP
0070A000
0070A000
00000000
700B00A0
740F40D0
341E41D0
381A81C0
2825C280
1C34D280
1D70D340
0D60A340
0AA07700
0AD03A00
07C03E00
07802D00
ENDCHAR
STARTCHAR wdieresis
ENCODING 7813
SWIDTH 718 0
DWIDTH 13 0
BBX 13 12 0 0
BITMAP
00D1C000
00D1C000
00000000
701D0340
342E0700
383B0B00
28330A00
1C624D00
0D929C00
0AD1D800
0BC0F800
0780B400
ENDCHAR
STARTCHAR uni1E8E
ENCODING 7822
SWIDTH 476 0
DWIDTH 9 0
BBX 9 15 0 0
BITMAP
02C000
02C000
000000
A00740
740B00
280D00
1C2C00
0E3400
07B000
03D000
02C000
01C000
01C000
01C000
01C000
ENDCHAR
STARTCHAR uni1E8F
ENCODING 7823
SWIDTH 467 0
DWIDTH 8 0
BBX 8 17 0 -4
BITMAP
01C0
01C0
0000
0000
B007
740A
280D
1C1C
0D28
0A34
0770
03E0
02D0
01C0
0280
0700
7900
ENDCHAR
STARTCHAR uni1E92
ENCODING 7826
SWIDTH 539 0
DWIDTH 10 0
BBX 9 15 0 -3
BITMAP
2FFFC0
000780
000F00
002D00
007800
00B000
01D000
038000
0B4000
1E0000
3C0000
7FFFC0
000000
00A000
00A000
ENDCHAR
STARTCHAR uni1E93
ENCODING 7827
SWIDTH 425 0
DWIDTH 8 0
BBX 8 12 0 -3
BITMAP
3FFC
0078
00B0
01D0
0380
0B00
1D00
3800
7FFD
0000
02C0
02C0
ENDCHAR
STARTCHAR uni1E94
ENCODING 7828
SWIDTH 539 0
DWIDTH 10 0
BBX 9 15 0 -3
BITMAP
2FFFC0
000780
000F00
002D00
007800
00B000
01D000
038000
0B4000
1E0000
3C0000
7FFFC0
000000
000000
07FD00
ENDCHAR
STARTCHAR uni1E95
ENCODING 7829
SWIDTH 425 0
DWIDTH 8 0
BBX 8 12 0 -3
BITMAP
3FFC
0078
00B0
01D0
0380
0B00
1D00
3800
7FFD
0000
0000
1FF8
ENDCHAR
STARTCHAR uni1E96
ENCODING 7830
SWIDTH 544 0
DWIDTH 10 0
BBX 8 16 1 -3
BITMAP
B000
B000
B000
B000
B2F4
B92C
B00D
B00D
B00D
B00D
B00D
B00D
B00D
0000
0000
1FF8
ENDCHAR
STARTCHAR uni1E97
ENCODING 7831
SWIDTH 338 0
DWIDTH 6 0
BBX 6 14 0 0
BITMAP
A1C0
A1C0
0D00
0D00
1D00
BFE0
1D00
1D00
1D00
1D00
1D00
1D00
0E00
07E0
ENDCHAR
STARTCHAR uni1E9E
ENCODING 7838
SWIDTH 667 0
DWIDTH 12 0
BBX 11 12 1 0
BITMAP
06F900
1E0740
3802C0
740740
741E00
702D00
701BD0
7000F0
700074
700070
7091E0
707F80
ENDCHAR
STARTCHAR uni1EA0
ENCODING 7840
SWIDTH 544 0
DWIDTH 10 0
BBX 10 15 0 -3
BITMAP
00F000
01B400
026800
035C00
070D00
0A0A00
0D0B00
1FFF40
280380
3402C0
7001D0
A000E0
000000
00E000
00E000
ENDCHAR
STARTCHAR uni1EA1
ENCODING 7841
SWIDTH 504 0
DWIDTH 9 0
BBX 7 12 1 -3
BITMAP
2FD0
6474
0028
06F8
7928
E028
D028
A0B8
6E58
0000
0740
0740
ENDCHAR
STARTCHAR uni1EA2
ENCODING 7842
SWIDTH 544 0
DWIDTH 10 0
BBX 10 17 0 0
BITMAP
01E000
007400
007000
009000
000000
00F000
01B400
026800
035C00
070D00
0A0A00
0D0B00
1FFF40
280380
3402C0
7001D0
A000E0
ENDCHAR
STARTCHAR uni1EA3
ENCODING 7843
SWIDTH 504 0
DWIDTH 9 0
BBX 7 14 1 0
BITMAP
0740
01C0
01C0
0240
0000
2FD0
6474
0028
06F8
7928
E028
D028
A0B8
6E58
ENDCHAR
STARTCHAR uni1EA4
ENCODING 7844
SWIDTH 544 0
DWIDTH 10 0
BBX 10 16 0 0
BITMAP
000180
01F600
065800
000000
00F000
01B400
026800
035C00
070D00
0A0A00
0D0B00
1FFF40
280380
3402C0
7001D0
A000E0
ENDCHAR
STARTCHAR uni1EA5
ENCODING 7845
SWIDTH 504 0
DWIDTH 9 0
BBX 8 14 1 0
BITMAP
0006
078D
1DB8
1010
0000
2FD0
6474
0028
06F8
7928
E028
D028
A0B8
6E58
ENDCHAR
STARTCHAR uni1EA6
ENCODING 7846
SWIDTH 544 0
DWIDTH 10 0
BBX 10 16 0 0
BITMAP
240000
09F000
065800
000000
00F000
01B400
026800
035C00
070D00
0A0A00
0D0B00
1FFF40
280380
3402C0
7001D0
A000E0
ENDCHAR
STARTCHAR uni1EA7
ENCODING 7847
SWIDTH 504 0
DWIDTH 9 0
BBX 8 14 0 0
BITMAP
6000
35E0
1F68
0404
0000
0BF4
191D
000A
01BE
1E4A
380A
340A
282E
1B96
ENDCHAR
STARTCHAR uni1EA8
ENCODING 7848
SWIDTH 544 0
DWIDTH 10 0
BBX 10 17 0 0
BITMAP
000A40
000280
01F640
065800
000000
00F000
01B400
026800
035C00
070D00
0A0A00
0D0B00
1FFF40
280380
3402C0
7001D0
A000E0
ENDCHAR
STARTCHAR uni1EA9
ENCODING 7849
SWIDTH 504 0
DWIDTH 9 0
BBX 8 15 1 0
BITMAP
0028
0009
0798
1DA0
1010
0000
2FD0
6474
0028
06F8
7928
E028
D028
A0B8
6E58
ENDCHAR
STARTCHAR uni1EAA
ENCODING 7850
SWIDTH 544 0
DWIDTH 10 0
BBX 10 18 0 0
BITMAP
079500
097C00
000000
01F000
065800
000000
00F000
01B400
026800
035C00
070D00
0A0A00
0D0B00
1FFF40
280380
3402C0
7001D0
A000E0
ENDCHAR
STARTCHAR uni1EAB
ENCODING 7851
SWIDTH 504 0
DWIDTH 9 0
BBX 7 15 1 0
BITMAP
1A20
26E0
0000
0780
1DA0
1010
2FD0
6474
0028
06F8
7928
E028
D028
A0B8
6E58
ENDCHAR
STARTCHAR uni1EAC
ENCODING 7852
SWIDTH 544 0
DWIDTH 10 0
BBX 10 19 0 -3
BITMAP
01F000
036800
090900
000000
00F000
01B400
026800
035C00
070D00
0A0A00
0D0B00
1FFF40
280380
3402C0
7001D0
A000E0
000000
00E000
00E000
ENDCHAR
STARTCHAR uni1EAD
ENCODING 7853
SWIDTH 504 0
DWIDTH 9 0
BBX 7 16 1 -3
BITMAP
0780
1DA0
2424
0000
2FD0
6474
0028
06F8
7928
E028
D028
A0B8
6E58
0000
0740
0740
ENDCHAR
STARTCHAR uni1EAE
ENCODING 7854
SWIDTH 544 0
DWIDTH 10 0
BBX 10 18 0 0
BITMAP
001400
007400
099500
061C00
02F400
000000
00F000
01B400
026800
035C00
070D00
0A0A00
0D0B00
1FFF40
280380
3402C0
7001D0
A000E0
ENDCHAR
STARTCHAR uni1EAF
ENCODING 7855
SWIDTH 504 0
DWIDTH 9 0
BBX 7 15 1 0
BITMAP
0080
0180
3224
2870
0BD0
0000
2FD0
6474
0028
06F8
7928
E028
D028
A0B8
6E58
ENDCHAR
STARTCHAR uni1EB0
ENCODING 7856
SWIDTH 544 0
DWIDTH 10 0
BBX 10 18 0 0
BITMAP
024000
01C000
099500
061C00
02F400
000000
00F000
01B400
026800
035C00
070D00
0A0A00
0D0B00
1FFF40
280380
3402C0
7001D0
A000E0
ENDCHAR
STARTCHAR uni1EB1
ENCODING 7857
SWIDTH 504 0
DWIDTH 9 0
BBX 7 15 1 0
BITMAP
0900
0700
3264
2870
0BD0
0000
2FD0
6474
0028
06F8
7928
E028
D028
A0B8
6E58
ENDCHAR
STARTCHAR uni1EB2
ENCODING 7858
SWIDTH 544 0
DWIDTH 10 0
BBX 10 18 0 0
BITMAP
00E000
007000
09A500
061C00
02F400
000000
00F000
01B400
026800
035C00
070D00
0A0A00
0D0B00
1FFF40
280380
3402C0
7001D0
A000E0
ENDCHAR
STARTCHAR uni1EB3
ENCODING 7859
SWIDTH 504 0
DWIDTH 9 0
BBX 7 15 1 0
BITMAP
0740
01C0
3264
2870
0BD0
0000
2FD0
6474
0028
06F8
7928
E028
D028
A0B8
6E58
ENDCHAR
STARTCHAR uni1EB4
ENCODING 7860
SWIDTH 544 0
DWIDTH 10 0
BBX 10 18 0 0
BITMAP
079500
097C00
000000
090900
02F800
000000
00F000
01B400
026800
035C00
070D00
0A0A00
0D0B00
1FFF40
280380
3402C0
7001D0
A000E0
ENDCHAR
STARTCHAR uni1EB5
ENCODING 7861
SWIDTH 504 0
DWIDTH 9 0
BBX 7 15 1 0
BITMAP
1A20
26E0
0000
2430
0BD0
0000
2FD0
6474
0028
06F8
7928
E028
D028
A0B8
6E58
ENDCHAR
STARTCHAR uni1EB6
ENCODING 7862
SWIDTH 544 0
DWIDTH 10 0
BBX 10 19 0 -3
BITMAP
090900
061C00
02F400
000000
00F000
01B400
026800
035C00
070D00
0A0A00
0D0B00
1FFF40
280380
3402C0
7001D0
A000E0
000000
00E000
00E000
ENDCHAR
STARTCHAR uni1EB7
ENCODING 7863
SWIDTH 504 0
DWIDTH 9 0
BBX 7 16 1 -3
BITMAP
3024
2870
0BD0
0000
2FD0
6474
0028
06F8
7928
E028
D028
A0B8
6E58
0000
0740
0740
ENDCHAR
STARTCHAR uni1EB8
ENCODING 7864
SWIDTH 527 0
DWIDTH 9 0
BBX 8 15 1 -3
BITMAP
7FFD
7000
7000
7000
7000
7FF8
7000
7000
7000
7000
7000
7FFE
0000
01C0
01C0
ENDCHAR
STARTCHAR uni1EB9
ENCODING 7865
SWIDTH 496 0
DWIDTH 9 0
BBX 8 12 1 -3
BITMAP
1BE0
7878
A01C
D00C
FFFD
D000
A000
7814
0BE4
0000
0340
0340
ENDCHAR
STARTCHAR uni1EBA
ENCODING 7866
SWIDTH 527 0
DWIDTH 9 0
BBX 8 17 1 0
BITMAP
0380
0090
0090
0280
0000
7FFD
7000
7000
7000
7000
7FF8
7000
7000
7000
7000
7000
7FFE
ENDCHAR
STARTCHAR uni1EBB
ENCODING 7867
SWIDTH 496 0
DWIDTH 9 0
BBX 8 14 1 0
BITMAP
0740
01C0
01C0
0240
0000
1BE0
7878
A01C
D00C
FFFD
D000
A000
7814
0BE4
ENDCHAR
STARTCHAR uni1EBC
ENCODING 7868
SWIDTH 527 0
DWIDTH 9 0
BBX 8 15 1 0
BITMAP
2F4D
30B8
0000
7FFD
7000
7000
7000
7000
7FF8
7000
7000
7000
7000
7000
7FFE
ENDCHAR
STARTCHAR uni1EBD
ENCODING 7869
SWIDTH 496 0
DWIDTH 9 0
BBX 8 13 1 0
BITMAP
0404
3B58
61F4
0000
1BE0
7878
A01C
D00C
FFFD
D000
A000
7814
0BE4
ENDCHAR
STARTCHAR uni1EBE
ENCODING 7870
SWIDTH 527 0
DWIDTH 9 0
BBX 8 16 1 0
BITMAP
0006
07D8
0960
0000
7FFD
7000
7000
7000
7000
7FF8
7000
7000
7000
7000
7000
7FFE
ENDCHAR
STARTCHAR uni1EBF
ENCODING 7871
SWIDTH 496 0
DWIDTH 9 0
BBX 8 14 1 0
BITMAP
0006
0789
1DB8
1010
0000
1BE0
7878
A01C
D00C
FFFD
D000
A000
7814
0BE4
ENDCHAR
STARTCHAR uni1EC0
ENCODING 7872
SWIDTH 527 0
DWIDTH 9 0
BBX 8 16 1 0
BITMAP
5000
27D0
0960
0000
7FFD
7000
7000
7000
7000
7FF8
7000
7000
7000
7000
7000
7FFE
ENDCHAR
STARTCHAR uni1EC1
ENCODING 7873
SWIDTH 496 0
DWIDTH 9 0
BBX 9 14 0 0
BITMAP
600000
35E000
0F6800
040400
000000
06F800
1E1E00
280700
340300
3FFF40
340000
280000
1E0500
02F900
ENDCHAR
STARTCHAR uni1EC2
ENCODING 7874
SWIDTH 527 0
DWIDTH 9 0
BBX 8 17 1 0
BITMAP
001D
0006
07D9
0960
0000
7FFD
7000
7000
7000
7000
7FF8
7000
7000
7000
7000
7000
7FFE
ENDCHAR
STARTCHAR uni1EC3
ENCODING 7875
SWIDTH 496 0
DWIDTH 9 0
BBX 8 15 1 0
BITMAP
0028
0009
0798
1DA0
1010
0000
1BE0
7878
A01C
D00C
FFFD
D000
A000
7814
0BE4
ENDCHAR
STARTCHAR uni1EC4
ENCODING 7876
SWIDTH 527 0
DWIDTH 9 0
BBX 8 18 1 0
BITMAP
0F58
15B4
0000
07D0
0960
0000
7FFD
7000
7000
7000
7000
7FF8
7000
7000
7000
7000
7000
7FFE
ENDCHAR
STARTCHAR uni1EC5
ENCODING 7877
SWIDTH 496 0
DWIDTH 9 0
BBX 8 15 1 0
BITMAP
1A20
25E0
0000
0780
1DA0
1010
1BE0
7878
A01C
D00C
FFFD
D000
A000
7814
0BE4
ENDCHAR
STARTCHAR uni1EC6
ENCODING 7878
SWIDTH 527 0
DWIDTH 9 0
BBX 8 19 1 -3
BITMAP
03D0
0A70
1818
0000
7FFD
7000
7000
7000
7000
7FF8
7000
7000
7000
7000
7000
7FFE
0000
01C0
01C0
ENDCHAR
STARTCHAR uni1EC7
ENCODING 7879
SWIDTH 496 0
DWIDTH 9 0
BBX 8 16 1 -3
BITMAP
07C0
1DA0
2424
0000
1BE0
7878
A01C
D00C
FFFD
D000
A000
7814
0BE4
0000
0340
0340
ENDCHAR
STARTCHAR uni1EC8
ENCODING 7880
SWIDTH 263 0
DWIDTH 5 0
BBX 3 17 1 0
BITMAP
A0
28
28
60
00
70
70
70
70
70
70
70
70
70
70
70
70
ENDCHAR
STARTCHAR uni1EC9
ENCODING 7881
SWIDTH 246 0
DWIDTH 4 0
BBX 3 14 1 0
BITMAP
E0
28
28
60
00
B0
B0
B0
B0
B0
B0
B0
B0
B0
ENDCHAR
STARTCHAR uni1ECA
ENCODING 7882
SWIDTH 263 0
DWIDTH 5 0
BBX 3 15 1 -3
BITMAP
70
70
70
70
70
70
70
70
70
70
70
70
00
74
74
ENDCHAR
STARTCHAR uni1ECB
ENCODING 7883
SWIDTH 246 0
DWIDTH 4 0
BBX 2 16 1 -3
BITMAP
A0
B0
00
00
B0
B0
B0
B0
B0
B0
B0
B0
B0
00
B0
B0
ENDCHAR
STARTCHAR uni1ECC
ENCODING 7884
SWIDTH 664 0
DWIDTH 12 0
BBX 10 15 1 -3
BITMAP
06F900
2D0740
7401D0
B000E0
E000B0
E000B0
E000B0
E000B0
B000E0
7401D0
2D0740
06F900
000000
00A000
00A000
ENDCHAR
STARTCHAR uni1ECD
ENCODING 7885
SWIDTH 542 0
DWIDTH 10 0
BBX 8 12 1 -3
BITMAP
1BE0
782C
A00E
D00A
D00B
D00A
A00E
782C
1BE0
0000
0380
0380
ENDCHAR
STARTCHAR uni1ECE
ENCODING 7886
SWIDTH 664 0
DWIDTH 12 0
BBX 10 17 1 0
BITMAP
01E000
003400
003400
00A000
000000
06F900
2D0740
7401D0
B000E0
E000B0
E000B0
E000B0
E000B0
B000E0
7401D0
2D0740
06F900
ENDCHAR
STARTCHAR uni1ECF
ENCODING 7887
SWIDTH 542 0
DWIDTH 10 0
BBX 8 14 1 0
BITMAP
0740
01D0
01D0
0240
0000
1BE0
782C
A00E
D00A
D00B
D00A
A00E
782C
1BE0
ENDCHAR
STARTCHAR uni1ED0
ENCODING 7888
SWIDTH 664 0
DWIDTH 12 0
BBX 10 16 1 0
BITMAP
000180
01F600
025800
000000
06F900
2D0740
7401D0
B000E0
E000B0
E000B0
E000B0
E000B0
B000E0
7401D0
2D0740
06F900
ENDCHAR
STARTCHAR uni1ED1
ENCODING 7889
SWIDTH 542 0
DWIDTH 10 0
BBX 8 14 1 0
BITMAP
0002
07C9
0DB8
0410
0000
1BE0
782C
A00E
D00A
D00B
D00A
A00E
782C
1BE0
ENDCHAR
STARTCHAR uni1ED2
ENCODING 7890
SWIDTH 664 0
DWIDTH 12 0
BBX 10 16 1 0
BITMAP
240000
09F400
025800
000000
06F900
2D0740
7401D0
B000E0
E000B0
E000B0
E000B0
E000B0
B000E0
7401D0
2D0740
06F900
ENDCHAR
STARTCHAR uni1ED3
ENCODING 7891
SWIDTH 542 0
DWIDTH 10 0
BBX 9 14 0 0
BITMAP
600000
25F000
0F6800
010400
000000
06F800
1E0B00
280380
340280
3402C0
340280
280380
1E0B00
06F800
ENDCHAR
STARTCHAR uni1ED4
ENCODING 7892
SWIDTH 664 0
DWIDTH 12 0
BBX 10 17 1 0
BITMAP
000A40
000280
01F640
025800
000000
06F900
2D0740
7401D0
B000E0
E000B0
E000B0
E000B0
E000B0
B000E0
7401D0
2D0740
06F900
ENDCHAR
STARTCHAR uni1ED5
ENCODING 7893
SWIDTH 542 0
DWIDTH 10 0
BBX 8 15 1 0
BITMAP
0029
000A
07D9
0DA0
0410
0000
1BE0
782C
A00E
D00A
D00B
D00A
A00E
782C
1BE0
ENDCHAR
STARTCHAR uni1ED6
ENCODING 7894
SWIDTH 664 0
DWIDTH 12 0
BBX 10 18 1 0
BITMAP
079500
097D00
000000
01F400
025800
000000
06F900
2D0740
7401D0
B000E0
E000B0
E000B0
E000B0
E000B0
B000E0
7401D0
2D0740
06F900
ENDCHAR
STARTCHAR uni1ED7
ENCODING 7895
SWIDTH 542 0
DWIDTH 10 0
BBX 8 15 1 0
BITMAP
0A14
15E0
0000
07C0
0DA0
0410
1BE0
782C
A00E
D00A
D00B
D00A
A00E
782C
1BE0
ENDCHAR
STARTCHAR uni1ED8
ENCODING 7896
SWIDTH 664 0
DWIDTH 12 0
BBX 10 19 1 -3
BITMAP
01F400
036C00
050900
000000
06F900
2D0740
7401D0
B000E0
E000B0
E000B0
E000B0
E000B0
B000E0
7401D0
2D0740
06F900
000000
00A000
00A000
ENDCHAR
STARTCHAR uni1ED9
ENCODING 7897
SWIDTH 542 0
DWIDTH 10 0
BBX 8 16 1 -3
BITMAP
07C0
1DA0
2424
0000
1BE0
782C
A00E
D00A
D00B
D00A
A00E
782C
1BE0
0000
0380
0380
ENDCHAR
STARTCHAR uni1EDA
ENCODING 7898
SWIDTH 664 0
DWIDTH 12 0
BBX 10 16 1 0
BITMAP
000800
007820
009070
000070
06FE90
1D0780
7401D0
B000E0
E000B0
E000B0
E000B0
E000B0
B000E0
7401D0
1D0740
06F900
ENDCHAR
STARTCHAR uni1EDB
ENCODING 7899
SWIDTH 542 0
DWIDTH 10 0
BBX 9 14 1 0
BITMAP
002000
00B000
02C240
024340
000340
1BE900
782C00
A00E00
D00B00
D00B00
D00A00
A00D00
782C00
1BE000
ENDCHAR
STARTCHAR uni1EDC
ENCODING 7900
SWIDTH 664 0
DWIDTH 12 0
BBX 10 16 1 0
BITMAP
020000
02D020
006070
000070
06FE90
1D0780
7401D0
B000E0
E000B0
E000B0
E000B0
E000B0
B000E0
7401D0
1D0740
06F900
ENDCHAR
STARTCHAR uni1EDD
ENCODING 7901
SWIDTH 542 0
DWIDTH 10 0
BBX 9 14 1 0
BITMAP
180000
1E0000
074240
018340
000340
1BE900
782C00
A00E00
D00B00
D00B00
D00A00
A00D00
782C00
1BE000
ENDCHAR
STARTCHAR uni1EDE
ENCODING 7902
SWIDTH 664 0
DWIDTH 12 0
BBX 10 17 1 0
BITMAP
01E000
003400
003420
00A070
000070
06FE90
1D0780
7401D0
B000E0
E000B0
E000B0
E000B0
E000B0
B000E0
7401D0
1D0740
06F900
ENDCHAR
STARTCHAR uni1EDF
ENCODING 7903
SWIDTH 542 0
DWIDTH 10 0
BBX 9 14 1 0
BITMAP
074000
01D000
01D240
024340
000340
1BE900
782C00
A00E00
D00B00
D00B00
D00A00
A00D00
782C00
1BE000
ENDCHAR
STARTCHAR uni1EE0
ENCODING 7904
SWIDTH 664 0
DWIDTH 12 0
BBX 10 15 1 0
BITMAP
0BD720
186D70
000070
06FE90
1D0780
7401D0
B000E0
E000B0
E000B0
E000B0
E000B0
B000E0
7401D0
1D0740
06F900
ENDCHAR
STARTCHAR uni1EE1
ENCODING 7905
SWIDTH 542 0
DWIDTH 10 0
BBX 9 13 1 0
BITMAP
140400
7B6A40
61F340
000340
1BE900
782C00
A00E00
D00B00
D00B00
D00A00
A00D00
782C00
1BE000
ENDCHAR
STARTCHAR uni1EE2
ENCODING 7906
SWIDTH 664 0
DWIDTH 12 0
BBX 10 18 1 -3
BITMAP
000020
000070
000070
06FE90
1D0780
7401D0
B000E0
E000B0
E000B0
E000B0
E000B0
B000E0
7401D0
1D0740
06F900
000000
00A000
00A000
ENDCHAR
STARTCHAR uni1EE3
ENCODING 7907
SWIDTH 542 0
DWIDTH 10 0
BBX 9 15 1 -3
BITMAP
000240
000340
000340
1BE900
782C00
A00E00
D00B00
D00B00
D00A00
A00D00
782C00
1BE000
000000
038000
038000
ENDCHAR
STARTCHAR uni1EE4
ENCODING 7908
SWIDTH 645 0
DWIDTH 12 0
BBX 9 15 1 -3
BITMAP
7001C0
7001C0
7001C0
7001C0
7001C0
7001C0
7001C0
7001C0
7402C0
340280
1D0B00
06F900
000000
00E000
00E000
ENDCHAR
STARTCHAR uni1EE5
ENCODING 7909
SWIDTH 544 0
DWIDTH 10 0
BBX 8 12 1 -3
BITMAP
B00D
B00D
B00D
B00D
B00D
B00D
B01D
746D
2F8D
0000
02C0
02C0
ENDCHAR
STARTCHAR uni1EE6
ENCODING 7910
SWIDTH 645 0
DWIDTH 12 0
BBX 9 17 1 0
BITMAP
01D000
007000
007000
009000
000000
7001C0
7001C0
7001C0
7001C0
7001C0
7001C0
7001C0
7001C0
7402C0
340280
1D0B00
06F900
ENDCHAR
STARTCHAR uni1EE7
ENCODING 7911
SWIDTH 544 0
DWIDTH 10 0
BBX 8 14 1 0
BITMAP
0740
01D0
01D0
0240
0000
B00D
B00D
B00D
B00D
B00D
B00D
B01D
746D
2F8D
ENDCHAR
STARTCHAR uni1EE8
ENCODING 7912
SWIDTH 659 0
DWIDTH 12 0
BBX 11 16 1 0
BITMAP
001800
007818
00901C
000028
7001E0
7001C0
7001C0
7001C0
7001C0
7001C0
7001C0
7001C0
7402C0
340280
1D0B40
06F900
ENDCHAR
STARTCHAR uni1EE9
ENCODING 7913
SWIDTH 544 0
DWIDTH 10 0
BBX 9 14 1 0
BITMAP
002000
00B000
02C1C0
0201C0
000280
B00E00
B00D00
B00D00
B00D00
B00D00
B00D00
B01D00
746D00
2F8D00
ENDCHAR
STARTCHAR uni1EEA
ENCODING 7914
SWIDTH 659 0
DWIDTH 12 0
BBX 11 16 1 0
BITMAP
060000
028018
00901C
000028
7001E0
7001C0
7001C0
7001C0
7001C0
7001C0
7001C0
7001C0
7402C0
340280
1D0B40
06F900
ENDCHAR
STARTCHAR uni1EEB
ENCODING 7915
SWIDTH 544 0
DWIDTH 10 0
BBX 9 14 1 0
BITMAP
180000
1D0000
0741C0
0141C0
000280
B00E00
B00D00
B00D00
B00D00
B00D00
B00D00
B01D00
746D00
2F8D00
ENDCHAR
STARTCHAR uni1EEC
ENCODING 7916
SWIDTH 659 0
DWIDTH 12 0
BBX 11 17 1 0
BITMAP
01D000
007000
007018
00901C
000028
7001E0
7001C0
7001C0
7001C0
7001C0
7001C0
7001C0
7001C0
7402C0
340280
1D0B40
06F900
ENDCHAR
STARTCHAR uni1EED
ENCODING 7917
SWIDTH 544 0
DWIDTH 10 0
BBX 9 14 1 0
BITMAP
074000
01C000
01C1C0
0241C0
000280
B00E00
B00D00
B00D00
B00D00
B00D00
B00D00
B01D00
746D00
2F8D00
ENDCHAR
STARTCHAR uni1EEE
ENCODING 7918
SWIDTH 659 0
DWIDTH 12 0
BBX 11 15 1 0
BITMAP
0FD718
187D1C
000028
7001E0
7001C0
7001C0
7001C0
7001C0
7001C0
7001C0
7001C0
7402C0
340280
1D0B40
06F900
ENDCHAR
STARTCHAR uni1EEF
ENCODING 7919
SWIDTH 544 0
DWIDTH 10 0
BBX 9 13 1 0
BITMAP
040400
3B59C0
61F5C0
000280
B00E00
B00D00
B00D00
B00D00
B00D00
B00D00
B01D00
746D00
2F8D00
ENDCHAR
STARTCHAR uni1EF0
ENCODING 7920
SWIDTH 659 0
DWIDTH 12 0
BBX 11 18 1 -3
BITMAP
000018
00001C
000028
7001E0
7001C0
7001C0
7001C0
7001C0
7001C0
7001C0
7001C0
7402C0
340280
1D0B40
06F900
000000
00E000
00E000
ENDCHAR
STARTCHAR uni1EF1
ENCODING 7921
SWIDTH 544 0
DWIDTH 10 0
BBX 9 15 1 -3
BITMAP
0001C0
0001C0
000280
B00E00
B00D00
B00D00
B00D00
B00D00
B00D00
B01D00
746D00
2F8D00
000000
02C000
02C000
ENDCHAR
STARTCHAR Ygrave
ENCODING 7922
SWIDTH 476 0
DWIDTH 9 0
BBX 9 16 0 0
BITMAP
090000
074000
018000
000000
A00740
740B00
280D00
1C2C00
0E3400
07B000
03D000
02C000
01C000
01C000
01C000
01C000
ENDCHAR
STARTCHAR ygrave
ENCODING 7923
SWIDTH 467 0
DWIDTH 8 0
BBX 8 18 0 -4
BITMAP
0900
0B00
0280
0080
0000
B007
740A
280D
1C1C
0D28
0A34
0770
03E0
02D0
01C0
0280
0700
7900
ENDCHAR
STARTCHAR uni1EF4
ENCODING 7924
SWIDTH 476 0
DWIDTH 9 0
BBX 9 15 0 -3
BITMAP
A00740
740B00
280D00
1C2C00
0E3400
07B000
03D000
02C000
01C000
01C000
01C000
01C000
000000
01C000
01C000
ENDCHAR
STARTCHAR uni1EF5
ENCODING 7925
SWIDTH 467 0
DWIDTH 8 0
BBX 8 13 0 -4
BITMAP
B007
740A
280D
1C1C
0D28
0A34
0770
03E0
02D0
01C0
028A
070A
7900
ENDCHAR
STARTCHAR uni1EF6
ENCODING 7926
SWIDTH 476 0
DWIDTH 9 0
BBX 9 17 0 0
BITMAP
028000
00A000
00A000
018000
000000
A00740
740B00
280D00
1C2C00
0E3400
07B000
03D000
02C000
01C000
01C000
01C000
01C000
ENDCHAR
STARTCHAR uni1EF7
ENCODING 7927
SWIDTH 467 0
DWIDTH 8 0
BBX 8 18 0 -4
BITMAP
0280
00A0
00A0
0180
0000
B007
740A
280D
1C1C
0D28
0A34
0770
03E0
02D0
01C0
0280
0700
7900
ENDCHAR
STARTCHAR uni1EF8
ENCODING 7928
SWIDTH 476 0
DWIDTH 9 0
BBX 9 15 0 0
BITMAP
1F8900
24B800
000000
A00740
740B00
280D00
1C2C00
0E3400
07B000
03D000
02C000
01C000
01C000
01C000
01C000
ENDCHAR
STARTCHAR uni1EF9
ENCODING 7929
SWIDTH 467 0
DWIDTH 8 0
BBX 8 17 0 -4
BITMAP
0504
1E89
24B8
0000
B007
740A
280D
1C1C
0D28
0A34
0770
03E0
02D0
01C0
0280
0700
7900
ENDCHAR
STARTCHAR uni1F00
ENCODING 7936
SWIDTH 560 0
DWIDTH 10 0
BBX 9 14 1 0
BITMAP
038000
009000
009000
028000
000000
1B9700
786B00
A01E00
E00E00
D00D00
D01D00
E02D00
746D00
2F8B80
ENDCHAR
STARTCHAR uni1F01
ENCODING 7937
SWIDTH 560 0
DWIDTH 10 0
BBX 9 14 1 0
BITMAP
02D000
070000
034000
004000
000000
1B9700
786B00
A01E00
E00E00
D00D00
D01D00
E02D00
746D00
2F8B80
ENDCHAR
STARTCHAR uni1F02
ENCODING 7938
SWIDTH 560 0
DWIDTH 10 0
BBX 9 14 1 0
BITMAP
28A000
0A6000
0A7000
082000
000000
1B9700
786B00
A01E00
E00E00
D00D00
D01D00
E02D00
746D00
2F8B80
ENDCHAR
STARTCHAR uni1F03
ENCODING 7939
SWIDTH 560 0
DWIDTH 10 0
BBX 9 14 1 0
BITMAP
1A9000
28A000
286000
083000
000000
1B9700
786B00
A01E00
E00E00
D00D00
D01D00
E02D00
746D00
2F8B80
ENDCHAR
STARTCHAR uni1F04
ENCODING 7940
SWIDTH 560 0
DWIDTH 10 0
BBX 9 14 1 0
BITMAP
283400
0A7000
0A6000
089000
000000
1B9700
786B00
A01E00
E00E00
D00D00
D01D00
E02D00
746D00
2F8B80
ENDCHAR
STARTCHAR uni1F05
ENCODING 7941
SWIDTH 560 0
DWIDTH 10 0
BBX 9 14 1 0
BITMAP
0A3000
287000
28A000
099000
000000
1B9700
786B00
A01E00
E00E00
D00D00
D01D00
E02D00
746D00
2F8B80
ENDCHAR
STARTCHAR uni1F06
ENCODING 7942
SWIDTH 560 0
DWIDTH 10 0
BBX 9 16 1 0
BITMAP
0A5400
19B400
000000
038000
00D000
018000
000000
1B9700
786B00
A01E00
E00E00
D00D00
D01D00
E02D00
746D00
2F8B80
ENDCHAR
STARTCHAR uni1F07
ENCODING 7943
SWIDTH 560 0
DWIDTH 10 0
BBX 9 16 1 0
BITMAP
0A5400
19B400
000000
02C000
034000
018000
000000
1B9700
786B00
A01E00
E00E00
D00D00
D01D00
E02D00
746D00
2F8B80
ENDCHAR
STARTCHAR uni1F08
ENCODING 7944
SWIDTH 580 0
DWIDTH 10 0
BBX 11 12 0 0
BITMAP
E07800
24AC00
24DD00
51CA00
028700
034340
070380
0BFFC0
0D01D0
1C00E0
2800B0
340074
ENDCHAR
STARTCHAR uni1F09
ENCODING 7945
SWIDTH 573 0
DWIDTH 10 0
BBX 10 12 0 0
BITMAP
74B400
D0E800
C1DC00
628D00
034A00
070700
0A0340
0FFF80
1C01C0
2800D0
3800A0
740070
ENDCHAR
STARTCHAR uni1F0A
ENCODING 7946
SWIDTH 714 0
DWIDTH 13 0
BBX 13 12 0 0
BITMAP
D303C000
7347D000
724AA000
514D7000
001C3400
00282800
00341C00
007FFD00
00A00A00
00D00B00
01C00740
02800380
ENDCHAR
STARTCHAR uni1F0B
ENCODING 7947
SWIDTH 710 0
DWIDTH 13 0
BBX 13 12 0 0
BITMAP
7703C000
C346D000
C249A000
514D7000
001C3400
00283800
00342C00
007FFD00
00A00E00
00D00B00
01C00740
02800380
ENDCHAR
STARTCHAR uni1F0C
ENCODING 7948
SWIDTH 709 0
DWIDTH 13 0
BBX 13 12 0 0
BITMAP
D243C000
7346D000
7309A000
520D7000
001C3400
00283800
00342C00
007FFD00
00A00E00
00D00B00
01C00740
02800380
ENDCHAR
STARTCHAR uni1F0D
ENCODING 7949
SWIDTH 705 0
DWIDTH 13 0
BBX 13 12 0 0
BITMAP
73478000
C34AC000
C70D9000
551CA000
00287000
00343400
00742800
00BFFC00
00D00D00
01D00A00
02C00700
03800340
ENDCHAR
STARTCHAR uni1F0E
ENCODING 7950
SWIDTH 613 0
DWIDTH 11 0
BBX 12 12 -1 0
BITMAP
388F00
575F40
1D2A80
0635C0
0470D0
00A0A0
00D070
01FFF4
028028
03801C
07400D
0B000A
ENDCHAR
STARTCHAR uni1F0F
ENCODING 7951
SWIDTH 613 0
DWIDTH 11 0
BBX 12 12 -1 0
BITMAP
388F00
575F40
0A2A80
1835C0
0470D0
00A0A0
00D070
01FFF4
028028
03801C
07400D
0B000A
ENDCHAR
STARTCHAR uni1F10
ENCODING 7952
SWIDTH 448 0
DWIDTH 8 0
BBX 7 14 1 0
BITMAP
0A40
0280
0280
0640
0000
1FE0
7420
A000
7400
2F80
E000
D000
E424
2FE4
ENDCHAR
STARTCHAR uni1F11
ENCODING 7953
SWIDTH 448 0
DWIDTH 8 0
BBX 7 14 1 0
BITMAP
0680
0D00
0A00
0100
0000
1FE0
7420
A000
7400
2F80
E000
D000
E424
2FE4
ENDCHAR
STARTCHAR uni1F12
ENCODING 7954
SWIDTH 448 0
DWIDTH 8 0
BBX 7 14 1 0
BITMAP
75C0
1CC0
1CD0
2490
0000
1FE0
7420
A000
7400
2F80
E000
D000
E424
2FE4
ENDCHAR
STARTCHAR uni1F13
ENCODING 7955
SWIDTH 448 0
DWIDTH 8 0
BBX 7 14 1 0
BITMAP
2D80
61C0
60C0
2490
0000
1FE0
7420
A000
7400
2F80
E000
D000
E424
2FE4
ENDCHAR
STARTCHAR uni1F14
ENCODING 7956
SWIDTH 448 0
DWIDTH 8 0
BBX 7 14 1 0
BITMAP
74A0
1CD0
1CC0
2580
0000
1FE0
7420
A000
7400
2F80
E000
D000
E424
2FE4
ENDCHAR
STARTCHAR uni1F15
ENCODING 7957
SWIDTH 448 0
DWIDTH 8 0
BBX 7 14 1 0
BITMAP
2C90
70D0
31C0
1980
0000
1FE0
7420
A000
7400
2F80
E000
D000
E424
2FE4
ENDCHAR
STARTCHAR uni1F18
ENCODING 7960
SWIDTH 645 0
DWIDTH 12 0
BBX 11 12 0 0
BITMAP
E1FFF8
35D000
35D000
51D000
01D000
01FFE0
01D000
01D000
01D000
01D000
01D000
01FFF8
ENDCHAR
STARTCHAR uni1F19
ENCODING 7961
SWIDTH 645 0
DWIDTH 12 0
BBX 11 12 0 0
BITMAP
75FFF8
D1D000
C1D000
61D000
01D000
01FFE0
01D000
01D000
01D000
01D000
01D000
01FFF8
ENDCHAR
STARTCHAR uni1F1A
ENCODING 7962
SWIDTH 764 0
DWIDTH 14 0
BBX 13 12 0 0
BITMAP
D30FFF80
734D0000
724D0000
514D0000
000D0000
000FFF00
000D0000
000D0000
000D0000
000D0000
000D0000
000FFFC0
ENDCHAR
STARTCHAR uni1F1B
ENCODING 7963
SWIDTH 761 0
DWIDTH 14 0
BBX 13 12 0 0
BITMAP
770FFF80
C34D0000
C24D0000
514D0000
000D0000
000FFE00
000D0000
000D0000
000D0000
000D0000
000D0000
000FFF80
ENDCHAR
STARTCHAR uni1F1C
ENCODING 7964
SWIDTH 760 0
DWIDTH 14 0
BBX 13 12 0 0
BITMAP
D25FFF80
735D0000
731D0000
521D0000
001D0000
001FFE00
001D0000
001D0000
001D0000
001D0000
001D0000
001FFF80
ENDCHAR
STARTCHAR uni1F1D
ENCODING 7965
SWIDTH 756 0
DWIDTH 14 0
BBX 13 12 0 0
BITMAP
735FFF80
C35D0000
C71D0000
551D0000
001D0000
001FFE00
001D0000
001D0000
001D0000
001D0000
001D0000
001FFF80
ENDCHAR
STARTCHAR uni1F20
ENCODING 7968
SWIDTH 541 0
DWIDTH 10 0
BBX 8 17 1 -3
BITMAP
0380
00A0
00A0
0180
0000
A2F4
A91C
B40D
B00D
B00D
B00D
B00D
B00D
B00D
000D
000D
000D
ENDCHAR
STARTCHAR uni1F21
ENCODING 7969
SWIDTH 541 0
DWIDTH 10 0
BBX 8 17 1 -3
BITMAP
01D0
0340
0340
0040
0000
A2F4
A91C
B40D
B00D
B00D
B00D
B00D
B00D
B00D
000D
000D
000D
ENDCHAR
STARTCHAR uni1F22
ENCODING 7970
SWIDTH 541 0
DWIDTH 10 0
BBX 8 17 1 -3
BITMAP
29A0
0A70
0A30
0824
0000
A2F4
A91C
B40D
B00D
B00D
B00D
B00D
B00D
B00D
000D
000D
000D
ENDCHAR
STARTCHAR uni1F23
ENCODING 7971
SWIDTH 541 0
DWIDTH 10 0
BBX 8 17 1 -3
BITMAP
0AA0
2860
2870
0820
0000
A2F4
A91C
B40D
B00D
B00D
B00D
B00D
B00D
B00D
000D
000D
000D
ENDCHAR
STARTCHAR uni1F24
ENCODING 7972
SWIDTH 541 0
DWIDTH 10 0
BBX 8 17 1 -3
BITMAP
2934
0A30
0A60
0850
0000
A2F4
A91C
B40D
B00D
B00D
B00D
B00D
B00D
B00D
000D
000D
000D
ENDCHAR
STARTCHAR uni1F25
ENCODING 7973
SWIDTH 541 0
DWIDTH 10 0
BBX 8 17 1 -3
BITMAP
0A34
1870
1860
0990
0000
A2F4
A91C
B40D
B00D
B00D
B00D
B00D
B00D
B00D
000D
000D
000D
ENDCHAR
STARTCHAR uni1F26
ENCODING 7974
SWIDTH 541 0
DWIDTH 10 0
BBX 8 19 1 -3
BITMAP
0A58
19B4
0000
0280
00D0
0180
0000
A2F4
A91C
B40D
B00D
B00D
B00D
B00D
B00D
B00D
000D
000D
000D
ENDCHAR
STARTCHAR uni1F27
ENCODING 7975
SWIDTH 541 0
DWIDTH 10 0
BBX 8 19 1 -3
BITMAP
0A58
19B4
0000
01D0
0340
0180
0000
A2F4
A91C
B40D
B00D
B00D
B00D
B00D
B00D
B00D
000D
000D
000D
ENDCHAR
STARTCHAR uni1F28
ENCODING 7976
SWIDTH 770 0
DWIDTH 14 0
BBX 13 12 0 0
BITMAP
E1D00740
35D00740
35D00740
51D00740
01D00740
01FFFF40
01D00740
01D00740
01D00740
01D00740
01D00740
01D00740
ENDCHAR
STARTCHAR uni1F29
ENCODING 7977
SWIDTH 770 0
DWIDTH 14 0
BBX 13 12 0 0
BITMAP
75D00740
D1D00740
C1D00740
61D00740
01D00740
01FFFF40
01D00740
01D00740
01D00740
01D00740
01D00740
01D00740
ENDCHAR
STARTCHAR uni1F2A
ENCODING 7978
SWIDTH 889 0
DWIDTH 16 0
BBX 15 12 0 0
BITMAP
D30D0034
734D0034
724D0034
514D0034
000D0034
000FFFF4
000D0034
000D0034
000D0034
000D0034
000D0034
000D0034
ENDCHAR
STARTCHAR uni1F2B
ENCODING 7979
SWIDTH 885 0
DWIDTH 16 0
BBX 15 12 0 0
BITMAP
770D0074
C34D0074
C24D0074
514D0074
000D0074
000FFFF4
000D0074
000D0074
000D0074
000D0074
000D0074
000D0074
ENDCHAR
STARTCHAR uni1F2C
ENCODING 7980
SWIDTH 885 0
DWIDTH 16 0
BBX 15 12 0 0
BITMAP
D25D0074
735D0074
731D0074
521D0074
001D0074
001FFFF4
001D0074
001D0074
001D0074
001D0074
001D0074
001D0074
ENDCHAR
STARTCHAR uni1F2D
ENCODING 7981
SWIDTH 881 0
DWIDTH 16 0
BBX 15 12 0 0
BITMAP
735D0074
C35D0074
C71D0074
551D0074
001D0074
001FFFF4
001D0074
001D0074
001D0074
001D0074
001D0074
001D0074
ENDCHAR
STARTCHAR uni1F2E
ENCODING 7982
SWIDTH 840 0
DWIDTH 15 0
BBX 15 12 -1 0
BITMAP
388E0038
574E0038
1D0E0038
060E0038
040E0038
000FFFF8
000E0038
000E0038
000E0038
000E0038
000E0038
000E0038
ENDCHAR
STARTCHAR uni1F2F
ENCODING 7983
SWIDTH 840 0
DWIDTH 15 0
BBX 15 12 -1 0
BITMAP
388E0038
574E0038
0A0E0038
180E0038
040E0038
000FFFF8
000E0038
000E0038
000E0038
000E0038
000E0038
000E0038
ENDCHAR
STARTCHAR uni1F30
ENCODING 7984
SWIDTH 262 0
DWIDTH 5 0
BBX 3 14 1 0
BITMAP
E0
28
28
60
00
B0
B0
B0
B0
B0
B0
B0
70
3C
ENDCHAR
STARTCHAR uni1F31
ENCODING 7985
SWIDTH 262 0
DWIDTH 5 0
BBX 3 14 1 0
BITMAP
74
D0
E0
10
00
B0
B0
B0
B0
B0
B0
B0
70
3C
ENDCHAR
STARTCHAR uni1F32
ENCODING 7986
SWIDTH 262 0
DWIDTH 5 0
BBX 6 14 -1 0
BITMAP
A680
29C0
28C0
2090
0000
0B00
0B00
0B00
0B00
0B00
0B00
0B00
0700
03C0
ENDCHAR
STARTCHAR uni1F33
ENCODING 7987
SWIDTH 262 0
DWIDTH 5 0
BBX 5 14 -1 0
BITMAP
2A80
A180
A1C0
2080
0000
0B00
0B00
0B00
0B00
0B00
0B00
0B00
0700
03C0
ENDCHAR
STARTCHAR uni1F34
ENCODING 7988
SWIDTH 262 0
DWIDTH 5 0
BBX 6 14 -1 0
BITMAP
A4D0
28C0
2980
2140
0000
0B00
0B00
0B00
0B00
0B00
0B00
0B00
0700
03C0
ENDCHAR
STARTCHAR uni1F35
ENCODING 7989
SWIDTH 262 0
DWIDTH 5 0
BBX 6 14 -1 0
BITMAP
28D0
61C0
6180
2640
0000
0B00
0B00
0B00
0B00
0B00
0B00
0B00
0700
03C0
ENDCHAR
STARTCHAR uni1F36
ENCODING 7990
SWIDTH 262 0
DWIDTH 5 0
BBX 6 16 -1 0
BITMAP
2960
66D0
0000
0A00
0240
0600
0000
0B00
0B00
0B00
0B00
0B00
0B00
0B00
0700
03C0
ENDCHAR
STARTCHAR uni1F37
ENCODING 7991
SWIDTH 262 0
DWIDTH 5 0
BBX 6 16 -1 0
BITMAP
2960
66D0
0000
0740
0D00
0600
0000
0B00
0B00
0B00
0B00
0B00
0B00
0B00
0700
03C0
ENDCHAR
STARTCHAR uni1F38
ENCODING 7992
SWIDTH 381 0
DWIDTH 7 0
BBX 6 12 0 0
BITMAP
E1D0
35D0
35D0
51D0
01D0
01D0
01D0
01D0
01D0
01D0
01D0
01D0
ENDCHAR
STARTCHAR uni1F39
ENCODING 7993
SWIDTH 381 0
DWIDTH 7 0
BBX 6 12 0 0
BITMAP
75D0
D1D0
C1D0
61D0
01D0
01D0
01D0
01D0
01D0
01D0
01D0
01D0
ENDCHAR
STARTCHAR uni1F3A
ENCODING 7994
SWIDTH 500 0
DWIDTH 9 0
BBX 8 12 0 0
BITMAP
D30D
734D
724D
514D
000D
000D
000D
000D
000D
000D
000D
000D
ENDCHAR
STARTCHAR uni1F3B
ENCODING 7995
SWIDTH 497 0
DWIDTH 9 0
BBX 8 12 0 0
BITMAP
770D
C34D
C24D
514D
000D
000D
000D
000D
000D
000D
000D
000D
ENDCHAR
STARTCHAR uni1F3C
ENCODING 7996
SWIDTH 496 0
DWIDTH 9 0
BBX 8 12 0 0
BITMAP
D25D
735D
731D
521D
001D
001D
001D
001D
001D
001D
001D
001D
ENDCHAR
STARTCHAR uni1F3D
ENCODING 7997
SWIDTH 492 0
DWIDTH 9 0
BBX 8 12 0 0
BITMAP
735D
C35D
C71D
551D
001D
001D
001D
001D
001D
001D
001D
001D
ENDCHAR
STARTCHAR uni1F3E
ENCODING 7998
SWIDTH 451 0
DWIDTH 8 0
BBX 8 12 -1 0
BITMAP
388E
574E
1D0E
060E
040E
000E
000E
000E
000E
000E
000E
000E
ENDCHAR
STARTCHAR uni1F3F
ENCODING 7999
SWIDTH 451 0
DWIDTH 8 0
BBX 8 12 -1 0
BITMAP
388E
574E
0A0E
180E
040E
000E
000E
000E
000E
000E
000E
000E
ENDCHAR
STARTCHAR uni1F40
ENCODING 8000
SWIDTH 535 0
DWIDTH 10 0
BBX 8 14 1 0
BITMAP
0740
01C0
01C0
0240
0000
1BE0
7868
A00D
D00E
D00A
D00E
A00D
7828
1BE0
ENDCHAR
STARTCHAR uni1F41
ENCODING 8001
SWIDTH 535 0
DWIDTH 10 0
BBX 8 14 1 0
BITMAP
02C0
0A00
0740
0000
0000
1BE0
7868
A00D
D00E
D00A
D00E
A00D
7828
1BE0
ENDCHAR
STARTCHAR uni1F42
ENCODING 8002
SWIDTH 535 0
DWIDTH 10 0
BBX 8 14 1 0
BITMAP
38D0
0D90
0D60
1820
0000
1BE0
7868
A00D
D00E
D00A
D00E
A00D
7828
1BE0
ENDCHAR
STARTCHAR uni1F43
ENCODING 8003
SWIDTH 535 0
DWIDTH 10 0
BBX 8 14 1 0
BITMAP
1DD0
34D0
34A0
1860
0000
1BE0
7868
A00D
D00E
D00A
D00E
A00D
7828
1BE0
ENDCHAR
STARTCHAR uni1F44
ENCODING 8004
SWIDTH 535 0
DWIDTH 10 0
BBX 8 14 1 0
BITMAP
3870
0DA0
0D90
1880
0000
1BE0
7868
A00D
D00E
D00A
D00E
A00D
7828
1BE0
ENDCHAR
STARTCHAR uni1F45
ENCODING 8005
SWIDTH 535 0
DWIDTH 10 0
BBX 8 14 1 0
BITMAP
1960
24A0
2490
18C0
0000
1BE0
7868
A00D
D00E
D00A
D00E
A00D
7828
1BE0
ENDCHAR
STARTCHAR uni1F48
ENCODING 8008
SWIDTH 761 0
DWIDTH 14 0
BBX 13 12 0 0
BITMAP
E01FE400
34B42D00
36C00B00
53800740
07400380
07400380
07400380
03400380
03800740
01D00B00
00B42D00
001FE000
ENDCHAR
STARTCHAR uni1F49
ENCODING 8009
SWIDTH 747 0
DWIDTH 13 0
BBX 13 12 0 0
BITMAP
742FE000
D0E46C00
C2800E00
67400700
07000740
0B000340
0B000340
07400740
07400700
02C00E00
00E46C00
002FE000
ENDCHAR
STARTCHAR uni1F4A
ENCODING 8010
SWIDTH 884 0
DWIDTH 16 0
BBX 15 12 0 0
BITMAP
D301BE40
734741E0
725D0074
516C0038
0038002C
0038002C
0038002C
0038002C
002C0038
001D0074
000741E0
0001BE40
ENDCHAR
STARTCHAR uni1F4B
ENCODING 8011
SWIDTH 886 0
DWIDTH 16 0
BBX 15 12 0 0
BITMAP
7701BE40
C34B41D0
C25D0074
516C0038
0038002C
0038002C
0038002C
0038002C
002C0038
001D0074
000B41D0
0001BE40
ENDCHAR
STARTCHAR uni1F4C
ENCODING 8012
SWIDTH 880 0
DWIDTH 16 0
BBX 15 12 0 0
BITMAP
D241BE40
734B42D0
731D00B0
52280038
00380028
0034002C
0034002C
00380028
00280038
001D00B0
000B42D0
0001BE40
ENDCHAR
STARTCHAR uni1F4D
ENCODING 8013
SWIDTH 876 0
DWIDTH 16 0
BBX 15 12 0 0
BITMAP
7341BE40
C34B42D0
C71D00B0
55380034
00340038
00740028
00740028
00340038
00380074
001D00B0
000B42D0
0001BE40
ENDCHAR
STARTCHAR uni1F50
ENCODING 8016
SWIDTH 510 0
DWIDTH 9 0
BBX 7 14 1 0
BITMAP
0A00
0280
0280
0600
0000
E038
A028
A01C
A01C
A01C
A01C
A02C
7474
1FD0
ENDCHAR
STARTCHAR uni1F51
ENCODING 8017
SWIDTH 510 0
DWIDTH 9 0
BBX 7 14 1 0
BITMAP
0780
0D00
0A00
0100
0000
E038
A028
A01C
A01C
A01C
A01C
A02C
7474
1FD0
ENDCHAR
STARTCHAR uni1F52
ENCODING 8018
SWIDTH 510 0
DWIDTH 9 0
BBX 7 14 1 0
BITMAP
7580
1DC0
1CD0
2490
0000
E038
A028
A01C
A01C
A01C
A01C
A02C
7474
1FD0
ENDCHAR
STARTCHAR uni1F53
ENCODING 8019
SWIDTH 510 0
DWIDTH 9 0
BBX 7 14 1 0
BITMAP
2980
61C0
60C0
2490
0000
E038
A028
A01C
A01C
A01C
A01C
A02C
7474
1FD0
ENDCHAR
STARTCHAR uni1F54
ENCODING 8020
SWIDTH 510 0
DWIDTH 9 0
BBX 7 14 1 0
BITMAP
7490
1CD0
1CC0
2580
0000
E038
A028
A01C
A01C
A01C
A01C
A02C
7474
1FD0
ENDCHAR
STARTCHAR uni1F55
ENCODING 8021
SWIDTH 510 0
DWIDTH 9 0
BBX 7 14 1 0
BITMAP
2C90
70D0
71C0
2580
0000
E038
A028
A01C
A01C
A01C
A01C
A02C
7474
1FD0
ENDCHAR
STARTCHAR uni1F56
ENCODING 8022
SWIDTH 510 0
DWIDTH 9 0
BBX 7 16 1 0
BITMAP
2920
36D0
0000
0A40
0280
0200
0000
E038
A028
A01C
A01C
A01C
A01C
A02C
7474
1FD0
ENDCHAR
STARTCHAR uni1F57
ENCODING 8023
SWIDTH 510 0
DWIDTH 9 0
BBX 7 16 1 0
BITMAP
2920
36D0
0000
0740
0A00
0600
0000
E038
A028
A01C
A01C
A01C
A01C
A02C
7474
1FD0
ENDCHAR
STARTCHAR uni1F59
ENCODING 8025
SWIDTH 645 0
DWIDTH 12 0
BBX 12 12 0 0
BITMAP
76C00D
D1D02C
C0A034
607470
0028D0
001EC0
000B80
000700
000700
000700
000700
000700
ENDCHAR
STARTCHAR uni1F5B
ENCODING 8027
SWIDTH 769 0
DWIDTH 14 0
BBX 14 12 0 0
BITMAP
771C00E0
C34E01D0
C24B0280
51434740
0002CA00
0000DD00
0000B800
00007400
00007400
00007400
00007400
00007400
ENDCHAR
STARTCHAR uni1F5D
ENCODING 8029
SWIDTH 765 0
DWIDTH 14 0
BBX 14 12 0 0
BITMAP
736C00E0
C34D01C0
C70B0380
55034700
00028A00
0001DC00
0000B800
00007400
00007400
00007400
00007400
00007400
ENDCHAR
STARTCHAR uni1F5F
ENCODING 8031
SWIDTH 718 0
DWIDTH 13 0
BBX 14 12 -1 0
BITMAP
389C00E0
574E01D0
0A070280
18038740
0401CA00
0000ED00
0000B800
00003400
00003400
00003400
00003400
00003400
ENDCHAR
STARTCHAR uni1F60
ENCODING 8032
SWIDTH 701 0
DWIDTH 13 0
BBX 11 14 1 0
BITMAP
00A000
002800
002800
006000
000000
240090
7800B0
B00074
E06038
D07038
D07038
E07034
74E4B0
2F4BD0
ENDCHAR
STARTCHAR uni1F61
ENCODING 8033
SWIDTH 701 0
DWIDTH 13 0
BBX 11 14 1 0
BITMAP
007400
00D000
00A000
001000
000000
240090
7800B0
B00074
E06038
D07038
D07038
E07034
74E4B0
2F4BD0
ENDCHAR
STARTCHAR uni1F62
ENCODING 8034
SWIDTH 701 0
DWIDTH 13 0
BBX 11 14 1 0
BITMAP
065800
019C00
018C00
024900
000000
240090
7800B0
B00074
E06038
D07038
D07038
E07034
74E4B0
2F4BD0
ENDCHAR
STARTCHAR uni1F63
ENCODING 8035
SWIDTH 701 0
DWIDTH 13 0
BBX 11 14 1 0
BITMAP
02A800
0A1800
0A0C00
024800
000000
240090
7800B0
B00074
E06038
D07038
D07038
E07034
74E4B0
2F4BD0
ENDCHAR
STARTCHAR uni1F64
ENCODING 8036
SWIDTH 701 0
DWIDTH 13 0
BBX 11 14 1 0
BITMAP
064900
018D00
019C00
025800
000000
240090
7800B0
B00074
E06038
D07038
D07038
E07034
74E4B0
2F4BD0
ENDCHAR
STARTCHAR uni1F65
ENCODING 8037
SWIDTH 701 0
DWIDTH 13 0
BBX 11 14 1 0
BITMAP
02CD00
060C00
071800
025400
000000
240090
7800B0
B00074
E06038
D07038
D07038
E07034
74E4B0
2F4BD0
ENDCHAR
STARTCHAR uni1F66
ENCODING 8038
SWIDTH 701 0
DWIDTH 13 0
BBX 11 16 1 0
BITMAP
029600
026D00
000000
00A000
002400
006000
000000
240090
7800B0
B00074
E06038
D07038
D07038
E07034
74E4B0
2F4BD0
ENDCHAR
STARTCHAR uni1F67
ENCODING 8039
SWIDTH 701 0
DWIDTH 13 0
BBX 11 16 1 0
BITMAP
029600
026D00
000000
007400
00D000
006000
000000
240090
7800B0
B00074
E06038
D07038
D07038
E07034
74E4B0
2F4BD0
ENDCHAR
STARTCHAR uni1F68
ENCODING 8040
SWIDTH 773 0
DWIDTH 14 0
BBX 13 12 0 0
BITMAP
E01BE400
34B42D00
35D00B00
52800380
03800280
034002C0
03400280
03800380
02C00740
01D00B00
00742D00
07F83FC0
ENDCHAR
STARTCHAR uni1F69
ENCODING 8041
SWIDTH 759 0
DWIDTH 14 0
BBX 13 12 0 0
BITMAP
742FE000
D0A42D00
C2C00A00
63800740
07400380
07000380
07400380
07400340
03800700
01D00E00
00B02C00
0BF87FC0
ENDCHAR
STARTCHAR uni1F6A
ENCODING 8042
SWIDTH 900 0
DWIDTH 16 0
BBX 16 12 0 0
BITMAP
D301BE40
734741E0
724E0074
516C0028
0028002C
0038001C
0038001C
002C002C
001D0038
000E0074
000781D0
003FC2FD
ENDCHAR
STARTCHAR uni1F6B
ENCODING 8043
SWIDTH 896 0
DWIDTH 16 0
BBX 16 12 0 0
BITMAP
7701BE40
C34741E0
C25D0074
516C0038
0038002C
0038001C
0038002C
0028002C
001C0038
000E00B0
000741D0
007FC3FD
ENDCHAR
STARTCHAR uni1F6C
ENCODING 8044
SWIDTH 895 0
DWIDTH 16 0
BBX 16 12 0 0
BITMAP
D241BE40
734741E0
731D0074
522C0038
0038002C
0038001C
0038002C
0028002C
001C0038
000E00B0
000741D0
007FC3FD
ENDCHAR
STARTCHAR uni1F6D
ENCODING 8045
SWIDTH 891 0
DWIDTH 16 0
BBX 16 12 0 0
BITMAP
7341BE40
C34B41D0
C71D0074
552C0038
0038002C
0038002C
0038002C
00280028
002C0038
000E00B0
000741D0
007FC3FD
ENDCHAR
STARTCHAR uni1F6E
ENCODING 8046
SWIDTH 817 0
DWIDTH 15 0
BBX 15 12 -1 0
BITMAP
3882FE00
574A42D0
1D2C00B0
06380074
04740038
00740038
00740038
00740034
00380070
001D00E0
000B02C0
00BF87FC
ENDCHAR
STARTCHAR uni1F6F
ENCODING 8047
SWIDTH 817 0
DWIDTH 15 0
BBX 15 12 -1 0
BITMAP
3882FE00
574A42D0
0A2C00B0
18380074
04740038
00740038
00740038
00740034
00380070
001D00E0
000B02C0
00BF87FC
ENDCHAR
STARTCHAR uni1F70
ENCODING 8048
SWIDTH 560 0
DWIDTH 10 0
BBX 9 14 1 0
BITMAP
080000
0E0000
038000
018000
000000
1B9700
786B00
A01E00
E00E00
D00D00
D01D00
E02D00
746D00
2F8B80
ENDCHAR
STARTCHAR uni1F71
ENCODING 8049
SWIDTH 560 0
DWIDTH 10 0
BBX 9 14 1 0
BITMAP
002400
00B400
01D000
024000
000000
1B9700
786B00
A01E00
E00E00
D00D00
D01D00
E02D00
746D00
2F8B80
ENDCHAR
STARTCHAR uni1F72
ENCODING 8050
SWIDTH 448 0
DWIDTH 8 0
BBX 7 14 1 0
BITMAP
2400
2C00
0B00
0240
0000
1FE0
7420
A000
7400
2F80
E000
D000
E424
2FE4
ENDCHAR
STARTCHAR uni1F73
ENCODING 8051
SWIDTH 448 0
DWIDTH 8 0
BBX 7 14 1 0
BITMAP
0050
01E0
0380
0600
0000
1FE0
7420
A000
7400
2F80
E000
D000
E424
2FE4
ENDCHAR
STARTCHAR uni1F74
ENCODING 8052
SWIDTH 541 0
DWIDTH 10 0
BBX 8 17 1 -3
BITMAP
0800
0E00
0380
0080
0000
A2F4
A91C
B40D
B00D
B00D
B00D
B00D
B00D
B00D
000D
000D
000D
ENDCHAR
STARTCHAR uni1F75
ENCODING 8053
SWIDTH 541 0
DWIDTH 10 0
BBX 8 17 1 -3
BITMAP
0024
0074
01D0
0140
0000
A2F4
A91C
B40D
B00D
B00D
B00D
B00D
B00D
B00D
000D
000D
000D
ENDCHAR
STARTCHAR uni1F76
ENCODING 8054
SWIDTH 262 0
DWIDTH 5 0
BBX 4 14 0 0
BITMAP
80
F0
38
08
00
2C
2C
2C
2C
2C
2C
2C
1C
0F
ENDCHAR
STARTCHAR uni1F77
ENCODING 8055
SWIDTH 262 0
DWIDTH 5 0
BBX 4 14 1 0
BITMAP
09
1D
74
50
00
B0
B0
B0
B0
B0
B0
B0
70
3C
ENDCHAR
STARTCHAR uni1F78
ENCODING 8056
SWIDTH 535 0
DWIDTH 10 0
BBX 8 14 1 0
BITMAP
1800
1D00
0740
0180
0000
1BE0
7868
A00D
D00E
D00A
D00E
A00D
7828
1BE0
ENDCHAR
STARTCHAR uni1F79
ENCODING 8057
SWIDTH 535 0
DWIDTH 10 0
BBX 8 14 1 0
BITMAP
0020
00B0
02C0
0200
0000
1BE0
7868
A00D
D00E
D00A
D00E
A00D
7828
1BE0
ENDCHAR
STARTCHAR uni1F7A
ENCODING 8058
SWIDTH 510 0
DWIDTH 9 0
BBX 7 14 1 0
BITMAP
2400
2C00
0A00
0200
0000
E038
A028
A01C
A01C
A01C
A01C
A02C
7474
1FD0
ENDCHAR
STARTCHAR uni1F7B
ENCODING 8059
SWIDTH 510 0
DWIDTH 9 0
BBX 7 14 1 0
BITMAP
0050
01E0
0380
0600
0000
E038
A028
A01C
A01C
A01C
A01C
A02C
7474
1FD0
ENDCHAR
STARTCHAR uni1F7C
ENCODING 8060
SWIDTH 701 0
DWIDTH 13 0
BBX 11 14 1 0
BITMAP
024000
02C000
00A000
002000
000000
240090
7800B0
B00074
E06038
D07038
D07038
E07034
74E4B0
2F4BD0
ENDCHAR
STARTCHAR uni1F7D
ENCODING 8061
SWIDTH 701 0
DWIDTH 13 0
BBX 11 14 1 0
BITMAP
000900
001D00
007400
006000
000000
240090
7800B0
B00074
E06038
D07038
D07038
E07034
74E4B0
2F4BD0
ENDCHAR
STARTCHAR uni1F80
ENCODING 8064
SWIDTH 560 0
DWIDTH 10 0
BBX 9 18 1 -4
BITMAP
038000
009000
009000
028000
000000
1B9700
786B00
A01E00
E00E00
D00D00
D01D00
E02D00
746D00
2F8B80
000000
014000
018000
00E000
ENDCHAR
STARTCHAR uni1F81
ENCODING 8065
SWIDTH 560 0
DWIDTH 10 0
BBX 9 18 1 -4
BITMAP
02D000
070000
034000
004000
000000
1B9700
786B00
A01E00
E00E00
D00D00
D01D00
E02D00
746D00
2F8B80
000000
014000
018000
00E000
ENDCHAR
STARTCHAR uni1F82
ENCODING 8066
SWIDTH 560 0
DWIDTH 10 0
BBX 9 18 1 -4
BITMAP
28A000
0A6000
0A7000
082000
000000
1B9700
786B00
A01E00
E00E00
D00D00
D01D00
E02D00
746D00
2F8B80
000000
014000
018000
00E000
ENDCHAR
STARTCHAR uni1F83
ENCODING 8067
SWIDTH 560 0
DWIDTH 10 0
BBX 9 18 1 -4
BITMAP
1A9000
28A000
286000
083000
000000
1B9700
786B00
A01E00
E00E00
D00D00
D01D00
E02D00
746D00
2F8B80
000000
014000
018000
00E000
ENDCHAR
STARTCHAR uni1F84
ENCODING 8068
SWIDTH 560 0
DWIDTH 10 0
BBX 9 18 1 -4
BITMAP
283400
0A7000
0A6000
089000
000000
1B9700
786B00
A01E00
E00E00
D00D00
D01D00
E02D00
746D00
2F8B80
000000
014000
018000
00E000
ENDCHAR
STARTCHAR uni1F85
ENCODING 8069
SWIDTH 560 0
DWIDTH 10 0
BBX 9 18 1 -4
BITMAP
0A3000
287000
28A000
099000
000000
1B9700
786B00
A01E00
E00E00
D00D00
D01D00
E02D00
746D00
2F8B80
000000
014000
018000
00E000
ENDCHAR
STARTCHAR uni1F86
ENCODING 8070
SWIDTH 560 0
DWIDTH 10 0
BBX 9 20 1 -4
BITMAP
0A5400
19B400
000000
038000
00D000
018000
000000
1B9700
786B00
A01E00
E00E00
D00D00
D01D00
E02D00
746D00
2F8B80
000000
014000
018000
00E000
ENDCHAR
STARTCHAR uni1F87
ENCODING 8071
SWIDTH 560 0
DWIDTH 10 0
BBX 9 20 1 -4
BITMAP
0A5400
19B400
000000
02C000
034000
018000
000000
1B9700
786B00
A01E00
E00E00
D00D00
D01D00
E02D00
746D00
2F8B80
000000
014000
018000
00E000
ENDCHAR
STARTCHAR uni1F88
ENCODING 8072
SWIDTH 839 0
DWIDTH 15 0
BBX 15 12 0 0
BITMAP
E0780000
24AC0000
24DD0000
51CA0000
02870000
034340D0
070380D0
0BFFC0D0
0D01D0D0
1C00E0D0
2800B0D0
340074B8
ENDCHAR
STARTCHAR uni1F89
ENCODING 8073
SWIDTH 832 0
DWIDTH 15 0
BBX 15 12 0 0
BITMAP
74B40000
D0E80000
C1DC0000
628D0000
034A0000
070701D0
0A0341D0
0FFF81D0
1C01C1C0
2800D1C0
3800A1D0
740070B4
ENDCHAR
STARTCHAR uni1F8A
ENCODING 8074
SWIDTH 972 0
DWIDTH 18 0
BBX 17 12 0 0
BITMAP
D303C00000
7347D00000
724AA00000
514D700000
001C340000
0028280A00
00341C0A00
007FFD0A00
00A00A0A00
00D00B0A00
01C0074A00
02800387C0
ENDCHAR
STARTCHAR uni1F8B
ENCODING 8075
SWIDTH 968 0
DWIDTH 17 0
BBX 17 12 0 0
BITMAP
7703C00000
C346D00000
C249A00000
514D700000
001C340000
0028380A00
00342C0A00
007FFD0A00
00A00E0A00
00D00B0A00
01C0074A00
02800387C0
ENDCHAR
STARTCHAR uni1F8C
ENCODING 8076
SWIDTH 968 0
DWIDTH 17 0
BBX 17 12 0 0
BITMAP
D243C00000
7346D00000
7309A00000
520D700000
001C340000
0028380A00
00342C0A00
007FFD0A00
00A00E0A00
00D00B0A00
01C0074A00
0280038780
ENDCHAR
STARTCHAR uni1F8D
ENCODING 8077
SWIDTH 964 0
DWIDTH 17 0
BBX 17 12 0 0
BITMAP
7347800000
C34AC00000
C70D900000
551CA00000
0028700000
0034340E00
0074280E00
00BFFC0E00
00D00D0E00
01D00A0E00
02C0070A00
0380034780
ENDCHAR
STARTCHAR uni1F8E
ENCODING 8078
SWIDTH 872 0
DWIDTH 16 0
BBX 16 12 -1 0
BITMAP
388F0000
575F4000
1D2A8000
0635C000
0470D000
00A0A02C
00D0702C
01FFF42C
0280282C
03801C2C
07400D1C
0B000A0F
ENDCHAR
STARTCHAR uni1F8F
ENCODING 8079
SWIDTH 872 0
DWIDTH 16 0
BBX 16 12 -1 0
BITMAP
388F0000
575F4000
0A2A8000
1835C000
0470D000
00A0A02C
00D0702C
01FFF42C
0280282C
03801C2C
07400D1C
0B000A0F
ENDCHAR
STARTCHAR uni1F90
ENCODING 8080
SWIDTH 541 0
DWIDTH 10 0
BBX 8 18 1 -4
BITMAP
0380
00A0
00A0
0180
0000
A2F4
A91C
B40D
B00D
B00D
B00D
B00D
B00D
B00D
000D
500D
600D
3800
ENDCHAR
STARTCHAR uni1F91
ENCODING 8081
SWIDTH 541 0
DWIDTH 10 0
BBX 8 18 1 -4
BITMAP
01D0
0340
0340
0040
0000
A2F4
A91C
B40D
B00D
B00D
B00D
B00D
B00D
B00D
000D
500D
600D
3800
ENDCHAR
STARTCHAR uni1F92
ENCODING 8082
SWIDTH 541 0
DWIDTH 10 0
BBX 8 18 1 -4
BITMAP
29A0
0A70
0A30
0824
0000
A2F4
A91C
B40D
B00D
B00D
B00D
B00D
B00D
B00D
000D
500D
600D
3800
ENDCHAR
STARTCHAR uni1F93
ENCODING 8083
SWIDTH 541 0
DWIDTH 10 0
BBX 8 18 1 -4
BITMAP
0AA0
2860
2870
0820
0000
A2F4
A91C
B40D
B00D
B00D
B00D
B00D
B00D
B00D
000D
500D
600D
3800
ENDCHAR
STARTCHAR uni1F94
ENCODING 8084
SWIDTH 541 0
DWIDTH 10 0
BBX 8 18 1 -4
BITMAP
2934
0A30
0A60
0850
0000
A2F4
A91C
B40D
B00D
B00D
B00D
B00D
B00D
B00D
000D
500D
600D
3800
ENDCHAR
STARTCHAR uni1F95
ENCODING 8085
SWIDTH 541 0
DWIDTH 10 0
BBX 8 18 1 -4
BITMAP
0A34
1870
1860
0990
0000
A2F4
A91C
B40D
B00D
B00D
B00D
B00D
B00D
B00D
000D
500D
600D
3800
ENDCHAR
STARTCHAR uni1F96
ENCODING 8086
SWIDTH 541 0
DWIDTH 10 0
BBX 8 20 1 -4
BITMAP
0A58
19B4
0000
0280
00D0
0180
0000
A2F4
A91C
B40D
B00D
B00D
B00D
B00D
B00D
B00D
000D
500D
600D
3800
ENDCHAR
STARTCHAR uni1F97
ENCODING 8087
SWIDTH 541 0
DWIDTH 10 0
BBX 8 20 1 -4
BITMAP
0A58
19B4
0000
01D0
0340
0180
0000
A2F4
A91C
B40D
B00D
B00D
B00D
B00D
B00D
B00D
000D
500D
600D
3800
ENDCHAR
STARTCHAR uni1F98
ENCODING 8088
SWIDTH 1028 0
DWIDTH 19 0
BBX 18 12 0 0
BITMAP
E1D0074000
35D0074000
35D0074000
51D0074000
01D0074000
01FFFF4280
01D0074280
01D0074280
01D0074280
01D0074280
01D0074280
01D00741F0
ENDCHAR
STARTCHAR uni1F99
ENCODING 8089
SWIDTH 1028 0
DWIDTH 19 0
BBX 18 12 0 0
BITMAP
75D0074000
D1D0074000
C1D0074000
61D0074000
01D0074000
01FFFF4280
01D0074280
01D0074280
01D0074280
01D0074280
01D0074280
01D00741F0
ENDCHAR
STARTCHAR uni1F9A
ENCODING 8090
SWIDTH 1148 0
DWIDTH 21 0
BBX 20 12 0 0
BITMAP
D30D003400
734D003400
724D003400
514D003400
000D003400
000FFFF42C
000D00342C
000D00342C
000D00342C
000D00342C
000D00342C
000D00340F
ENDCHAR
STARTCHAR uni1F9B
ENCODING 8091
SWIDTH 1144 0
DWIDTH 21 0
BBX 20 12 0 0
BITMAP
770D007400
C34D007400
C24D007400
514D007400
000D007400
000FFFF42C
000D007428
000D007428
000D007428
000D007428
000D00742C
000D00741F
ENDCHAR
STARTCHAR uni1F9C
ENCODING 8092
SWIDTH 1143 0
DWIDTH 21 0
BBX 20 12 0 0
BITMAP
D25D007400
735D007400
731D007400
521D007400
001D007400
001FFFF42C
001D007428
001D007428
001D007428
001D007428
001D00742C
001D00741F
ENDCHAR
STARTCHAR uni1F9D
ENCODING 8093
SWIDTH 1140 0
DWIDTH 21 0
BBX 20 12 0 0
BITMAP
735D007400
C35D007400
C71D007400
551D007400
001D007400
001FFFF428
001D007428
001D007428
001D007428
001D007428
001D007428
001D00741F
ENDCHAR
STARTCHAR uni1F9E
ENCODING 8094
SWIDTH 1098 0
DWIDTH 20 0
BBX 21 12 -1 0
BITMAP
388E00380000
574E00380000
1D0E00380000
060E00380000
040E00380000
000FFFF81C00
000E00381C00
000E00381C00
000E00381C00
000E00381C00
000E00381C00
000E00380B40
ENDCHAR
STARTCHAR uni1F9F
ENCODING 8095
SWIDTH 1098 0
DWIDTH 20 0
BBX 21 12 -1 0
BITMAP
388E00380000
574E00380000
0A0E00380000
180E00380000
040E00380000
000FFFF81C00
000E00381C00
000E00381C00
000E00381C00
000E00381C00
000E00381C00
000E00380B40
ENDCHAR
STARTCHAR uni1FA0
ENCODING 8096
SWIDTH 701 0
DWIDTH 13 0
BBX 11 18 1 -4
BITMAP
00A000
002800
002800
006000
000000
240090
7800B0
B00074
E06038
D07038
D07038
E07034
74E4B0
2F4BD0
000000
005000
006000
003800
ENDCHAR
STARTCHAR uni1FA1
ENCODING 8097
SWIDTH 701 0
DWIDTH 13 0
BBX 11 18 1 -4
BITMAP
007400
00D000
00A000
001000
000000
240090
7800B0
B00074
E06038
D07038
D07038
E07034
74E4B0
2F4BD0
000000
005000
006000
003800
ENDCHAR
STARTCHAR uni1FA2
ENCODING 8098
SWIDTH 701 0
DWIDTH 13 0
BBX 11 18 1 -4
BITMAP
065800
019C00
018C00
024900
000000
240090
7800B0
B00074
E06038
D07038
D07038
E07034
74E4B0
2F4BD0
000000
005000
006000
003800
ENDCHAR
STARTCHAR uni1FA3
ENCODING 8099
SWIDTH 701 0
DWIDTH 13 0
BBX 11 18 1 -4
BITMAP
02A800
0A1800
0A0C00
024800
000000
240090
7800B0
B00074
E06038
D07038
D07038
E07034
74E4B0
2F4BD0
000000
005000
006000
003800
ENDCHAR
STARTCHAR uni1FA4
ENCODING 8100
SWIDTH 701 0
DWIDTH 13 0
BBX 11 18 1 -4
BITMAP
064900
018D00
019C00
025800
000000
240090
7800B0
B00074
E06038
D07038
D07038
E07034
74E4B0
2F4BD0
000000
005000
006000
003800
ENDCHAR
STARTCHAR uni1FA5
ENCODING 8101
SWIDTH 701 0
DWIDTH 13 0
BBX 11 18 1 -4
BITMAP
02CD00
060C00
071800
025400
000000
240090
7800B0
B00074
E06038
D07038
D07038
E07034
74E4B0
2F4BD0
000000
005000
006000
003800
ENDCHAR
STARTCHAR uni1FA6
ENCODING 8102
SWIDTH 701 0
DWIDTH 13 0
BBX 11 20 1 -4
BITMAP
029600
026D00
000000
00A000
002400
006000
000000
240090
7800B0
B00074
E06038
D07038
D07038
E07034
74E4B0
2F4BD0
000000
005000
006000
003800
ENDCHAR
STARTCHAR uni1FA7
ENCODING 8103
SWIDTH 701 0
DWIDTH 13 0
BBX 11 20 1 -4
BITMAP
029600
026D00
000000
007400
00D000
006000
000000
240090
7800B0
B00074
E06038
D07038
D07038
E07034
74E4B0
2F4BD0
000000
005000
006000
003800
ENDCHAR
STARTCHAR uni1FA8
ENCODING 8104
SWIDTH 1031 0
DWIDTH 19 0
BBX 18 12 0 0
BITMAP
E01BE40000
34B42D0000
35D00B0000
5280038000
0380028000
034002C280
0340028280
0380038280
02C0074280
01D00B0280
00742D0280
07F83FC1F0
ENDCHAR
STARTCHAR uni1FA9
ENCODING 8105
SWIDTH 1018 0
DWIDTH 18 0
BBX 18 12 0 0
BITMAP
742FE00000
D0A42D0000
C2C00A0000
6380074000
0740038000
0700038380
0740038380
0740034380
0380070380
01D00E0340
00B02C0380
0BF87FC1E0
ENDCHAR
STARTCHAR uni1FAA
ENCODING 8106
SWIDTH 1158 0
DWIDTH 21 0
BBX 21 12 0 0
BITMAP
D301BE400000
734741E00000
724E00740000
516C00280000
0028002C0000
0038001C1C00
0038001C1C00
002C002C1C00
001D00381C00
000E00741C00
000781D01C00
003FC2FD0B40
ENDCHAR
STARTCHAR uni1FAB
ENCODING 8107
SWIDTH 1155 0
DWIDTH 21 0
BBX 21 12 0 0
BITMAP
7701BE400000
C34741E00000
C25D00740000
516C00380000
0038002C0000
0038001C1C00
0038002C1C00
0028002C1C00
001C00381C00
000E00B01C00
000741D01C00
007FC3FD0B40
ENDCHAR
STARTCHAR uni1FAC
ENCODING 8108
SWIDTH 1154 0
DWIDTH 21 0
BBX 21 12 0 0
BITMAP
D241BE400000
734741E00000
731D00740000
522C00380000
0038002C0000
0038001C1C00
0038002C1C00
0028002C1C00
001C00381C00
000E00B01C00
000741D01C00
007FC3FD0B40
ENDCHAR
STARTCHAR uni1FAD
ENCODING 8109
SWIDTH 1150 0
DWIDTH 21 0
BBX 20 12 0 0
BITMAP
7341BE4000
C34B41D000
C71D007400
552C003800
0038002C00
0038002C2C
0038002C2C
002800282C
002C00382C
000E00B02C
000741D01C
007FC3FD0F
ENDCHAR
STARTCHAR uni1FAE
ENCODING 8110
SWIDTH 1078 0
DWIDTH 19 0
BBX 20 12 -1 0
BITMAP
3882FE0000
574A42D000
1D2C00B000
0638007400
0474003800
0074003828
0074003828
0074003428
0038007028
001D00E028
000B02C028
00BF87FC1E
ENDCHAR
STARTCHAR uni1FAF
ENCODING 8111
SWIDTH 1078 0
DWIDTH 19 0
BBX 20 12 -1 0
BITMAP
3882FE0000
574A42D000
0A2C00B000
1838007400
0474003800
0074003828
0074003828
0074003428
0038007028
001D00E028
000B02C028
00BF87FC1E
ENDCHAR
STARTCHAR uni1FB0
ENCODING 8112
SWIDTH 560 0
DWIDTH 10 0
BBX 9 13 1 0
BITMAP
240800
1D2800
07E000
000000
1B9700
786B00
A01E00
E00E00
D00D00
D01D00
E02D00
746D00
2F8B80
ENDCHAR
STARTCHAR uni1FB1
ENCODING 8113
SWIDTH 560 0
DWIDTH 10 0
BBX 9 12 1 0
BITMAP
1FF800
000000
000000
1B9700
786B00
A01E00
E00E00
D00D00
D01D00
E02D00
746D00
2F8B80
ENDCHAR
STARTCHAR uni1FB2
ENCODING 8114
SWIDTH 560 0
DWIDTH 10 0
BBX 9 18 1 -4
BITMAP
080000
0E0000
038000
018000
000000
1B9700
786B00
A01E00
E00E00
D00D00
D01D00
E02D00
746D00
2F8B80
000000
014000
018000
00E000
ENDCHAR
STARTCHAR uni1FB3
ENCODING 8115
SWIDTH 560 0
DWIDTH 10 0
BBX 9 13 1 -4
BITMAP
1B9700
786B00
A01E00
E00E00
D00D00
D01D00
E02D00
746D00
2F8B80
000000
014000
018000
00E000
ENDCHAR
STARTCHAR uni1FB4
ENCODING 8116
SWIDTH 560 0
DWIDTH 10 0
BBX 9 18 1 -4
BITMAP
002400
00B400
01D000
024000
000000
1B9700
786B00
A01E00
E00E00
D00D00
D01D00
E02D00
746D00
2F8B80
000000
014000
018000
00E000
ENDCHAR
STARTCHAR uni1FB6
ENCODING 8118
SWIDTH 560 0
DWIDTH 10 0
BBX 9 13 1 0
BITMAP
050400
2B8C00
30B800
000000
1B9700
786B00
A01E00
E00E00
D00D00
D01D00
E02D00
746D00
2F8B80
ENDCHAR
STARTCHAR uni1FB7
ENCODING 8119
SWIDTH 560 0
DWIDTH 10 0
BBX 9 17 1 -4
BITMAP
050400
2B8C00
30B800
000000
1B9700
786B00
A01E00
E00E00
D00D00
D01D00
E02D00
746D00
2F8B80
000000
014000
018000
00E000
ENDCHAR
STARTCHAR uni1FB8
ENCODING 8120
SWIDTH 544 0
DWIDTH 10 0
BBX 10 16 0 0
BITMAP
090900
061C00
02F400
000000
00F000
01B400
026800
035C00
070D00
0A0A00
0D0B00
1FFF40
280380
3402C0
7001D0
A000E0
ENDCHAR
STARTCHAR uni1FB9
ENCODING 8121
SWIDTH 544 0
DWIDTH 10 0
BBX 10 14 0 0
BITMAP
0BFD00
000000
00F000
01B400
026800
035C00
070D00
0A0A00
0D0B00
1FFF40
280380
3402C0
7001D0
A000E0
ENDCHAR
STARTCHAR uni1FBA
ENCODING 8122
SWIDTH 566 0
DWIDTH 10 0
BBX 10 12 0 0
BITMAP
90B400
A0E800
61DC00
228D00
034A00
070700
0A0340
0FFF80
1C01C0
2801D0
3400E0
7000B0
ENDCHAR
STARTCHAR uni1FBB
ENCODING 8123
SWIDTH 566 0
DWIDTH 10 0
BBX 10 12 0 0
BITMAP
60B400
A0E800
91DC00
828D00
034A00
070700
0A0340
0FFF80
1C01C0
2801D0
3400E0
7000B0
ENDCHAR
STARTCHAR uni1FBC
ENCODING 8124
SWIDTH 802 0
DWIDTH 14 0
BBX 14 12 0 0
BITMAP
00F00000
01B40000
02680000
035C0000
070D0000
0A0A0280
0D0B0280
1FFF4280
28038280
3402C280
7001D280
A000E1F0
ENDCHAR
STARTCHAR uni1FBD
ENCODING 8125
SWIDTH 542 0
DWIDTH 10 0
BBX 4 4 3 10
BITMAP
74
1D
1D
24
ENDCHAR
STARTCHAR uni1FBE
ENCODING 8126
SWIDTH 262 0
DWIDTH 5 0
BBX 3 7 1 0
BITMAP
B0
B0
B0
B0
B0
70
3C
ENDCHAR
STARTCHAR uni1FBF
ENCODING 8127
SWIDTH 542 0
DWIDTH 10 0
BBX 4 4 3 10
BITMAP
74
1D
1D
24
ENDCHAR
STARTCHAR uni1FC0
ENCODING 8128
SWIDTH 542 0
DWIDTH 10 0
BBX 6 3 2 10
BITMAP
1010
ED70
82D0
ENDCHAR
STARTCHAR uni1FC1
ENCODING 8129
SWIDTH 542 0
DWIDTH 10 0
BBX 6 5 2 10
BITMAP
7950
87D0
0000
60D0
60D0
ENDCHAR
STARTCHAR uni1FC2
ENCODING 8130
SWIDTH 541 0
DWIDTH 10 0
BBX 8 18 1 -4
BITMAP
0800
0E00
0380
0080
0000
A2F4
A91C
B40D
B00D
B00D
B00D
B00D
B00D
B00D
000D
500D
600D
3800
ENDCHAR
STARTCHAR uni1FC3
ENCODING 8131
SWIDTH 541 0
DWIDTH 10 0
BBX 8 13 1 -4
BITMAP
A2F4
A91C
B40D
B00D
B00D
B00D
B00D
B00D
B00D
000D
500D
600D
3800
ENDCHAR
STARTCHAR uni1FC4
ENCODING 8132
SWIDTH 541 0
DWIDTH 10 0
BBX 8 18 1 -4
BITMAP
0024
0074
01D0
0140
0000
A2F4
A91C
B40D
B00D
B00D
B00D
B00D
B00D
B00D
000D
500D
600D
3800
ENDCHAR
STARTCHAR uni1FC6
ENCODING 8134
SWIDTH 541 0
DWIDTH 10 0
BBX 8 16 1 -3
BITMAP
0504
2A8D
24B8
0000
A2F4
A91C
B40D
B00D
B00D
B00D
B00D
B00D
B00D
000D
000D
000D
ENDCHAR
STARTCHAR uni1FC7
ENCODING 8135
SWIDTH 541 0
DWIDTH 10 0
BBX 8 17 1 -4
BITMAP
0504
2A8D
24B8
0000
A2F4
A91C
B40D
B00D
B00D
B00D
B00D
B00D
B00D
000D
500D
600D
3800
ENDCHAR
STARTCHAR uni1FC8
ENCODING 8136
SWIDTH 591 0
DWIDTH 11 0
BBX 11 12 -1 0
BITMAP
71FFF8
35D000
35D000
25D000
01D000
01FFE0
01D000
01D000
01D000
01D000
01D000
01FFF8
ENDCHAR
STARTCHAR uni1FC9
ENCODING 8137
SWIDTH 591 0
DWIDTH 11 0
BBX 11 12 -1 0
BITMAP
35FFF8
35D000
71D000
51D000
01D000
01FFE0
01D000
01D000
01D000
01D000
01D000
01FFF8
ENDCHAR
STARTCHAR uni1FCA
ENCODING 8138
SWIDTH 716 0
DWIDTH 13 0
BBX 13 12 -1 0
BITMAP
71D00740
35D00740
35D00740
25D00740
01D00740
01FFFF40
01D00740
01D00740
01D00740
01D00740
01D00740
01D00740
ENDCHAR
STARTCHAR uni1FCB
ENCODING 8139
SWIDTH 716 0
DWIDTH 13 0
BBX 13 12 -1 0
BITMAP
35D00740
35D00740
71D00740
51D00740
01D00740
01FFFF40
01D00740
01D00740
01D00740
01D00740
01D00740
01D00740
ENDCHAR
STARTCHAR uni1FCC
ENCODING 8140
SWIDTH 910 0
DWIDTH 16 0
BBX 15 12 1 0
BITMAP
7001C000
7001C000
7001C000
7001C000
7001C000
7FFFC0A0
7001C0A0
7001C0A0
7001C0A0
7001C0A0
7001C0A0
7001C078
ENDCHAR
STARTCHAR uni1FCD
ENCODING 8141
SWIDTH 542 0
DWIDTH 10 0
BBX 5 4 2 10
BITMAP
E240
2680
3580
6080
ENDCHAR
STARTCHAR uni1FCE
ENCODING 8142
SWIDTH 542 0
DWIDTH 10 0
BBX 5 4 2 10
BITMAP
E1C0
2580
3640
6200
ENDCHAR
STARTCHAR uni1FCF
ENCODING 8143
SWIDTH 542 0
DWIDTH 10 0
BBX 6 6 2 10
BITMAP
2890
97C0
0000
1E00
0700
0900
ENDCHAR
STARTCHAR uni1FD0
ENCODING 8144
SWIDTH 262 0
DWIDTH 5 0
BBX 6 13 -1 0
BITMAP
5030
74A0
1F80
0000
0B00
0B00
0B00
0B00
0B00
0B00
0B00
0700
03C0
ENDCHAR
STARTCHAR uni1FD1
ENCODING 8145
SWIDTH 262 0
DWIDTH 5 0
BBX 5 12 0 0
BITMAP
FF80
0000
0000
2C00
2C00
2C00
2C00
2C00
2C00
2C00
1C00
0F00
ENDCHAR
STARTCHAR uni1FD2
ENCODING 8146
SWIDTH 262 0
DWIDTH 5 0
BBX 6 14 -1 0
BITMAP
0900
0A00
6660
6270
0000
0B00
0B00
0B00
0B00
0B00
0B00
0B00
0700
03C0
ENDCHAR
STARTCHAR uni1FD3
ENCODING 8147
SWIDTH 262 0
DWIDTH 5 0
BBX 6 14 -1 0
BITMAP
0240
0300
6660
6570
0000
0B00
0B00
0B00
0B00
0B00
0B00
0B00
0700
03C0
ENDCHAR
STARTCHAR uni1FD6
ENCODING 8150
SWIDTH 262 0
DWIDTH 5 0
BBX 7 13 -1 0
BITMAP
1410
AA34
92E0
0000
0B00
0B00
0B00
0B00
0B00
0B00
0B00
0700
03C0
ENDCHAR
STARTCHAR uni1FD7
ENCODING 8151
SWIDTH 262 0
DWIDTH 5 0
BBX 6 15 -1 0
BITMAP
3D20
56D0
0000
30A0
30A0
0000
0B00
0B00
0B00
0B00
0B00
0B00
0B00
0700
03C0
ENDCHAR
STARTCHAR uni1FD8
ENCODING 8152
SWIDTH 263 0
DWIDTH 5 0
BBX 5 16 0 0
BITMAP
8080
D280
6E00
0000
1C00
1C00
1C00
1C00
1C00
1C00
1C00
1C00
1C00
1C00
1C00
1C00
ENDCHAR
STARTCHAR uni1FD9
ENCODING 8153
SWIDTH 263 0
DWIDTH 5 0
BBX 5 14 0 0
BITMAP
FF80
0000
1C00
1C00
1C00
1C00
1C00
1C00
1C00
1C00
1C00
1C00
1C00
1C00
ENDCHAR
STARTCHAR uni1FDA
ENCODING 8154
SWIDTH 327 0
DWIDTH 6 0
BBX 6 12 -1 0
BITMAP
71D0
35D0
35D0
25D0
01D0
01D0
01D0
01D0
01D0
01D0
01D0
01D0
ENDCHAR
STARTCHAR uni1FDB
ENCODING 8155
SWIDTH 327 0
DWIDTH 6 0
BBX 6 12 -1 0
BITMAP
35D0
35D0
71D0
51D0
01D0
01D0
01D0
01D0
01D0
01D0
01D0
01D0
ENDCHAR
STARTCHAR uni1FDD
ENCODING 8157
SWIDTH 542 0
DWIDTH 10 0
BBX 5 4 2 10
BITMAP
7740
D340
D280
6180
ENDCHAR
STARTCHAR uni1FDE
ENCODING 8158
SWIDTH 542 0
DWIDTH 10 0
BBX 5 4 2 10
BITMAP
6580
9280
9240
6300
ENDCHAR
STARTCHAR uni1FDF
ENCODING 8159
SWIDTH 542 0
DWIDTH 10 0
BBX 6 6 2 10
BITMAP
2890
97C0
0000
0B00
1C00
0900
ENDCHAR
STARTCHAR uni1FE0
ENCODING 8160
SWIDTH 510 0
DWIDTH 9 0
BBX 7 13 1 0
BITMAP
6020
3460
1B80
0000
E038
A028
A01C
A01C
A01C
A01C
A02C
7474
1FD0
ENDCHAR
STARTCHAR uni1FE1
ENCODING 8161
SWIDTH 510 0
DWIDTH 9 0
BBX 7 12 1 0
BITMAP
3FE0
0000
0000
E038
A028
A01C
A01C
A01C
A01C
A02C
7474
1FD0
ENDCHAR
STARTCHAR uni1FE2
ENCODING 8162
SWIDTH 510 0
DWIDTH 9 0
BBX 7 14 1 0
BITMAP
0900
0600
7330
7270
0000
E038
A028
A01C
A01C
A01C
A01C
A02C
7474
1FD0
ENDCHAR
STARTCHAR uni1FE3
ENCODING 8163
SWIDTH 510 0
DWIDTH 9 0
BBX 7 14 1 0
BITMAP
0240
0340
7330
7630
0000
E038
A028
A01C
A01C
A01C
A01C
A02C
7474
1FD0
ENDCHAR
STARTCHAR uni1FE4
ENCODING 8164
SWIDTH 549 0
DWIDTH 10 0
BBX 8 17 1 -3
BITMAP
0380
00A0
00A0
0180
0000
0BE4
2D2D
740A
B00B
B00B
A00B
B00E
B82C
A7E4
B000
B000
B000
ENDCHAR
STARTCHAR uni1FE5
ENCODING 8165
SWIDTH 549 0
DWIDTH 10 0
BBX 8 17 1 -3
BITMAP
01D0
0340
0380
0040
0000
0BE4
2D2D
740A
B00B
B00B
A00B
B00E
B82C
A7E4
B000
B000
B000
ENDCHAR
STARTCHAR uni1FE6
ENCODING 8166
SWIDTH 510 0
DWIDTH 9 0
BBX 7 13 1 0
BITMAP
1410
7A24
91E0
0000
E038
A028
A01C
A01C
A01C
A01C
A02C
7474
1FD0
ENDCHAR
STARTCHAR uni1FE7
ENCODING 8167
SWIDTH 510 0
DWIDTH 9 0
BBX 7 15 1 0
BITMAP
2D20
62E0
0000
3460
3460
0000
E038
A028
A01C
A01C
A01C
A01C
A02C
7474
1FD0
ENDCHAR
STARTCHAR uni1FE8
ENCODING 8168
SWIDTH 476 0
DWIDTH 9 0
BBX 9 16 0 0
BITMAP
180800
0D2800
07E000
000000
A00740
740B00
280D00
1C2C00
0E3400
07B000
03D000
02C000
01C000
01C000
01C000
01C000
ENDCHAR
STARTCHAR uni1FE9
ENCODING 8169
SWIDTH 476 0
DWIDTH 9 0
BBX 9 14 0 0
BITMAP
0FF800
000000
A00740
740B00
280D00
1C2C00
0E3400
07B000
03D000
02C000
01C000
01C000
01C000
01C000
ENDCHAR
STARTCHAR uni1FEA
ENCODING 8170
SWIDTH 600 0
DWIDTH 11 0
BBX 12 12 -1 0
BITMAP
72C00E
34D01C
34B038
243470
0028A0
000DD0
000B80
000740
000740
000740
000740
000740
ENDCHAR
STARTCHAR uni1FEB
ENCODING 8171
SWIDTH 600 0
DWIDTH 11 0
BBX 12 12 -1 0
BITMAP
36C00E
34D01C
70B038
503470
0028A0
000DD0
000B80
000740
000740
000740
000740
000740
ENDCHAR
STARTCHAR uni1FEC
ENCODING 8172
SWIDTH 684 0
DWIDTH 12 0
BBX 12 12 0 0
BITMAP
75FFE0
D1D06C
C1D00D
61D00E
01D01D
01D06C
01FFE0
01D000
01D000
01D000
01D000
01D000
ENDCHAR
STARTCHAR uni1FED
ENCODING 8173
SWIDTH 542 0
DWIDTH 10 0
BBX 6 4 2 10
BITMAP
1C00
0C00
9990
9590
ENDCHAR
STARTCHAR uni1FEE
ENCODING 8174
SWIDTH 542 0
DWIDTH 10 0
BBX 6 4 2 10
BITMAP
0300
0600
9990
9890
ENDCHAR
STARTCHAR uni1FEF
ENCODING 8175
SWIDTH 542 0
DWIDTH 10 0
BBX 3 4 3 11
BITMAP
A0
70
34
24
ENDCHAR
STARTCHAR uni1FF2
ENCODING 8178
SWIDTH 701 0
DWIDTH 13 0
BBX 11 18 1 -4
BITMAP
024000
02C000
00A000
002000
000000
240090
7800B0
B00074
E06038
D07038
D07038
E07034
74E4B0
2F4BD0
000000
005000
006000
003800
ENDCHAR
STARTCHAR uni1FF3
ENCODING 8179
SWIDTH 701 0
DWIDTH 13 0
BBX 11 13 1 -4
BITMAP
240090
7800B0
B00074
E06038
D07038
D07038
E07034
74E4B0
2F4BD0
000000
005000
006000
003800
ENDCHAR
STARTCHAR uni1FF4
ENCODING 8180
SWIDTH 701 0
DWIDTH 13 0
BBX 11 18 1 -4
BITMAP
000900
001D00
007400
006000
000000
240090
7800B0
B00074
E06038
D07038
D07038
E07034
74E4B0
2F4BD0
000000
005000
006000
003800
ENDCHAR
STARTCHAR uni1FF6
ENCODING 8182
SWIDTH 701 0
DWIDTH 13 0
BBX 11 13 1 0
BITMAP
014100
06A240
092E00
000000
240090
7800B0
B00074
E06038
D07038
D07038
E07034
74E4B0
2F4BD0
ENDCHAR
STARTCHAR uni1FF7
ENCODING 8183
SWIDTH 701 0
DWIDTH 13 0
BBX 11 17 1 -4
BITMAP
014100
06A240
092E00
000000
240090
7800B0
B00074
E06038
D07038
D07038
E07034
74E4B0
2F4BD0
000000
005000
006000
003800
ENDCHAR
STARTCHAR uni1FF8
ENCODING 8184
SWIDTH 717 0
DWIDTH 13 0
BBX 13 12 -1 0
BITMAP
701BE400
34B41D00
35D00740
26800380
038002C0
034002C0
038002C0
03800280
02C00380
01D00B00
00B41D00
001BE400
ENDCHAR
STARTCHAR uni1FF9
ENCODING 8185
SWIDTH 711 0
DWIDTH 13 0
BBX 13 12 -1 0
BITMAP
341BE400
34B42D00
71D00B00
53800340
03800380
074002C0
074002C0
03800380
02800340
01D00B00
00B42D00
001BE400
ENDCHAR
STARTCHAR uni1FFA
ENCODING 8186
SWIDTH 726 0
DWIDTH 13 0
BBX 14 12 -1 0
BITMAP
701BE400
34741E00
35D00740
26C00380
038002C0
038002C0
038002C0
028002C0
01C00380
00E00B00
00741D00
07FC3FD0
ENDCHAR
STARTCHAR uni1FFB
ENCODING 8187
SWIDTH 723 0
DWIDTH 13 0
BBX 14 12 -1 0
BITMAP
341BE400
30B41D00
71D00740
52C00380
038002C0
034002C0
038002C0
03800280
02C00340
00E00B00
00741D00
07FC3FD0
ENDCHAR
STARTCHAR uni1FFC
ENCODING 8188
SWIDTH 935 0
DWIDTH 17 0
BBX 17 12 0 0
BITMAP
01BE400000
0741E00000
0D00740000
2C00280000
28002C0000
38001C1C00
38001C1C00
28002C1C00
1C00381C00
0E00701C00
0741D01C00
7FC2FD0B40
ENDCHAR
STARTCHAR uni1FFD
ENCODING 8189
SWIDTH 542 0
DWIDTH 10 0
BBX 3 4 4 10
BITMAP
34
70
60
90
ENDCHAR
STARTCHAR uni1FFE
ENCODING 8190
SWIDTH 542 0
DWIDTH 10 0
BBX 3 3 3 11
BITMAP
2C
60
74
ENDCHAR
STARTCHAR uni2007
ENCODING 8199
SWIDTH 497 0
DWIDTH 9 0
BBX 1 1 0 0
BITMAP
00
ENDCHAR
STARTCHAR figuredash
ENCODING 8210
SWIDTH 497 0
DWIDTH 9 0
BBX 9 1 0 4
BITMAP
7FFF40
ENDCHAR
STARTCHAR endash
ENCODING 8211
SWIDTH 480 0
DWIDTH 9 0
BBX 8 1 0 4
BITMAP
7FFF
ENDCHAR
STARTCHAR emdash
ENCODING 8212
SWIDTH 800 0
DWIDTH 14 0
BBX 14 1 0 4
BITMAP
7FFFFFE0
ENDCHAR
STARTCHAR uni2015
ENCODING 8213
SWIDTH 800 0
DWIDTH 14 0
BBX 14 1 0 4
BITMAP
7FFFFFE0
ENDCHAR
STARTCHAR uni2016
ENCODING 8214
SWIDTH 390 0
DWIDTH 7 0
BBX 5 18 1 -5
BITMAP
6240
6240
6240
6240
6240
6240
6240
6240
6240
6240
6240
6240
6240
6240
6240
6240
6240
6240
ENDCHAR
STARTCHAR quoteleft
ENCODING 8216
SWIDTH 249 0
DWIDTH 4 0
BBX 2 4 1 8
BITMAP
20
60
C0
B0
ENDCHAR
STARTCHAR quoteright
ENCODING 8217
SWIDTH 249 0
DWIDTH 4 0
BBX 3 4 1 8
BITMAP
74
24
30
90
ENDCHAR
STARTCHAR quotesinglbase
ENCODING 8218
SWIDTH 249 0
DWIDTH 4 0
BBX 3 4 1 -2
BITMAP
74
24
30
90
ENDCHAR
STARTCHAR quotedblleft
ENCODING 8220
SWIDTH 425 0
DWIDTH 8 0
BBX 6 4 1 8
BITMAP
2050
6180
C240
B2C0
ENDCHAR
STARTCHAR quotedblright
ENCODING 8221
SWIDTH 425 0
DWIDTH 8 0
BBX 6 4 1 8
BITMAP
75D0
2460
3090
9140
ENDCHAR
STARTCHAR quotedblbase
ENCODING 8222
SWIDTH 425 0
DWIDTH 8 0
BBX 6 4 1 -2
BITMAP
75D0
2460
3090
9140
ENDCHAR
STARTCHAR dagger
ENCODING 8224
SWIDTH 454 0
DWIDTH 8 0
BBX 7 14 1 -1
BITMAP
0A00
0A00
0600
FFF4
0600
0600
0600
0600
0600
0A00
0A00
0A00
0A00
0A00
ENDCHAR
STARTCHAR daggerdbl
ENCODING 8225
SWIDTH 454 0
DWIDTH 8 0
BBX 7 14 1 -1
BITMAP
0A00
0A00
0600
FFF4
0600
0A00
0A00
0A00
0A00
0600
FFF4
0600
0A00
0600
ENDCHAR
STARTCHAR bullet
ENCODING 8226
SWIDTH 304 0
DWIDTH 5 0
BBX 5 4 0 3
BITMAP
2E00
7F80
7F80
2E00
ENDCHAR
STARTCHAR ellipsis
ENCODING 8230
SWIDTH 948 0
DWIDTH 17 0
BBX 14 2 2 0
BITMAP
E00E00E0
E00E00E0
ENDCHAR
STARTCHAR uni202F
ENCODING 8239
SWIDTH 125 0
DWIDTH 2 0
BBX 1 1 0 0
BITMAP
00
ENDCHAR
STARTCHAR perthousand
ENCODING 8240
SWIDTH 1194 0
DWIDTH 21 0
BBX 21 12 0 0
BITMAP
1B8018000000
34A024000000
707060000000
603090000000
707180000000
34A30B807E00
1B8628A0D240
000C30318180
0028303181C0
003030318180
009028A0D240
00C00B807E00
ENDCHAR
STARTCHAR uni2032
ENCODING 8242
SWIDTH 249 0
DWIDTH 4 0
BBX 3 4 1 8
BITMAP
74
70
60
60
ENDCHAR
STARTCHAR uni2033
ENCODING 8243
SWIDTH 426 0
DWIDTH 8 0
BBX 6 4 1 8
BITMAP
74D0
70D0
61C0
6180
ENDCHAR
STARTCHAR uni2035
ENCODING 8245
SWIDTH 249 0
DWIDTH 4 0
BBX 2 4 1 8
BITMAP
A0
A0
70
30
ENDCHAR
STARTCHAR guilsinglleft
ENCODING 8249
SWIDTH 271 0
DWIDTH 5 0
BBX 4 7 0 1
BITMAP
06
0D
28
70
24
0D
06
ENDCHAR
STARTCHAR guilsinglright
ENCODING 8250
SWIDTH 271 0
DWIDTH 5 0
BBX 3 7 1 1
BITMAP
80
60
28
0C
28
60
80
ENDCHAR
STARTCHAR uni203C
ENCODING 8252
SWIDTH 549 0
DWIDTH 10 0
BBX 8 13 1 0
BITMAP
2418
341C
341C
341C
341C
341C
341C
301C
3018
0000
0000
742D
742D
ENDCHAR
STARTCHAR uni203D
ENCODING 8253
SWIDTH 432 0
DWIDTH 8 0
BBX 7 12 0 0
BITMAP
1BE0
7478
002C
0328
0374
0390
0380
0340
0000
0000
0740
0740
ENDCHAR
STARTCHAR uni203E
ENCODING 8254
SWIDTH 500 0
DWIDTH 9 0
BBX 9 1 0 10
BITMAP
BFFF80
ENDCHAR
STARTCHAR uni203F
ENCODING 8255
SWIDTH 0 0
DWIDTH 0 0
BBX 16 3 -8 -4
BITMAP
90000006
2E5005B8
01AFFA40
ENDCHAR
STARTCHAR fraction
ENCODING 8260
SWIDTH 86 0
DWIDTH 2 0
BBX 8 12 -3 0
BITMAP
0009
0018
0024
0060
00C0
0180
0300
0900
0C00
2400
6000
9000
ENDCHAR
STARTCHAR uni2047
ENCODING 8263
SWIDTH 815 0
DWIDTH 15 0
BBX 13 12 1 0
BITMAP
6F81BE00
91D24780
00A00280
00E00380
02C00B00
07401D00
0E003800
0D003400
00000000
00000000
1D007400
1D007400
ENDCHAR
STARTCHAR uni2048
ENCODING 8264
SWIDTH 679 0
DWIDTH 12 0
BBX 10 13 1 0
BITMAP
000090
6F80D0
91D0D0
00A0D0
00E0D0
02C0D0
0740D0
0E00D0
0D00C0
000000
000000
1D01D0
1D01D0
ENDCHAR
STARTCHAR uni2049
ENCODING 8265
SWIDTH 679 0
DWIDTH 12 0
BBX 11 13 1 0
BITMAP
240000
342F90
3460B0
340034
340070
3400E0
340280
300700
300A00
000000
000000
740B00
740B00
ENDCHAR
STARTCHAR zero.sups
ENCODING 8304
SWIDTH 367 0
DWIDTH 7 0
BBX 6 7 0 7
BITMAP
1B80
34A0
7070
6030
7070
34A0
1B80
ENDCHAR
STARTCHAR i.sups
ENCODING 8305
SWIDTH 166 0
DWIDTH 3 0
BBX 1 8 1 7
BITMAP
C0
00
C0
C0
C0
C0
C0
C0
ENDCHAR
STARTCHAR four.sups
ENCODING 8308
SWIDTH 367 0
DWIDTH 7 0
BBX 6 7 0 7
BITMAP
02C0
06C0
1CC0
34C0
7FF0
00C0
00C0
ENDCHAR
STARTCHAR five.sups
ENCODING 8309
SWIDTH 367 0
DWIDTH 7 0
BBX 5 7 1 7
BITMAP
7F40
9000
BE00
5280
0180
8280
7E00
ENDCHAR
STARTCHAR six.sups
ENCODING 8310
SWIDTH 367 0
DWIDTH 7 0
BBX 5 7 1 7
BITMAP
2F40
A000
C000
EF40
D180
9180
2E00
ENDCHAR
STARTCHAR seven.sups
ENCODING 8311
SWIDTH 367 0
DWIDTH 7 0
BBX 5 7 1 7
BITMAP
FF80
0240
0600
0D00
1C00
1800
2800
ENDCHAR
STARTCHAR eight.sups
ENCODING 8312
SWIDTH 367 0
DWIDTH 7 0
BBX 5 7 1 7
BITMAP
7E00
9240
A240
7E00
D680
D280
7E00
ENDCHAR
STARTCHAR nine.sups
ENCODING 8313
SWIDTH 367 0
DWIDTH 7 0
BBX 6 7 0 7
BITMAP
1F80
3090
70A0
2FA0
00A0
11D0
2F40
ENDCHAR
STARTCHAR parenleft.sups
ENCODING 8317
SWIDTH 237 0
DWIDTH 4 0
BBX 3 10 1 5
BITMAP
24
30
60
90
90
90
90
60
30
24
ENDCHAR
STARTCHAR parenright.sups
ENCODING 8318
SWIDTH 237 0
DWIDTH 4 0
BBX 2 10 1 5
BITMAP
80
90
60
30
30
30
30
60
90
80
ENDCHAR
STARTCHAR n.sups
ENCODING 8319
SWIDTH 369 0
DWIDTH 7 0
BBX 5 6 1 7
BITMAP
9F40
D280
C180
C180
C180
C180
ENDCHAR
STARTCHAR zero.subs
ENCODING 8320
SWIDTH 367 0
DWIDTH 7 0
BBX 6 7 0 -3
BITMAP
1B80
34A0
7070
6030
7070
34A0
1B80
ENDCHAR
STARTCHAR one.subs
ENCODING 8321
SWIDTH 367 0
DWIDTH 7 0
BBX 4 7 1 -3
BITMAP
6D
0D
0D
0D
0D
0D
0D
ENDCHAR
STARTCHAR two.subs
ENCODING 8322
SWIDTH 367 0
DWIDTH 7 0
BBX 5 7 1 -3
BITMAP
7E00
8340
0240
0700
1D00
7400
FF80
ENDCHAR
STARTCHAR three.subs
ENCODING 8323
SWIDTH 367 0
DWIDTH 7 0
BBX 5 7 1 -3
BITMAP
7E00
9340
0740
2E00
0280
8280
7E00
ENDCHAR
STARTCHAR four.subs
ENCODING 8324
SWIDTH 367 0
DWIDTH 7 0
BBX 6 7 0 -3
BITMAP
02C0
06C0
1CC0
34C0
7FF0
00C0
00C0
ENDCHAR
STARTCHAR five.subs
ENCODING 8325
SWIDTH 367 0
DWIDTH 7 0
BBX 5 7 1 -3
BITMAP
7F40
9000
BE00
5280
0180
8280
7E00
ENDCHAR
STARTCHAR six.subs
ENCODING 8326
SWIDTH 367 0
DWIDTH 7 0
BBX 5 7 1 -3
BITMAP
2F40
A000
C000
EF40
D180
9180
2E00
ENDCHAR
STARTCHAR seven.subs
ENCODING 8327
SWIDTH 367 0
DWIDTH 7 0
BBX 5 7 1 -3
BITMAP
FF80
0240
0600
0D00
1C00
1800
2800
ENDCHAR
STARTCHAR eight.subs
ENCODING 8328
SWIDTH 367 0
DWIDTH 7 0
BBX 5 7 1 -3
BITMAP
7E00
9240
A240
7E00
D680
D280
7E00
ENDCHAR
STARTCHAR nine.subs
ENCODING 8329
SWIDTH 367 0
DWIDTH 7 0
BBX 6 7 0 -3
BITMAP
1F80
3090
70A0
2FA0
00A0
11D0
2F40
ENDCHAR
STARTCHAR parenleft.subs
ENCODING 8333
SWIDTH 237 0
DWIDTH 4 0
BBX 3 10 1 -5
BITMAP
24
30
60
90
90
90
90
60
30
24
ENDCHAR
STARTCHAR parenright.subs
ENCODING 8334
SWIDTH 237 0
DWIDTH 4 0
BBX 2 10 1 -5
BITMAP
80
90
60
30
30
30
30
60
90
80
ENDCHAR
STARTCHAR uni0259.sups
ENCODING 8340
SWIDTH 336 0
DWIDTH 6 0
BBX 6 6 0 7
BITMAP
2F40
11D0
0090
BFD0
6090
2F40
ENDCHAR
STARTCHAR colonmonetary
ENCODING 8353
SWIDTH 497 0
DWIDTH 9 0
BBX 8 15 1 -2
BITMAP
0054
0160
0BF8
2E6D
7620
B220
A260
E250
A250
B580
7980
2D9D
0BF4
0880
0840
ENDCHAR
STARTCHAR lira
ENCODING 8356
SWIDTH 497 0
DWIDTH 9 0
BBX 7 11 1 0
BITMAP
0BF4
2D18
3800
3800
BFE0
1C00
BFE0
1D00
1C00
7400
FFFC
ENDCHAR
STARTCHAR uni20A6
ENCODING 8358
SWIDTH 497 0
DWIDTH 9 0
BBX 9 11 0 0
BITMAP
1D0900
1E0900
1B0900
1A4900
BFFF80
18C900
BFFF80
186900
183900
182D00
181D00
ENDCHAR
STARTCHAR peseta
ENCODING 8359
SWIDTH 497 0
DWIDTH 9 0
BBX 9 11 0 0
BITMAP
2FE400
2C2C00
2C0D00
BFFF80
2C0D00
2C2C00
2FE000
2C0000
2C0000
2C0000
2C0000
ENDCHAR
STARTCHAR uni20A9
ENCODING 8361
SWIDTH 497 0
DWIDTH 9 0
BBX 10 11 -1 0
BITMAP
2810A0
2874A0
1C6490
1CA8D0
0C98D0
7FFFF0
0DCDC0
098980
0A8A80
074B80
074740
ENDCHAR
STARTCHAR dong
ENCODING 8363
SWIDTH 497 0
DWIDTH 9 0
BBX 8 13 1 0
BITMAP
0010
0034
0BFE
0034
0A74
39B4
A034
A034
A034
74B4
1B64
0000
BFFC
ENDCHAR
STARTCHAR Euro
ENCODING 8364
SWIDTH 497 0
DWIDTH 9 0
BBX 9 11 0 0
BITMAP
01BE00
074240
0E0000
1D0000
7FFE00
2C0000
7FF800
1D0000
0E0000
074280
01BE00
ENDCHAR
STARTCHAR uni20AE
ENCODING 8366
SWIDTH 497 0
DWIDTH 9 0
BBX 9 11 0 0
BITMAP
7FFF40
01D000
01D500
01F800
07D500
29F800
07D000
29D000
01D000
01D000
01D000
ENDCHAR
STARTCHAR uni20B1
ENCODING 8369
SWIDTH 497 0
DWIDTH 9 0
BBX 9 11 0 0
BITMAP
2FE400
2C2C00
BEAF80
2C0A00
BEAE40
2D6C00
2E9000
2C0000
2C0000
2C0000
2C0000
ENDCHAR
STARTCHAR uni20B2
ENCODING 8370
SWIDTH 497 0
DWIDTH 9 0
BBX 8 15 1 -2
BITMAP
0180
0180
0BF4
3918
B000
E000
D000
D0FD
D00D
E00D
B00D
381D
0BE4
0180
0180
ENDCHAR
STARTCHAR uni20B4
ENCODING 8372
SWIDTH 497 0
DWIDTH 9 0
BBX 9 11 0 0
BITMAP
0BE400
182C00
000D00
002C00
7FFF40
02D000
7FFF40
1D0000
1C0000
1D0A00
06F800
ENDCHAR
STARTCHAR uni20B5
ENCODING 8373
SWIDTH 497 0
DWIDTH 9 0
BBX 8 15 1 -2
BITMAP
0080
00C0
07F8
2DC8
74C0
B0C0
E0C0
E0C0
E0C0
B0C0
74C0
2DDD
0BE4
00C0
0080
ENDCHAR
STARTCHAR uni20B8
ENCODING 8376
SWIDTH 497 0
DWIDTH 9 0
BBX 9 11 0 0
BITMAP
7FFF40
000000
7FFF40
01D000
01D000
01D000
01D000
01D000
01D000
01D000
01D000
ENDCHAR
STARTCHAR uni20B9
ENCODING 8377
SWIDTH 497 0
DWIDTH 9 0
BBX 7 11 1 0
BITMAP
BFE8
02D0
00A0
BFFC
00A0
01D0
BE40
0E00
0380
01D0
00B4
ENDCHAR
STARTCHAR uni20BA
ENCODING 8378
SWIDTH 497 0
DWIDTH 9 0
BBX 9 11 0 0
BITMAP
0E0000
0E6400
0F9000
2E6400
5F9000
6E0000
5E0240
0E0340
0E0700
0E6D00
0FE400
ENDCHAR
STARTCHAR uni20BD
ENCODING 8381
SWIDTH 497 0
DWIDTH 9 0
BBX 8 11 0 0
BITMAP
2FE4
2C2D
2C0E
2C0E
2C2C
BFE4
2C00
BFF4
2C00
2C00
2C00
ENDCHAR
STARTCHAR uni2113
ENCODING 8467
SWIDTH 409 0
DWIDTH 7 0
BBX 7 13 0 0
BITMAP
02E0
0B28
0D1C
0D18
0D28
0D74
0DE0
0FC0
1F00
7D00
1D00
0B08
02F8
ENDCHAR
STARTCHAR uni2116
ENCODING 8470
SWIDTH 893 0
DWIDTH 16 0
BBX 15 11 1 0
BITMAP
780747E0
7C0A1D34
790A2818
770A2818
724A1C34
718A07E0
70DA0000
706A1FF4
703A0000
702E0000
E00E0000
ENDCHAR
STARTCHAR uni2117
ENCODING 8471
SWIDTH 743 0
DWIDTH 13 0
BBX 12 12 1 0
BITMAP
02FE40
1D01A0
340024
91FE0C
C18289
818285
818245
C1FE09
91800C
358024
1E41A0
02FE40
ENDCHAR
STARTCHAR uni2120
ENCODING 8480
SWIDTH 637 0
DWIDTH 11 0
BBX 10 5 1 7
BITMAP
B870B0
C468B0
786A70
496730
B86030
ENDCHAR
STARTCHAR trademark
ENCODING 8482
SWIDTH 637 0
DWIDTH 11 0
BBX 11 7 0 6
BITMAP
FF9800
AC1D1C
0C1A1C
0C1A4C
0C194C
0C180C
040008
ENDCHAR
STARTCHAR uni2126
ENCODING 8486
SWIDTH 678 0
DWIDTH 12 0
BBX 12 12 0 0
BITMAP
01BE40
0741E0
0D0074
2C0028
28002C
38001C
38001C
28002C
1C0038
0E0070
0741D0
7FC2FD
ENDCHAR
STARTCHAR estimated
ENCODING 8494
SWIDTH 800 0
DWIDTH 14 0
BBX 13 12 1 0
BITMAP
01BE4000
0A40B400
34000C00
B4000A00
F4000B00
F4000B40
FFFFFF80
F4000000
B4000000
34000400
0A406400
01BF8000
ENDCHAR
STARTCHAR uni2150
ENCODING 8528
SWIDTH 804 0
DWIDTH 14 0
BBX 13 12 1 0
BITMAP
7C00C000
1C024000
1C030000
1C090000
1C180000
1C25FF80
1C600340
00900A00
01800C00
03001800
06002800
0C002400
ENDCHAR
STARTCHAR uni2151
ENCODING 8529
SWIDTH 804 0
DWIDTH 14 0
BBX 13 12 1 0
BITMAP
7C009000
1C018000
1C030000
1C060000
1C0C0000
1C247D00
1C31C240
0091C280
0180BE80
02400280
06004740
0900BD00
ENDCHAR
STARTCHAR uni2152
ENCODING 8530
SWIDTH 1092 0
DWIDTH 20 0
BBX 18 12 1 0
BITMAP
B800C00000
1801800000
1803000000
1809000000
180C000000
18242C1B80
14301C34A0
00901C7070
01801C6030
02401C7070
06001C34A0
0900141B80
ENDCHAR
STARTCHAR onethird
ENCODING 8531
SWIDTH 804 0
DWIDTH 14 0
BBX 13 12 1 0
BITMAP
7C00C000
1C024000
1C030000
1C090000
1C180000
1C247E00
1C608340
00900700
01802E00
03000240
06018240
0C007E00
ENDCHAR
STARTCHAR twothirds
ENCODING 8532
SWIDTH 821 0
DWIDTH 15 0
BBX 13 12 1 0
BITMAP
7E003000
83409000
02418000
07024000
1D060000
74096E00
FF989280
00300240
00601E00
00C00280
02409280
03007E40
ENDCHAR
STARTCHAR uni2155
ENCODING 8533
SWIDTH 804 0
DWIDTH 14 0
BBX 13 12 1 0
BITMAP
7C00C000
1C024000
1C030000
1C090000
1C180000
1C24BF40
1C609000
0090BE00
01804240
03000280
06018240
0C007E00
ENDCHAR
STARTCHAR uni2156
ENCODING 8534
SWIDTH 821 0
DWIDTH 15 0
BBX 13 12 1 0
BITMAP
7E003000
83409000
02418000
07024000
1D060000
74097F80
FF986000
00307E40
00605280
00C001C0
02409280
03006E00
ENDCHAR
STARTCHAR uni2157
ENCODING 8535
SWIDTH 821 0
DWIDTH 15 0
BBX 13 12 1 0
BITMAP
7E002000
93409000
07418000
2E024000
02860000
82887F80
7E186000
00307E40
00605280
00C001C0
02409280
03006E00
ENDCHAR
STARTCHAR uni2158
ENCODING 8536
SWIDTH 846 0
DWIDTH 15 0
BBX 15 12 0 0
BITMAP
02C00900
06C01800
1CC02400
34C06000
7FF0C000
00C18BF0
00C30C00
00090FD0
000C0474
00240024
00201874
00900BD0
ENDCHAR
STARTCHAR uni2159
ENCODING 8537
SWIDTH 804 0
DWIDTH 14 0
BBX 13 12 1 0
BITMAP
7C009000
1C018000
1C030000
1C060000
1C0C0000
1C246E00
1C30D100
0091C000
0181AE00
02418240
0600D240
09007E00
ENDCHAR
STARTCHAR uni215A
ENCODING 8538
SWIDTH 821 0
DWIDTH 15 0
BBX 13 12 1 0
BITMAP
7F402000
90009000
BE018000
52824000
01860000
82882F40
7E18A000
0030C000
0061EF40
00C0D280
02409280
03002E00
ENDCHAR
STARTCHAR oneeighth
ENCODING 8539
SWIDTH 804 0
DWIDTH 14 0
BBX 13 12 1 0
BITMAP
7C009000
1C018000
1C030000
1C060000
1C0C0000
1C247E00
1C30D340
00909340
01807E00
0240D640
0601C280
0900BE00
ENDCHAR
STARTCHAR threeeighths
ENCODING 8540
SWIDTH 821 0
DWIDTH 15 0
BBX 13 12 1 0
BITMAP
7E002000
93409000
07418000
2E024000
02860000
82882E00
7E18A280
0030A240
00603F00
00C09280
0240D180
03007E40
ENDCHAR
STARTCHAR fiveeighths
ENCODING 8541
SWIDTH 821 0
DWIDTH 15 0
BBX 13 12 1 0
BITMAP
7F402000
90009000
BE018000
52824000
01860000
82882E00
7E18A280
0030A240
00603F00
00C09280
0240D180
03007E40
ENDCHAR
STARTCHAR seveneighths
ENCODING 8542
SWIDTH 801 0
DWIDTH 14 0
BBX 14 12 0 0
BITMAP
7FD03000
01C09000
02408000
07024000
0A060000
09091F80
0D1834D0
002035C0
00601F80
00C071D0
01807090
03002F80
ENDCHAR
STARTCHAR uni2189
ENCODING 8585
SWIDTH 821 0
DWIDTH 15 0
BBX 14 12 0 0
BITMAP
1B800800
34A02400
70706000
60309000
70718000
34A21B80
1B8624A0
000C0090
00180780
003000A0
009024A0
00C01F90
ENDCHAR
STARTCHAR uni2190
ENCODING 8592
SWIDTH 619 0
DWIDTH 11 0
BBX 11 9 0 0
BITMAP
007000
01D000
074000
2C0000
7FFFF4
2C0000
074000
01D000
007000
ENDCHAR
STARTCHAR arrowup
ENCODING 8593
SWIDTH 619 0
DWIDTH 11 0
BBX 9 10 1 -1
BITMAP
008000
03F000
0AEC00
28D700
A0D2C0
40D040
00D000
00D000
00D000
00D000
ENDCHAR
STARTCHAR uni2192
ENCODING 8594
SWIDTH 619 0
DWIDTH 11 0
BBX 11 9 0 0
BITMAP
002400
001E00
000380
0000E0
7FFFF4
0000E0
000380
001E00
002400
ENDCHAR
STARTCHAR arrowdown
ENCODING 8595
SWIDTH 619 0
DWIDTH 11 0
BBX 9 10 1 -1
BITMAP
00D000
00D000
00D000
00D000
40D040
A0D2C0
28D700
0AEC00
03F000
008000
ENDCHAR
STARTCHAR partialdiff
ENCODING 8706
SWIDTH 528 0
DWIDTH 10 0
BBX 9 12 0 0
BITMAP
06F800
051A00
000340
000380
000280
07FA80
2D0B80
340380
740340
740A00
281D00
0BE000
ENDCHAR
STARTCHAR uni2206
ENCODING 8710
SWIDTH 588 0
DWIDTH 11 0
BBX 10 12 0 0
BITMAP
00B400
00E800
01DC00
028D00
034A00
0B0700
0E0340
1D0280
2C01C0
3800D0
7400B0
7FFFF0
ENDCHAR
STARTCHAR product
ENCODING 8719
SWIDTH 673 0
DWIDTH 12 0
BBX 10 14 1 -3
BITMAP
7FFFE0
7000E0
7000E0
7000E0
7000E0
7000E0
7000E0
7000E0
7000E0
7000E0
7000E0
7000E0
7000E0
100050
ENDCHAR
STARTCHAR summation
ENCODING 8721
SWIDTH 504 0
DWIDTH 9 0
BBX 9 13 0 -2
BITMAP
7FFF80
380000
1D0000
0B4000
028000
00E000
00B000
00E000
028000
0B0000
1D0000
780000
BFFFC0
ENDCHAR
STARTCHAR minus
ENCODING 8722
SWIDTH 497 0
DWIDTH 9 0
BBX 9 1 0 5
BITMAP
7FFF40
ENDCHAR
STARTCHAR uni2215
ENCODING 8725
SWIDTH 86 0
DWIDTH 2 0
BBX 8 12 -3 0
BITMAP
0009
0018
0024
0060
00C0
0180
0300
0900
0C00
2400
6000
9000
ENDCHAR
STARTCHAR uni2219
ENCODING 8729
SWIDTH 502 0
DWIDTH 9 0
BBX 3 2 3 5
BITMAP
74
74
ENDCHAR
STARTCHAR radical
ENCODING 8730
SWIDTH 557 0
DWIDTH 10 0
BBX 9 16 1 -1
BITMAP
000080
000180
000280
000240
000300
000600
000600
000900
B40C00
581800
0C1800
092400
063000
036000
02A000
00D000
ENDCHAR
STARTCHAR infinity
ENCODING 8734
SWIDTH 782 0
DWIDTH 14 0
BBX 14 6 0 3
BITMAP
0B90BE40
347A82C0
701E00D0
701F00D0
387791C0
1B90BE00
ENDCHAR
STARTCHAR integral
ENCODING 8747
SWIDTH 332 0
DWIDTH 6 0
BBX 5 17 1 -3
BITMAP
0B40
1C00
2800
2800
2800
2800
2800
2800
1C00
1C00
1C00
0D00
0D00
0D00
0C00
1C00
F400
ENDCHAR
ENDFONT
